<svg xmlns="http://www.w3.org/2000/svg" xmlns:xlink="http://www.w3.org/1999/xlink" width="672" height="480" viewBox="0 0 504 360"><g class="svglite"><defs><style type="text/css">.svglite polyline,.svglite rect{fill:none;stroke:#000;stroke-linecap:round;stroke-linejoin:round;stroke-miterlimit:10}.svglite text{white-space:pre}</style></defs><rect width="100%" height="100%" style="stroke:none;fill:none"/><defs><clipPath id="cpMC4wMHw1MDQuMDB8MC4wMHwzNjAuMDA="><rect width="504" height="360" x="0" y="0"/></clipPath></defs><defs><clipPath id="cpMTE3LjgxfDQxNy4yNnwyMi43OHwzMjkuMTA="><rect width="299.45" height="306.32" x="117.81" y="22.78"/></clipPath></defs><g clip-path="url(#cpMTE3LjgxfDQxNy4yNnwyMi43OHwzMjkuMTA=)"><polyline points="159.75 329.1 159.75 22.78" style="stroke-width:.53;stroke:#fff;stroke-linecap:butt"/><polyline points="216.42 329.1 216.42 22.78" style="stroke-width:.53;stroke:#fff;stroke-linecap:butt"/><polyline points="273.08 329.1 273.08 22.78" style="stroke-width:.53;stroke:#fff;stroke-linecap:butt"/><polyline points="329.74 329.1 329.74 22.78" style="stroke-width:.53;stroke:#fff;stroke-linecap:butt"/><polyline points="386.41 329.1 386.41 22.78" style="stroke-width:.53;stroke:#fff;stroke-linecap:butt"/><polyline points="117.81 309.12 417.26 309.12" style="stroke-width:1.07;stroke:#fff;stroke-linecap:butt"/><polyline points="117.81 275.83 417.26 275.83" style="stroke-width:1.07;stroke:#fff;stroke-linecap:butt"/><polyline points="117.81 242.53 417.26 242.53" style="stroke-width:1.07;stroke:#fff;stroke-linecap:butt"/><polyline points="117.81 209.24 417.26 209.24" style="stroke-width:1.07;stroke:#fff;stroke-linecap:butt"/><polyline points="117.81 175.94 417.26 175.94" style="stroke-width:1.07;stroke:#fff;stroke-linecap:butt"/><polyline points="117.81 142.65 417.26 142.65" style="stroke-width:1.07;stroke:#fff;stroke-linecap:butt"/><polyline points="117.81 109.35 417.26 109.35" style="stroke-width:1.07;stroke:#fff;stroke-linecap:butt"/><polyline points="117.81 76.05 417.26 76.05" style="stroke-width:1.07;stroke:#fff;stroke-linecap:butt"/><polyline points="117.81 42.76 417.26 42.76" style="stroke-width:1.07;stroke:#fff;stroke-linecap:butt"/><polyline points="131.42 329.1 131.42 22.78" style="stroke-width:1.07;stroke:#fff;stroke-linecap:butt"/><polyline points="188.09 329.1 188.09 22.78" style="stroke-width:1.07;stroke:#fff;stroke-linecap:butt"/><polyline points="244.75 329.1 244.75 22.78" style="stroke-width:1.07;stroke:#fff;stroke-linecap:butt"/><polyline points="301.41 329.1 301.41 22.78" style="stroke-width:1.07;stroke:#fff;stroke-linecap:butt"/><polyline points="358.08 329.1 358.08 22.78" style="stroke-width:1.07;stroke:#fff;stroke-linecap:butt"/><polyline points="414.74 329.1 414.74 22.78" style="stroke-width:1.07;stroke:#fff;stroke-linecap:butt"/><rect width="0" height="14.98" x="131.42" y="127.66" style="stroke-width:1.07;stroke:none;stroke-linecap:butt;stroke-linejoin:miter;fill:#359946"/><rect width="57.47" height="14.98" x="131.42" y="194.25" style="stroke-width:1.07;stroke:none;stroke-linecap:butt;stroke-linejoin:miter;fill:#359946"/><rect width="84.69" height="14.98" x="131.42" y="227.55" style="stroke-width:1.07;stroke:none;stroke-linecap:butt;stroke-linejoin:miter;fill:#359946"/><rect width="272.22" height="14.98" x="131.42" y="294.14" style="stroke-width:1.07;stroke:none;stroke-linecap:butt;stroke-linejoin:miter;fill:#359946"/><rect width="30.25" height="14.98" x="131.42" y="160.96" style="stroke-width:1.07;stroke:none;stroke-linecap:butt;stroke-linejoin:miter;fill:#359946"/><rect width="7.06" height="14.98" x="131.42" y="61.07" style="stroke-width:1.07;stroke:none;stroke-linecap:butt;stroke-linejoin:miter;fill:#359946"/><rect width="9.07" height="14.98" x="131.42" y="94.37" style="stroke-width:1.07;stroke:none;stroke-linecap:butt;stroke-linejoin:miter;fill:#359946"/><rect width="9.07" height="14.98" x="131.42" y="27.78" style="stroke-width:1.07;stroke:none;stroke-linecap:butt;stroke-linejoin:miter;fill:#359946"/><rect width="96.79" height="14.98" x="131.42" y="260.85" style="stroke-width:1.07;stroke:none;stroke-linecap:butt;stroke-linejoin:miter;fill:#359946"/><rect width="39.95" height="14.98" x="131.42" y="142.65" style="stroke-width:1.07;stroke:none;stroke-linecap:butt;stroke-linejoin:miter;fill:#71c9f1"/><rect width="37.85" height="14.98" x="131.42" y="209.24" style="stroke-width:1.07;stroke:none;stroke-linecap:butt;stroke-linejoin:miter;fill:#71c9f1"/><rect width="76.74" height="14.98" x="131.42" y="242.53" style="stroke-width:1.07;stroke:none;stroke-linecap:butt;stroke-linejoin:miter;fill:#71c9f1"/><rect width="265.97" height="14.98" x="131.42" y="309.12" style="stroke-width:1.07;stroke:none;stroke-linecap:butt;stroke-linejoin:miter;fill:#71c9f1"/><rect width="25.23" height="14.98" x="131.42" y="175.94" style="stroke-width:1.07;stroke:none;stroke-linecap:butt;stroke-linejoin:miter;fill:#71c9f1"/><rect width="5.26" height="14.98" x="131.42" y="76.05" style="stroke-width:1.07;stroke:none;stroke-linecap:butt;stroke-linejoin:miter;fill:#71c9f1"/><rect width="15.77" height="14.98" x="131.42" y="109.35" style="stroke-width:1.07;stroke:none;stroke-linecap:butt;stroke-linejoin:miter;fill:#71c9f1"/><rect width="3.15" height="14.98" x="131.42" y="42.76" style="stroke-width:1.07;stroke:none;stroke-linecap:butt;stroke-linejoin:miter;fill:#71c9f1"/><rect width="96.72" height="14.98" x="131.42" y="275.83" style="stroke-width:1.07;stroke:none;stroke-linecap:butt;stroke-linejoin:miter;fill:#71c9f1"/></g><g clip-path="url(#cpMC4wMHw1MDQuMDB8MC4wMHwzNjAuMDA=)"><text x="112.88" y="312.15" text-anchor="end" style="font-size:8.8px;fill:#4d4d4d;font-family:&quot;Arimo&quot;">Examples</text><text x="112.88" y="278.86" text-anchor="end" style="font-size:8.8px;fill:#4d4d4d;font-family:&quot;Arimo&quot;">Workflows</text><text x="112.88" y="245.56" text-anchor="end" style="font-size:8.8px;fill:#4d4d4d;font-family:&quot;Arimo&quot;">Docstring/API</text><text x="112.88" y="212.26" text-anchor="end" style="font-size:8.8px;fill:#4d4d4d;font-family:&quot;Arimo&quot;">Data format peculiarities</text><text x="112.88" y="178.97" text-anchor="end" style="font-size:8.8px;fill:#4d4d4d;font-family:&quot;Arimo&quot;">Format options</text><text x="112.88" y="145.67" text-anchor="end" style="font-size:8.8px;fill:#4d4d4d;font-family:&quot;Arimo&quot;">Command line utilities</text><text x="112.88" y="112.38" text-anchor="end" style="font-size:8.8px;fill:#4d4d4d;font-family:&quot;Arimo&quot;">Other</text><text x="112.88" y="79.08" text-anchor="end" style="font-size:8.8px;fill:#4d4d4d;font-family:&quot;Arimo&quot;">Installation</text><text x="112.88" y="45.79" text-anchor="end" style="font-size:8.8px;fill:#4d4d4d;font-family:&quot;Arimo&quot;">Python</text><polyline points="115.07 309.12 117.81 309.12" style="stroke-width:1.07;stroke:#333;stroke-linecap:butt"/><polyline points="115.07 275.83 117.81 275.83" style="stroke-width:1.07;stroke:#333;stroke-linecap:butt"/><polyline points="115.07 242.53 117.81 242.53" style="stroke-width:1.07;stroke:#333;stroke-linecap:butt"/><polyline points="115.07 209.24 117.81 209.24" style="stroke-width:1.07;stroke:#333;stroke-linecap:butt"/><polyline points="115.07 175.94 117.81 175.94" style="stroke-width:1.07;stroke:#333;stroke-linecap:butt"/><polyline points="115.07 142.65 117.81 142.65" style="stroke-width:1.07;stroke:#333;stroke-linecap:butt"/><polyline points="115.07 109.35 117.81 109.35" style="stroke-width:1.07;stroke:#333;stroke-linecap:butt"/><polyline points="115.07 76.05 117.81 76.05" style="stroke-width:1.07;stroke:#333;stroke-linecap:butt"/><polyline points="115.07 42.76 117.81 42.76" style="stroke-width:1.07;stroke:#333;stroke-linecap:butt"/><polyline points="131.42 331.84 131.42 329.1" style="stroke-width:1.07;stroke:#333;stroke-linecap:butt"/><polyline points="188.09 331.84 188.09 329.1" style="stroke-width:1.07;stroke:#333;stroke-linecap:butt"/><polyline points="244.75 331.84 244.75 329.1" style="stroke-width:1.07;stroke:#333;stroke-linecap:butt"/><polyline points="301.41 331.84 301.41 329.1" style="stroke-width:1.07;stroke:#333;stroke-linecap:butt"/><polyline points="358.08 331.84 358.08 329.1" style="stroke-width:1.07;stroke:#333;stroke-linecap:butt"/><polyline points="414.74 331.84 414.74 329.1" style="stroke-width:1.07;stroke:#333;stroke-linecap:butt"/><text x="131.42" y="340.09" text-anchor="middle" style="font-size:8.8px;fill:#4d4d4d;font-family:&quot;Arimo&quot;">0%</text><text x="188.09" y="340.09" text-anchor="middle" style="font-size:8.8px;fill:#4d4d4d;font-family:&quot;Arimo&quot;">10%</text><text x="244.75" y="340.09" text-anchor="middle" style="font-size:8.8px;fill:#4d4d4d;font-family:&quot;Arimo&quot;">20%</text><text x="301.41" y="340.09" text-anchor="middle" style="font-size:8.8px;fill:#4d4d4d;font-family:&quot;Arimo&quot;">30%</text><text x="358.08" y="340.09" text-anchor="middle" style="font-size:8.8px;fill:#4d4d4d;font-family:&quot;Arimo&quot;">40%</text><text x="414.74" y="340.09" text-anchor="middle" style="font-size:8.8px;fill:#4d4d4d;font-family:&quot;Arimo&quot;">50%</text><text x="267.54" y="352.23" text-anchor="middle" style="font-size:11px;font-family:&quot;Arimo&quot;">Percent of Respondents</text><text text-anchor="middle" transform="translate(13.05,175.94) rotate(-90)" style="font-size:11px;font-family:&quot;Arimo&quot;">Topic</text><text x="433.7" y="159.71" style="font-size:11px;font-family:&quot;Arimo&quot;">Survey Year</text><rect width="15.86" height="15.86" x="434.41" y="167.04" style="stroke-width:1.07;stroke:none;stroke-linecap:butt;stroke-linejoin:miter;fill:#359946"/><rect width="15.86" height="15.86" x="434.41" y="184.32" style="stroke-width:1.07;stroke:none;stroke-linecap:butt;stroke-linejoin:miter;fill:#71c9f1"/><text x="456.46" y="178" style="font-size:8.8px;font-family:&quot;Arimo&quot;">2024</text><text x="456.46" y="195.28" style="font-size:8.8px;font-family:&quot;Arimo&quot;">2025</text><text x="117.81" y="14.56" style="font-size:13.2px;font-family:&quot;Arimo&quot;">Where does GDAL need more documentation?</text></g></g></svg>