<svg xmlns="http://www.w3.org/2000/svg" xmlns:xlink="http://www.w3.org/1999/xlink" width="672" height="480" viewBox="0 0 504 360"><g class="svglite"><defs><style type="text/css">.svglite polyline,.svglite rect{fill:none;stroke:#000;stroke-linecap:round;stroke-linejoin:round;stroke-miterlimit:10}.svglite text{white-space:pre}</style></defs><rect width="100%" height="100%" style="stroke:none;fill:none"/><defs><clipPath id="cpMC4wMHw1MDQuMDB8MC4wMHwzNjAuMDA="><rect width="504" height="360" x="0" y="0"/></clipPath></defs><g clip-path="url(#cpMC4wMHw1MDQuMDB8MC4wMHwzNjAuMDA=)"><rect width="504" height="360" x="0" y="0" style="stroke-width:1.07;stroke:#fff;fill:#fff"/></g><defs><clipPath id="cpMzIuODB8MTc0LjU4fDIyLjEzfDMyOS4xMA=="><rect width="141.78" height="306.97" x="32.8" y="22.13"/></clipPath></defs><g clip-path="url(#cpMzIuODB8MTc0LjU4fDIyLjEzfDMyOS4xMA==)"><rect width="141.78" height="306.97" x="32.8" y="22.13" style="stroke-width:1.07;stroke:none;fill:#fff"/><rect width="16.81" height="36.98" x="39.24" y="278.16" style="stroke-width:1.07;stroke:none;stroke-linecap:butt;stroke-linejoin:miter;fill:#71c9f1"/><rect width="16.81" height="30.26" x="57.92" y="284.89" style="stroke-width:1.07;stroke:none;stroke-linecap:butt;stroke-linejoin:miter;fill:#71c9f1"/><rect width="16.81" height="107.59" x="76.6" y="207.56" style="stroke-width:1.07;stroke:none;stroke-linecap:butt;stroke-linejoin:miter;fill:#71c9f1"/><rect width="16.81" height="100.87" x="95.28" y="214.28" style="stroke-width:1.07;stroke:none;stroke-linecap:butt;stroke-linejoin:miter;fill:#71c9f1"/><rect width="16.81" height="231.99" x="113.96" y="83.15" style="stroke-width:1.07;stroke:none;stroke-linecap:butt;stroke-linejoin:miter;fill:#71c9f1"/><rect width="16.81" height="198.37" x="132.64" y="116.78" style="stroke-width:1.07;stroke:none;stroke-linecap:butt;stroke-linejoin:miter;fill:#71c9f1"/><rect width="16.81" height="279.06" x="151.32" y="36.08" style="stroke-width:1.07;stroke:none;stroke-linecap:butt;stroke-linejoin:miter;fill:#71c9f1"/><rect width="141.78" height="306.97" x="32.8" y="22.13" style="stroke-width:1.07;stroke:#333"/></g><defs><clipPath id="cpMTk0Ljc3fDMzNi41NXwyMi4xM3wzMjkuMTA="><rect width="141.78" height="306.97" x="194.77" y="22.13"/></clipPath></defs><g clip-path="url(#cpMTk0Ljc3fDMzNi41NXwyMi4xM3wzMjkuMTA=)"><rect width="141.78" height="306.97" x="194.77" y="22.13" style="stroke-width:1.07;stroke:none;fill:#fff"/><rect width="16.81" height="26.58" x="201.21" y="288.57" style="stroke-width:1.07;stroke:none;stroke-linecap:butt;stroke-linejoin:miter;fill:#71c9f1"/><rect width="16.81" height="66.44" x="219.89" y="248.7" style="stroke-width:1.07;stroke:none;stroke-linecap:butt;stroke-linejoin:miter;fill:#71c9f1"/><rect width="16.81" height="106.31" x="238.57" y="208.84" style="stroke-width:1.07;stroke:none;stroke-linecap:butt;stroke-linejoin:miter;fill:#71c9f1"/><rect width="16.81" height="212.62" x="257.25" y="102.53" style="stroke-width:1.07;stroke:none;stroke-linecap:butt;stroke-linejoin:miter;fill:#71c9f1"/><rect width="16.81" height="279.06" x="275.93" y="36.08" style="stroke-width:1.07;stroke:none;stroke-linecap:butt;stroke-linejoin:miter;fill:#71c9f1"/><rect width="16.81" height="199.33" x="294.61" y="115.82" style="stroke-width:1.07;stroke:none;stroke-linecap:butt;stroke-linejoin:miter;fill:#71c9f1"/><rect width="16.81" height="225.91" x="313.29" y="89.24" style="stroke-width:1.07;stroke:none;stroke-linecap:butt;stroke-linejoin:miter;fill:#71c9f1"/><rect width="141.78" height="306.97" x="194.77" y="22.13" style="stroke-width:1.07;stroke:#333"/></g><defs><clipPath id="cpMzU2Ljc0fDQ5OC41MnwyMi4xM3wzMjkuMTA="><rect width="141.78" height="306.97" x="356.74" y="22.13"/></clipPath></defs><g clip-path="url(#cpMzU2Ljc0fDQ5OC41MnwyMi4xM3wzMjkuMTA=)"><rect width="141.78" height="306.97" x="356.74" y="22.13" style="stroke-width:1.07;stroke:none;fill:#fff"/><rect width="16.81" height="54.6" x="363.19" y="260.55" style="stroke-width:1.07;stroke:none;stroke-linecap:butt;stroke-linejoin:miter;fill:#71c9f1"/><rect width="16.81" height="97.07" x="381.86" y="218.08" style="stroke-width:1.07;stroke:none;stroke-linecap:butt;stroke-linejoin:miter;fill:#71c9f1"/><rect width="16.81" height="103.13" x="400.54" y="212.02" style="stroke-width:1.07;stroke:none;stroke-linecap:butt;stroke-linejoin:miter;fill:#71c9f1"/><rect width="16.81" height="230.53" x="419.22" y="84.62" style="stroke-width:1.07;stroke:none;stroke-linecap:butt;stroke-linejoin:miter;fill:#71c9f1"/><rect width="16.81" height="230.53" x="437.9" y="84.62" style="stroke-width:1.07;stroke:none;stroke-linecap:butt;stroke-linejoin:miter;fill:#71c9f1"/><rect width="16.81" height="279.06" x="456.58" y="36.08" style="stroke-width:1.07;stroke:none;stroke-linecap:butt;stroke-linejoin:miter;fill:#71c9f1"/><rect width="16.81" height="206.26" x="475.26" y="108.88" style="stroke-width:1.07;stroke:none;stroke-linecap:butt;stroke-linejoin:miter;fill:#71c9f1"/><rect width="141.78" height="306.97" x="356.74" y="22.13" style="stroke-width:1.07;stroke:#333"/></g><defs><clipPath id="cpMzIuODB8MTc0LjU4fDUuNDh8MjIuMTM="><rect width="141.78" height="16.65" x="32.8" y="5.48"/></clipPath></defs><g clip-path="url(#cpMzIuODB8MTc0LjU4fDUuNDh8MjIuMTM=)"><rect width="141.78" height="16.65" x="32.8" y="5.48" style="stroke-width:1.07;stroke:#333;fill:#d9d9d9"/><text x="103.69" y="16.83" text-anchor="middle" style="font-size:8.8px;fill:#1a1a1a;font-family:&quot;Arimo&quot;">Linux</text></g><defs><clipPath id="cpMTk0Ljc3fDMzNi41NXw1LjQ4fDIyLjEz"><rect width="141.78" height="16.65" x="194.77" y="5.48"/></clipPath></defs><g clip-path="url(#cpMTk0Ljc3fDMzNi41NXw1LjQ4fDIyLjEz)"><rect width="141.78" height="16.65" x="194.77" y="5.48" style="stroke-width:1.07;stroke:#333;fill:#d9d9d9"/><text x="265.66" y="16.83" text-anchor="middle" style="font-size:8.8px;fill:#1a1a1a;font-family:&quot;Arimo&quot;">OSX</text></g><defs><clipPath id="cpMzU2Ljc0fDQ5OC41Mnw1LjQ4fDIyLjEz"><rect width="141.78" height="16.65" x="356.74" y="5.48"/></clipPath></defs><g clip-path="url(#cpMzU2Ljc0fDQ5OC41Mnw1LjQ4fDIyLjEz)"><rect width="141.78" height="16.65" x="356.74" y="5.48" style="stroke-width:1.07;stroke:#333;fill:#d9d9d9"/><text x="427.63" y="16.83" text-anchor="middle" style="font-size:8.8px;fill:#1a1a1a;font-family:&quot;Arimo&quot;">Windows</text></g><g clip-path="url(#cpMC4wMHw1MDQuMDB8MC4wMHwzNjAuMDA=)"><polyline points="47.65 331.84 47.65 329.1" style="stroke-width:1.07;stroke:#333;stroke-linecap:butt"/><polyline points="66.33 331.84 66.33 329.1" style="stroke-width:1.07;stroke:#333;stroke-linecap:butt"/><polyline points="85.01 331.84 85.01 329.1" style="stroke-width:1.07;stroke:#333;stroke-linecap:butt"/><polyline points="103.69 331.84 103.69 329.1" style="stroke-width:1.07;stroke:#333;stroke-linecap:butt"/><polyline points="122.37 331.84 122.37 329.1" style="stroke-width:1.07;stroke:#333;stroke-linecap:butt"/><polyline points="141.05 331.84 141.05 329.1" style="stroke-width:1.07;stroke:#333;stroke-linecap:butt"/><polyline points="159.73 331.84 159.73 329.1" style="stroke-width:1.07;stroke:#333;stroke-linecap:butt"/><text x="47.65" y="340.09" text-anchor="middle" style="font-size:8.8px;fill:#4d4d4d;font-family:&quot;Arimo&quot;">1</text><text x="66.33" y="340.09" text-anchor="middle" style="font-size:8.8px;fill:#4d4d4d;font-family:&quot;Arimo&quot;">2</text><text x="85.01" y="340.09" text-anchor="middle" style="font-size:8.8px;fill:#4d4d4d;font-family:&quot;Arimo&quot;">3</text><text x="103.69" y="340.09" text-anchor="middle" style="font-size:8.8px;fill:#4d4d4d;font-family:&quot;Arimo&quot;">4</text><text x="122.37" y="340.09" text-anchor="middle" style="font-size:8.8px;fill:#4d4d4d;font-family:&quot;Arimo&quot;">5</text><text x="141.05" y="340.09" text-anchor="middle" style="font-size:8.8px;fill:#4d4d4d;font-family:&quot;Arimo&quot;">6</text><text x="159.73" y="340.09" text-anchor="middle" style="font-size:8.8px;fill:#4d4d4d;font-family:&quot;Arimo&quot;">7</text><polyline points="209.62 331.84 209.62 329.1" style="stroke-width:1.07;stroke:#333;stroke-linecap:butt"/><polyline points="228.3 331.84 228.3 329.1" style="stroke-width:1.07;stroke:#333;stroke-linecap:butt"/><polyline points="246.98 331.84 246.98 329.1" style="stroke-width:1.07;stroke:#333;stroke-linecap:butt"/><polyline points="265.66 331.84 265.66 329.1" style="stroke-width:1.07;stroke:#333;stroke-linecap:butt"/><polyline points="284.34 331.84 284.34 329.1" style="stroke-width:1.07;stroke:#333;stroke-linecap:butt"/><polyline points="303.02 331.84 303.02 329.1" style="stroke-width:1.07;stroke:#333;stroke-linecap:butt"/><polyline points="321.7 331.84 321.7 329.1" style="stroke-width:1.07;stroke:#333;stroke-linecap:butt"/><text x="209.62" y="340.09" text-anchor="middle" style="font-size:8.8px;fill:#4d4d4d;font-family:&quot;Arimo&quot;">1</text><text x="228.3" y="340.09" text-anchor="middle" style="font-size:8.8px;fill:#4d4d4d;font-family:&quot;Arimo&quot;">2</text><text x="246.98" y="340.09" text-anchor="middle" style="font-size:8.8px;fill:#4d4d4d;font-family:&quot;Arimo&quot;">3</text><text x="265.66" y="340.09" text-anchor="middle" style="font-size:8.8px;fill:#4d4d4d;font-family:&quot;Arimo&quot;">4</text><text x="284.34" y="340.09" text-anchor="middle" style="font-size:8.8px;fill:#4d4d4d;font-family:&quot;Arimo&quot;">5</text><text x="303.02" y="340.09" text-anchor="middle" style="font-size:8.8px;fill:#4d4d4d;font-family:&quot;Arimo&quot;">6</text><text x="321.7" y="340.09" text-anchor="middle" style="font-size:8.8px;fill:#4d4d4d;font-family:&quot;Arimo&quot;">7</text><polyline points="371.59 331.84 371.59 329.1" style="stroke-width:1.07;stroke:#333;stroke-linecap:butt"/><polyline points="390.27 331.84 390.27 329.1" style="stroke-width:1.07;stroke:#333;stroke-linecap:butt"/><polyline points="408.95 331.84 408.95 329.1" style="stroke-width:1.07;stroke:#333;stroke-linecap:butt"/><polyline points="427.63 331.84 427.63 329.1" style="stroke-width:1.07;stroke:#333;stroke-linecap:butt"/><polyline points="446.31 331.84 446.31 329.1" style="stroke-width:1.07;stroke:#333;stroke-linecap:butt"/><polyline points="464.99 331.84 464.99 329.1" style="stroke-width:1.07;stroke:#333;stroke-linecap:butt"/><polyline points="483.67 331.84 483.67 329.1" style="stroke-width:1.07;stroke:#333;stroke-linecap:butt"/><text x="371.59" y="340.09" text-anchor="middle" style="font-size:8.8px;fill:#4d4d4d;font-family:&quot;Arimo&quot;">1</text><text x="390.27" y="340.09" text-anchor="middle" style="font-size:8.8px;fill:#4d4d4d;font-family:&quot;Arimo&quot;">2</text><text x="408.95" y="340.09" text-anchor="middle" style="font-size:8.8px;fill:#4d4d4d;font-family:&quot;Arimo&quot;">3</text><text x="427.63" y="340.09" text-anchor="middle" style="font-size:8.8px;fill:#4d4d4d;font-family:&quot;Arimo&quot;">4</text><text x="446.31" y="340.09" text-anchor="middle" style="font-size:8.8px;fill:#4d4d4d;font-family:&quot;Arimo&quot;">5</text><text x="464.99" y="340.09" text-anchor="middle" style="font-size:8.8px;fill:#4d4d4d;font-family:&quot;Arimo&quot;">6</text><text x="483.67" y="340.09" text-anchor="middle" style="font-size:8.8px;fill:#4d4d4d;font-family:&quot;Arimo&quot;">7</text><text x="351.81" y="318.18" text-anchor="end" style="font-size:8.8px;fill:#4d4d4d;font-family:&quot;Arimo&quot;">0</text><text x="351.81" y="257.51" text-anchor="end" style="font-size:8.8px;fill:#4d4d4d;font-family:&quot;Arimo&quot;">10</text><text x="351.81" y="196.84" text-anchor="end" style="font-size:8.8px;fill:#4d4d4d;font-family:&quot;Arimo&quot;">20</text><text x="351.81" y="136.18" text-anchor="end" style="font-size:8.8px;fill:#4d4d4d;font-family:&quot;Arimo&quot;">30</text><text x="351.81" y="75.51" text-anchor="end" style="font-size:8.8px;fill:#4d4d4d;font-family:&quot;Arimo&quot;">40</text><polyline points="354 315.15 356.74 315.15" style="stroke-width:1.07;stroke:#333;stroke-linecap:butt"/><polyline points="354 254.48 356.74 254.48" style="stroke-width:1.07;stroke:#333;stroke-linecap:butt"/><polyline points="354 193.82 356.74 193.82" style="stroke-width:1.07;stroke:#333;stroke-linecap:butt"/><polyline points="354 133.15 356.74 133.15" style="stroke-width:1.07;stroke:#333;stroke-linecap:butt"/><polyline points="354 72.48 356.74 72.48" style="stroke-width:1.07;stroke:#333;stroke-linecap:butt"/><text x="189.84" y="318.18" text-anchor="end" style="font-size:8.8px;fill:#4d4d4d;font-family:&quot;Arimo&quot;">0</text><text x="189.84" y="251.73" text-anchor="end" style="font-size:8.8px;fill:#4d4d4d;font-family:&quot;Arimo&quot;">5</text><text x="189.84" y="185.29" text-anchor="end" style="font-size:8.8px;fill:#4d4d4d;font-family:&quot;Arimo&quot;">10</text><text x="189.84" y="118.84" text-anchor="end" style="font-size:8.8px;fill:#4d4d4d;font-family:&quot;Arimo&quot;">15</text><text x="189.84" y="52.4" text-anchor="end" style="font-size:8.8px;fill:#4d4d4d;font-family:&quot;Arimo&quot;">20</text><polyline points="192.03 315.15 194.77 315.15" style="stroke-width:1.07;stroke:#333;stroke-linecap:butt"/><polyline points="192.03 248.7 194.77 248.7" style="stroke-width:1.07;stroke:#333;stroke-linecap:butt"/><polyline points="192.03 182.26 194.77 182.26" style="stroke-width:1.07;stroke:#333;stroke-linecap:butt"/><polyline points="192.03 115.82 194.77 115.82" style="stroke-width:1.07;stroke:#333;stroke-linecap:butt"/><polyline points="192.03 49.37 194.77 49.37" style="stroke-width:1.07;stroke:#333;stroke-linecap:butt"/><text x="27.86" y="318.18" text-anchor="end" style="font-size:8.8px;fill:#4d4d4d;font-family:&quot;Arimo&quot;">0</text><text x="27.86" y="250.93" text-anchor="end" style="font-size:8.8px;fill:#4d4d4d;font-family:&quot;Arimo&quot;">20</text><text x="27.86" y="183.69" text-anchor="end" style="font-size:8.8px;fill:#4d4d4d;font-family:&quot;Arimo&quot;">40</text><text x="27.86" y="116.44" text-anchor="end" style="font-size:8.8px;fill:#4d4d4d;font-family:&quot;Arimo&quot;">60</text><text x="27.86" y="49.2" text-anchor="end" style="font-size:8.8px;fill:#4d4d4d;font-family:&quot;Arimo&quot;">80</text><polyline points="30.06 315.15 32.8 315.15" style="stroke-width:1.07;stroke:#333;stroke-linecap:butt"/><polyline points="30.06 247.9 32.8 247.9" style="stroke-width:1.07;stroke:#333;stroke-linecap:butt"/><polyline points="30.06 180.66 32.8 180.66" style="stroke-width:1.07;stroke:#333;stroke-linecap:butt"/><polyline points="30.06 113.41 32.8 113.41" style="stroke-width:1.07;stroke:#333;stroke-linecap:butt"/><polyline points="30.06 46.17 32.8 46.17" style="stroke-width:1.07;stroke:#333;stroke-linecap:butt"/><text x="265.66" y="352.23" text-anchor="middle" style="font-size:11px;font-family:&quot;Arimo&quot;">Ease of installing GDAL (1-7)</text><text text-anchor="middle" transform="translate(13.05,175.62) rotate(-90)" style="font-size:11px;font-family:&quot;Arimo&quot;">Respondents</text></g></g></svg>