<svg xmlns="http://www.w3.org/2000/svg" xmlns:xlink="http://www.w3.org/1999/xlink" width="672" height="480" viewBox="0 0 504 360"><g class="svglite"><defs><style type="text/css">.svglite polyline,.svglite rect{fill:none;stroke:#000;stroke-linecap:round;stroke-linejoin:round;stroke-miterlimit:10}.svglite text{white-space:pre}</style></defs><rect width="100%" height="100%" style="stroke:none;fill:none"/><defs><clipPath id="cpMC4wMHw1MDQuMDB8MC4wMHwzNjAuMDA="><rect width="504" height="360" x="0" y="0"/></clipPath></defs><defs><clipPath id="cpNjAuNjd8NDE3LjI2fDIyLjc4fDMyOS4xMA=="><rect width="356.59" height="306.32" x="60.67" y="22.78"/></clipPath></defs><g clip-path="url(#cpNjAuNjd8NDE3LjI2fDIyLjc4fDMyOS4xMA==)"><polyline points="127.01 329.1 127.01 22.78" style="stroke-width:.53;stroke:#fff;stroke-linecap:butt"/><polyline points="227.27 329.1 227.27 22.78" style="stroke-width:.53;stroke:#fff;stroke-linecap:butt"/><polyline points="327.53 329.1 327.53 22.78" style="stroke-width:.53;stroke:#fff;stroke-linecap:butt"/><polyline points="60.67 311.08 417.26 311.08" style="stroke-width:1.07;stroke:#fff;stroke-linecap:butt"/><polyline points="60.67 281.05 417.26 281.05" style="stroke-width:1.07;stroke:#fff;stroke-linecap:butt"/><polyline points="60.67 251.02 417.26 251.02" style="stroke-width:1.07;stroke:#fff;stroke-linecap:butt"/><polyline points="60.67 220.99 417.26 220.99" style="stroke-width:1.07;stroke:#fff;stroke-linecap:butt"/><polyline points="60.67 190.96 417.26 190.96" style="stroke-width:1.07;stroke:#fff;stroke-linecap:butt"/><polyline points="60.67 160.93 417.26 160.93" style="stroke-width:1.07;stroke:#fff;stroke-linecap:butt"/><polyline points="60.67 130.89 417.26 130.89" style="stroke-width:1.07;stroke:#fff;stroke-linecap:butt"/><polyline points="60.67 100.86 417.26 100.86" style="stroke-width:1.07;stroke:#fff;stroke-linecap:butt"/><polyline points="60.67 70.83 417.26 70.83" style="stroke-width:1.07;stroke:#fff;stroke-linecap:butt"/><polyline points="60.67 40.8 417.26 40.8" style="stroke-width:1.07;stroke:#fff;stroke-linecap:butt"/><polyline points="76.88 329.1 76.88 22.78" style="stroke-width:1.07;stroke:#fff;stroke-linecap:butt"/><polyline points="177.14 329.1 177.14 22.78" style="stroke-width:1.07;stroke:#fff;stroke-linecap:butt"/><polyline points="277.4 329.1 277.4 22.78" style="stroke-width:1.07;stroke:#fff;stroke-linecap:butt"/><polyline points="377.66 329.1 377.66 22.78" style="stroke-width:1.07;stroke:#fff;stroke-linecap:butt"/><rect width="273.43" height="13.51" x="76.88" y="297.57" style="stroke-width:1.07;stroke:none;stroke-linecap:butt;stroke-linejoin:miter;fill:#359946"/><rect width="244.95" height="13.51" x="76.88" y="267.54" style="stroke-width:1.07;stroke:none;stroke-linecap:butt;stroke-linejoin:miter;fill:#359946"/><rect width="34.18" height="13.51" x="76.88" y="57.32" style="stroke-width:1.07;stroke:none;stroke-linecap:butt;stroke-linejoin:miter;fill:#359946"/><rect width="148.11" height="13.51" x="76.88" y="207.47" style="stroke-width:1.07;stroke:none;stroke-linecap:butt;stroke-linejoin:miter;fill:#359946"/><rect width="93.99" height="13.51" x="76.88" y="147.41" style="stroke-width:1.07;stroke:none;stroke-linecap:butt;stroke-linejoin:miter;fill:#359946"/><rect width="219.32" height="13.51" x="76.88" y="237.51" style="stroke-width:1.07;stroke:none;stroke-linecap:butt;stroke-linejoin:miter;fill:#359946"/><rect width="31.33" height="13.51" x="76.88" y="87.35" style="stroke-width:1.07;stroke:none;stroke-linecap:butt;stroke-linejoin:miter;fill:#359946"/><rect width="14.24" height="13.51" x="76.88" y="27.29" style="stroke-width:1.07;stroke:none;stroke-linecap:butt;stroke-linejoin:miter;fill:#359946"/><rect width="48.42" height="13.51" x="76.88" y="117.38" style="stroke-width:1.07;stroke:none;stroke-linecap:butt;stroke-linejoin:miter;fill:#359946"/><rect width="85.45" height="13.51" x="76.88" y="177.44" style="stroke-width:1.07;stroke:none;stroke-linecap:butt;stroke-linejoin:miter;fill:#359946"/><rect width="324.17" height="13.51" x="76.88" y="311.08" style="stroke-width:1.07;stroke:none;stroke-linecap:butt;stroke-linejoin:miter;fill:#71c9f1"/><rect width="274.04" height="13.51" x="76.88" y="281.05" style="stroke-width:1.07;stroke:none;stroke-linecap:butt;stroke-linejoin:miter;fill:#71c9f1"/><rect width="40.1" height="13.51" x="76.88" y="70.83" style="stroke-width:1.07;stroke:none;stroke-linecap:butt;stroke-linejoin:miter;fill:#71c9f1"/><rect width="113.63" height="13.51" x="76.88" y="220.99" style="stroke-width:1.07;stroke:none;stroke-linecap:butt;stroke-linejoin:miter;fill:#71c9f1"/><rect width="46.79" height="13.51" x="76.88" y="160.93" style="stroke-width:1.07;stroke:none;stroke-linecap:butt;stroke-linejoin:miter;fill:#71c9f1"/><rect width="150.39" height="13.51" x="76.88" y="251.02" style="stroke-width:1.07;stroke:none;stroke-linecap:butt;stroke-linejoin:miter;fill:#71c9f1"/><rect width="43.45" height="13.51" x="76.88" y="100.86" style="stroke-width:1.07;stroke:none;stroke-linecap:butt;stroke-linejoin:miter;fill:#71c9f1"/><rect width="23.39" height="13.51" x="76.88" y="40.8" style="stroke-width:1.07;stroke:none;stroke-linecap:butt;stroke-linejoin:miter;fill:#71c9f1"/><rect width="40.1" height="13.51" x="76.88" y="130.89" style="stroke-width:1.07;stroke:none;stroke-linecap:butt;stroke-linejoin:miter;fill:#71c9f1"/><rect width="100.26" height="13.51" x="76.88" y="190.96" style="stroke-width:1.07;stroke:none;stroke-linecap:butt;stroke-linejoin:miter;fill:#71c9f1"/></g><g clip-path="url(#cpMC4wMHw1MDQuMDB8MC4wMHwzNjAuMDA=)"><text x="55.74" y="314.11" text-anchor="end" style="font-size:8.8px;fill:#4d4d4d;font-family:&quot;Arimo&quot;">examples</text><text x="55.74" y="284.08" text-anchor="end" style="font-size:8.8px;fill:#4d4d4d;font-family:&quot;Arimo&quot;">doc</text><text x="55.74" y="254.05" text-anchor="end" style="font-size:8.8px;fill:#4d4d4d;font-family:&quot;Arimo&quot;">python</text><text x="55.74" y="224.02" text-anchor="end" style="font-size:8.8px;fill:#4d4d4d;font-family:&quot;Arimo&quot;">install</text><text x="55.74" y="193.98" text-anchor="end" style="font-size:8.8px;fill:#4d4d4d;font-family:&quot;Arimo&quot;">cli</text><text x="55.74" y="163.95" text-anchor="end" style="font-size:8.8px;fill:#4d4d4d;font-family:&quot;Arimo&quot;">options</text><text x="55.74" y="133.92" text-anchor="end" style="font-size:8.8px;fill:#4d4d4d;font-family:&quot;Arimo&quot;">windows</text><text x="55.74" y="103.89" text-anchor="end" style="font-size:8.8px;fill:#4d4d4d;font-family:&quot;Arimo&quot;">tutorial</text><text x="55.74" y="73.86" text-anchor="end" style="font-size:8.8px;fill:#4d4d4d;font-family:&quot;Arimo&quot;">gui</text><text x="55.74" y="43.83" text-anchor="end" style="font-size:8.8px;fill:#4d4d4d;font-family:&quot;Arimo&quot;">mac</text><polyline points="57.93 311.08 60.67 311.08" style="stroke-width:1.07;stroke:#333;stroke-linecap:butt"/><polyline points="57.93 281.05 60.67 281.05" style="stroke-width:1.07;stroke:#333;stroke-linecap:butt"/><polyline points="57.93 251.02 60.67 251.02" style="stroke-width:1.07;stroke:#333;stroke-linecap:butt"/><polyline points="57.93 220.99 60.67 220.99" style="stroke-width:1.07;stroke:#333;stroke-linecap:butt"/><polyline points="57.93 190.96 60.67 190.96" style="stroke-width:1.07;stroke:#333;stroke-linecap:butt"/><polyline points="57.93 160.93 60.67 160.93" style="stroke-width:1.07;stroke:#333;stroke-linecap:butt"/><polyline points="57.93 130.89 60.67 130.89" style="stroke-width:1.07;stroke:#333;stroke-linecap:butt"/><polyline points="57.93 100.86 60.67 100.86" style="stroke-width:1.07;stroke:#333;stroke-linecap:butt"/><polyline points="57.93 70.83 60.67 70.83" style="stroke-width:1.07;stroke:#333;stroke-linecap:butt"/><polyline points="57.93 40.8 60.67 40.8" style="stroke-width:1.07;stroke:#333;stroke-linecap:butt"/><polyline points="76.88 331.84 76.88 329.1" style="stroke-width:1.07;stroke:#333;stroke-linecap:butt"/><polyline points="177.14 331.84 177.14 329.1" style="stroke-width:1.07;stroke:#333;stroke-linecap:butt"/><polyline points="277.4 331.84 277.4 329.1" style="stroke-width:1.07;stroke:#333;stroke-linecap:butt"/><polyline points="377.66 331.84 377.66 329.1" style="stroke-width:1.07;stroke:#333;stroke-linecap:butt"/><text x="76.88" y="340.09" text-anchor="middle" style="font-size:8.8px;fill:#4d4d4d;font-family:&quot;Arimo&quot;">0%</text><text x="177.14" y="340.09" text-anchor="middle" style="font-size:8.8px;fill:#4d4d4d;font-family:&quot;Arimo&quot;">10%</text><text x="277.4" y="340.09" text-anchor="middle" style="font-size:8.8px;fill:#4d4d4d;font-family:&quot;Arimo&quot;">20%</text><text x="377.66" y="340.09" text-anchor="middle" style="font-size:8.8px;fill:#4d4d4d;font-family:&quot;Arimo&quot;">30%</text><text x="238.96" y="352.23" text-anchor="middle" style="font-size:11px;font-family:&quot;Arimo&quot;">Percent of Respondents</text><text text-anchor="middle" transform="translate(13.05,175.94) rotate(-90)" style="font-size:11px;font-family:&quot;Arimo&quot;">Keyword</text><text x="433.7" y="159.71" style="font-size:11px;font-family:&quot;Arimo&quot;">Survey Year</text><rect width="15.86" height="15.86" x="434.41" y="167.04" style="stroke-width:1.07;stroke:none;stroke-linecap:butt;stroke-linejoin:miter;fill:#359946"/><rect width="15.86" height="15.86" x="434.41" y="184.32" style="stroke-width:1.07;stroke:none;stroke-linecap:butt;stroke-linejoin:miter;fill:#71c9f1"/><text x="456.46" y="178" style="font-size:8.8px;font-family:&quot;Arimo&quot;">2024</text><text x="456.46" y="195.28" style="font-size:8.8px;font-family:&quot;Arimo&quot;">2025</text><text x="60.67" y="14.56" style="font-size:13.2px;font-family:&quot;Arimo&quot;">What could make GDAL easier to use?</text></g></g></svg>