<svg xmlns="http://www.w3.org/2000/svg" xmlns:xlink="http://www.w3.org/1999/xlink" width="672" height="480" viewBox="0 0 504 360"><g class="svglite"><defs><style type="text/css">.svglite polyline,.svglite rect{fill:none;stroke:#000;stroke-linecap:round;stroke-linejoin:round;stroke-miterlimit:10}.svglite text{white-space:pre}</style></defs><rect width="100%" height="100%" style="stroke:none;fill:none"/><defs><clipPath id="cpMC4wMHw1MDQuMDB8MC4wMHwzNjAuMDA="><rect width="504" height="360" x="0" y="0"/></clipPath></defs><defs><clipPath id="cpMTU3Ljk0fDQxNy4yNnwyMi43OHwzMjkuMTA="><rect width="259.32" height="306.32" x="157.94" y="22.78"/></clipPath></defs><g clip-path="url(#cpMTU3Ljk0fDQxNy4yNnwyMi43OHwzMjkuMTA=)"><polyline points="195.76 329.1 195.76 22.78" style="stroke-width:.53;stroke:#fff;stroke-linecap:butt"/><polyline points="247.83 329.1 247.83 22.78" style="stroke-width:.53;stroke:#fff;stroke-linecap:butt"/><polyline points="299.9 329.1 299.9 22.78" style="stroke-width:.53;stroke:#fff;stroke-linecap:butt"/><polyline points="351.96 329.1 351.96 22.78" style="stroke-width:.53;stroke:#fff;stroke-linecap:butt"/><polyline points="404.03 329.1 404.03 22.78" style="stroke-width:.53;stroke:#fff;stroke-linecap:butt"/><polyline points="157.94 312.69 417.26 312.69" style="stroke-width:1.07;stroke:#fff;stroke-linecap:butt"/><polyline points="157.94 285.34 417.26 285.34" style="stroke-width:1.07;stroke:#fff;stroke-linecap:butt"/><polyline points="157.94 257.99 417.26 257.99" style="stroke-width:1.07;stroke:#fff;stroke-linecap:butt"/><polyline points="157.94 230.64 417.26 230.64" style="stroke-width:1.07;stroke:#fff;stroke-linecap:butt"/><polyline points="157.94 203.29 417.26 203.29" style="stroke-width:1.07;stroke:#fff;stroke-linecap:butt"/><polyline points="157.94 175.94 417.26 175.94" style="stroke-width:1.07;stroke:#fff;stroke-linecap:butt"/><polyline points="157.94 148.59 417.26 148.59" style="stroke-width:1.07;stroke:#fff;stroke-linecap:butt"/><polyline points="157.94 121.24 417.26 121.24" style="stroke-width:1.07;stroke:#fff;stroke-linecap:butt"/><polyline points="157.94 93.89 417.26 93.89" style="stroke-width:1.07;stroke:#fff;stroke-linecap:butt"/><polyline points="157.94 66.54 417.26 66.54" style="stroke-width:1.07;stroke:#fff;stroke-linecap:butt"/><polyline points="157.94 39.19 417.26 39.19" style="stroke-width:1.07;stroke:#fff;stroke-linecap:butt"/><polyline points="169.72 329.1 169.72 22.78" style="stroke-width:1.07;stroke:#fff;stroke-linecap:butt"/><polyline points="221.79 329.1 221.79 22.78" style="stroke-width:1.07;stroke:#fff;stroke-linecap:butt"/><polyline points="273.86 329.1 273.86 22.78" style="stroke-width:1.07;stroke:#fff;stroke-linecap:butt"/><polyline points="325.93 329.1 325.93 22.78" style="stroke-width:1.07;stroke:#fff;stroke-linecap:butt"/><polyline points="378 329.1 378 22.78" style="stroke-width:1.07;stroke:#fff;stroke-linecap:butt"/><rect width="5.57" height="12.31" x="169.72" y="26.88" style="stroke-width:1.07;stroke:none;stroke-linecap:butt;stroke-linejoin:miter;fill:#359946"/><rect width="174.49" height="12.31" x="169.72" y="218.33" style="stroke-width:1.07;stroke:none;stroke-linecap:butt;stroke-linejoin:miter;fill:#359946"/><rect width="83.53" height="12.31" x="169.72" y="163.63" style="stroke-width:1.07;stroke:none;stroke-linecap:butt;stroke-linejoin:miter;fill:#359946"/><rect width="235.75" height="12.31" x="169.72" y="300.38" style="stroke-width:1.07;stroke:none;stroke-linecap:butt;stroke-linejoin:miter;fill:#359946"/><rect width="59.4" height="12.31" x="169.72" y="136.28" style="stroke-width:1.07;stroke:none;stroke-linecap:butt;stroke-linejoin:miter;fill:#359946"/><rect width="16.71" height="12.31" x="169.72" y="81.58" style="stroke-width:1.07;stroke:none;stroke-linecap:butt;stroke-linejoin:miter;fill:#359946"/><rect width="191.2" height="12.31" x="169.72" y="273.03" style="stroke-width:1.07;stroke:none;stroke-linecap:butt;stroke-linejoin:miter;fill:#359946"/><rect width="9.28" height="12.31" x="169.72" y="190.98" style="stroke-width:1.07;stroke:none;stroke-linecap:butt;stroke-linejoin:miter;fill:#359946"/><rect width="40.84" height="12.31" x="169.72" y="108.93" style="stroke-width:1.07;stroke:none;stroke-linecap:butt;stroke-linejoin:miter;fill:#359946"/><rect width="12.99" height="12.31" x="169.72" y="54.23" style="stroke-width:1.07;stroke:none;stroke-linecap:butt;stroke-linejoin:miter;fill:#359946"/><rect width="211.62" height="12.31" x="169.72" y="245.68" style="stroke-width:1.07;stroke:none;stroke-linecap:butt;stroke-linejoin:miter;fill:#359946"/><rect width="1.9" height="12.31" x="169.72" y="39.19" style="stroke-width:1.07;stroke:none;stroke-linecap:butt;stroke-linejoin:miter;fill:#71c9f1"/><rect width="123.52" height="12.31" x="169.72" y="230.64" style="stroke-width:1.07;stroke:none;stroke-linecap:butt;stroke-linejoin:miter;fill:#71c9f1"/><rect width="55.11" height="12.31" x="169.72" y="175.94" style="stroke-width:1.07;stroke:none;stroke-linecap:butt;stroke-linejoin:miter;fill:#71c9f1"/><rect width="222.34" height="12.31" x="169.72" y="312.69" style="stroke-width:1.07;stroke:none;stroke-linecap:butt;stroke-linejoin:miter;fill:#71c9f1"/><rect width="58.91" height="12.31" x="169.72" y="148.59" style="stroke-width:1.07;stroke:none;stroke-linecap:butt;stroke-linejoin:miter;fill:#71c9f1"/><rect width="3.8" height="12.31" x="169.72" y="93.89" style="stroke-width:1.07;stroke:none;stroke-linecap:butt;stroke-linejoin:miter;fill:#71c9f1"/><rect width="209.03" height="12.31" x="169.72" y="285.34" style="stroke-width:1.07;stroke:none;stroke-linecap:butt;stroke-linejoin:miter;fill:#71c9f1"/><rect width="172.93" height="12.31" x="169.72" y="203.29" style="stroke-width:1.07;stroke:none;stroke-linecap:butt;stroke-linejoin:miter;fill:#71c9f1"/><rect width="34.21" height="12.31" x="169.72" y="121.24" style="stroke-width:1.07;stroke:none;stroke-linecap:butt;stroke-linejoin:miter;fill:#71c9f1"/><rect width="5.7" height="12.31" x="169.72" y="66.54" style="stroke-width:1.07;stroke:none;stroke-linecap:butt;stroke-linejoin:miter;fill:#71c9f1"/><rect width="153.93" height="12.31" x="169.72" y="257.99" style="stroke-width:1.07;stroke:none;stroke-linecap:butt;stroke-linejoin:miter;fill:#71c9f1"/></g><g clip-path="url(#cpMC4wMHw1MDQuMDB8MC4wMHwzNjAuMDA=)"><text x="153.01" y="315.72" text-anchor="end" style="font-size:8.8px;fill:#4d4d4d;font-family:&quot;Arimo&quot;">Finding examples</text><text x="153.01" y="288.37" text-anchor="end" style="font-size:8.8px;fill:#4d4d4d;font-family:&quot;Arimo&quot;">Installation</text><text x="153.01" y="261.02" text-anchor="end" style="font-size:8.8px;fill:#4d4d4d;font-family:&quot;Arimo&quot;">Understanding features</text><text x="153.01" y="233.67" text-anchor="end" style="font-size:8.8px;fill:#4d4d4d;font-family:&quot;Arimo&quot;">Constructing workflows</text><text x="153.01" y="206.32" text-anchor="end" style="font-size:8.8px;fill:#4d4d4d;font-family:&quot;Arimo&quot;">Optimizing performance</text><text x="153.01" y="178.97" text-anchor="end" style="font-size:8.8px;fill:#4d4d4d;font-family:&quot;Arimo&quot;">Coordinate systems</text><text x="153.01" y="151.62" text-anchor="end" style="font-size:8.8px;fill:#4d4d4d;font-family:&quot;Arimo&quot;">Formats</text><text x="153.01" y="124.27" text-anchor="end" style="font-size:8.8px;fill:#4d4d4d;font-family:&quot;Arimo&quot;">Other</text><text x="153.01" y="96.92" text-anchor="end" style="font-size:8.8px;fill:#4d4d4d;font-family:&quot;Arimo&quot;">Inconsistent command line options</text><text x="153.01" y="69.57" text-anchor="end" style="font-size:8.8px;fill:#4d4d4d;font-family:&quot;Arimo&quot;">Python binding issues</text><text x="153.01" y="42.22" text-anchor="end" style="font-size:8.8px;fill:#4d4d4d;font-family:&quot;Arimo&quot;">Bugs</text><polyline points="155.2 312.69 157.94 312.69" style="stroke-width:1.07;stroke:#333;stroke-linecap:butt"/><polyline points="155.2 285.34 157.94 285.34" style="stroke-width:1.07;stroke:#333;stroke-linecap:butt"/><polyline points="155.2 257.99 157.94 257.99" style="stroke-width:1.07;stroke:#333;stroke-linecap:butt"/><polyline points="155.2 230.64 157.94 230.64" style="stroke-width:1.07;stroke:#333;stroke-linecap:butt"/><polyline points="155.2 203.29 157.94 203.29" style="stroke-width:1.07;stroke:#333;stroke-linecap:butt"/><polyline points="155.2 175.94 157.94 175.94" style="stroke-width:1.07;stroke:#333;stroke-linecap:butt"/><polyline points="155.2 148.59 157.94 148.59" style="stroke-width:1.07;stroke:#333;stroke-linecap:butt"/><polyline points="155.2 121.24 157.94 121.24" style="stroke-width:1.07;stroke:#333;stroke-linecap:butt"/><polyline points="155.2 93.89 157.94 93.89" style="stroke-width:1.07;stroke:#333;stroke-linecap:butt"/><polyline points="155.2 66.54 157.94 66.54" style="stroke-width:1.07;stroke:#333;stroke-linecap:butt"/><polyline points="155.2 39.19 157.94 39.19" style="stroke-width:1.07;stroke:#333;stroke-linecap:butt"/><polyline points="169.72 331.84 169.72 329.1" style="stroke-width:1.07;stroke:#333;stroke-linecap:butt"/><polyline points="221.79 331.84 221.79 329.1" style="stroke-width:1.07;stroke:#333;stroke-linecap:butt"/><polyline points="273.86 331.84 273.86 329.1" style="stroke-width:1.07;stroke:#333;stroke-linecap:butt"/><polyline points="325.93 331.84 325.93 329.1" style="stroke-width:1.07;stroke:#333;stroke-linecap:butt"/><polyline points="378 331.84 378 329.1" style="stroke-width:1.07;stroke:#333;stroke-linecap:butt"/><text x="169.72" y="340.09" text-anchor="middle" style="font-size:8.8px;fill:#4d4d4d;font-family:&quot;Arimo&quot;">0%</text><text x="221.79" y="340.09" text-anchor="middle" style="font-size:8.8px;fill:#4d4d4d;font-family:&quot;Arimo&quot;">5%</text><text x="273.86" y="340.09" text-anchor="middle" style="font-size:8.8px;fill:#4d4d4d;font-family:&quot;Arimo&quot;">10%</text><text x="325.93" y="340.09" text-anchor="middle" style="font-size:8.8px;fill:#4d4d4d;font-family:&quot;Arimo&quot;">15%</text><text x="378" y="340.09" text-anchor="middle" style="font-size:8.8px;fill:#4d4d4d;font-family:&quot;Arimo&quot;">20%</text><text x="287.6" y="352.23" text-anchor="middle" style="font-size:11px;font-family:&quot;Arimo&quot;">Percent of Respondents</text><text text-anchor="middle" transform="translate(13.05,175.94) rotate(-90)" style="font-size:11px;font-family:&quot;Arimo&quot;">Challenge</text><text x="433.7" y="159.71" style="font-size:11px;font-family:&quot;Arimo&quot;">Survey Year</text><rect width="15.86" height="15.86" x="434.41" y="167.04" style="stroke-width:1.07;stroke:none;stroke-linecap:butt;stroke-linejoin:miter;fill:#359946"/><rect width="15.86" height="15.86" x="434.41" y="184.32" style="stroke-width:1.07;stroke:none;stroke-linecap:butt;stroke-linejoin:miter;fill:#71c9f1"/><text x="456.46" y="178" style="font-size:8.8px;font-family:&quot;Arimo&quot;">2024</text><text x="456.46" y="195.28" style="font-size:8.8px;font-family:&quot;Arimo&quot;">2025</text><text x="157.94" y="14.56" style="font-size:13.2px;font-family:&quot;Arimo&quot;">Most difficult GDAL usage challenge</text></g></g></svg>