<svg xmlns="http://www.w3.org/2000/svg" xmlns:xlink="http://www.w3.org/1999/xlink" width="672" height="480" viewBox="0 0 504 360"><g class="svglite"><defs><style type="text/css">.svglite polyline,.svglite rect{fill:none;stroke:#000;stroke-linecap:round;stroke-linejoin:round;stroke-miterlimit:10}.svglite text{white-space:pre}</style></defs><rect width="100%" height="100%" style="stroke:none;fill:none"/><defs><clipPath id="cpMC4wMHw1MDQuMDB8MC4wMHwzNjAuMDA="><rect width="504" height="360" x="0" y="0"/></clipPath></defs><defs><clipPath id="cpMTMyLjAwfDQ5OC41MnwyMi43OHwzMjkuMTA="><rect width="366.52" height="306.32" x="132" y="22.78"/></clipPath></defs><g clip-path="url(#cpMTMyLjAwfDQ5OC41MnwyMi43OHwzMjkuMTA=)"><polyline points="184.67 329.1 184.67 22.78" style="stroke-width:.53;stroke:#fff;stroke-linecap:butt"/><polyline points="256.69 329.1 256.69 22.78" style="stroke-width:.53;stroke:#fff;stroke-linecap:butt"/><polyline points="328.71 329.1 328.71 22.78" style="stroke-width:.53;stroke:#fff;stroke-linecap:butt"/><polyline points="400.72 329.1 400.72 22.78" style="stroke-width:.53;stroke:#fff;stroke-linecap:butt"/><polyline points="472.74 329.1 472.74 22.78" style="stroke-width:.53;stroke:#fff;stroke-linecap:butt"/><polyline points="132 293.76 498.52 293.76" style="stroke-width:1.07;stroke:#fff;stroke-linecap:butt"/><polyline points="132 234.85 498.52 234.85" style="stroke-width:1.07;stroke:#fff;stroke-linecap:butt"/><polyline points="132 175.94 498.52 175.94" style="stroke-width:1.07;stroke:#fff;stroke-linecap:butt"/><polyline points="132 117.03 498.52 117.03" style="stroke-width:1.07;stroke:#fff;stroke-linecap:butt"/><polyline points="132 58.13 498.52 58.13" style="stroke-width:1.07;stroke:#fff;stroke-linecap:butt"/><polyline points="148.66 329.1 148.66 22.78" style="stroke-width:1.07;stroke:#fff;stroke-linecap:butt"/><polyline points="220.68 329.1 220.68 22.78" style="stroke-width:1.07;stroke:#fff;stroke-linecap:butt"/><polyline points="292.7 329.1 292.7 22.78" style="stroke-width:1.07;stroke:#fff;stroke-linecap:butt"/><polyline points="364.72 329.1 364.72 22.78" style="stroke-width:1.07;stroke:#fff;stroke-linecap:butt"/><polyline points="436.73 329.1 436.73 22.78" style="stroke-width:1.07;stroke:#fff;stroke-linecap:butt"/><rect width="333.2" height="53.02" x="148.66" y="267.25" style="stroke-width:1.07;stroke:none;stroke-linecap:butt;stroke-linejoin:miter;fill:#71c9f1"/><rect width="3.94" height="53.02" x="148.66" y="31.62" style="stroke-width:1.07;stroke:none;stroke-linecap:butt;stroke-linejoin:miter;fill:#71c9f1"/><rect width="162.67" height="53.02" x="148.66" y="149.43" style="stroke-width:1.07;stroke:none;stroke-linecap:butt;stroke-linejoin:miter;fill:#71c9f1"/><rect width="5.25" height="53.02" x="148.66" y="90.53" style="stroke-width:1.07;stroke:none;stroke-linecap:butt;stroke-linejoin:miter;fill:#71c9f1"/><rect width="215.14" height="53.02" x="148.66" y="208.34" style="stroke-width:1.07;stroke:none;stroke-linecap:butt;stroke-linejoin:miter;fill:#71c9f1"/></g><g clip-path="url(#cpMC4wMHw1MDQuMDB8MC4wMHwzNjAuMDA=)"><text x="127.07" y="296.78" text-anchor="end" style="font-size:8.8px;fill:#4d4d4d;font-family:&quot;Arimo&quot;">Agree</text><text x="127.07" y="237.88" text-anchor="end" style="font-size:8.8px;fill:#4d4d4d;font-family:&quot;Arimo&quot;">Unsure / Not able to answer</text><text x="127.07" y="178.97" text-anchor="end" style="font-size:8.8px;fill:#4d4d4d;font-family:&quot;Arimo&quot;">Strongly agree</text><text x="127.07" y="120.06" text-anchor="end" style="font-size:8.8px;fill:#4d4d4d;font-family:&quot;Arimo&quot;">Strongly disagree</text><text x="127.07" y="61.15" text-anchor="end" style="font-size:8.8px;fill:#4d4d4d;font-family:&quot;Arimo&quot;">Disagree</text><polyline points="129.26 293.76 132 293.76" style="stroke-width:1.07;stroke:#333;stroke-linecap:butt"/><polyline points="129.26 234.85 132 234.85" style="stroke-width:1.07;stroke:#333;stroke-linecap:butt"/><polyline points="129.26 175.94 132 175.94" style="stroke-width:1.07;stroke:#333;stroke-linecap:butt"/><polyline points="129.26 117.03 132 117.03" style="stroke-width:1.07;stroke:#333;stroke-linecap:butt"/><polyline points="129.26 58.13 132 58.13" style="stroke-width:1.07;stroke:#333;stroke-linecap:butt"/><polyline points="148.66 331.84 148.66 329.1" style="stroke-width:1.07;stroke:#333;stroke-linecap:butt"/><polyline points="220.68 331.84 220.68 329.1" style="stroke-width:1.07;stroke:#333;stroke-linecap:butt"/><polyline points="292.7 331.84 292.7 329.1" style="stroke-width:1.07;stroke:#333;stroke-linecap:butt"/><polyline points="364.72 331.84 364.72 329.1" style="stroke-width:1.07;stroke:#333;stroke-linecap:butt"/><polyline points="436.73 331.84 436.73 329.1" style="stroke-width:1.07;stroke:#333;stroke-linecap:butt"/><text x="148.66" y="340.09" text-anchor="middle" style="font-size:8.8px;fill:#4d4d4d;font-family:&quot;Arimo&quot;">0%</text><text x="220.68" y="340.09" text-anchor="middle" style="font-size:8.8px;fill:#4d4d4d;font-family:&quot;Arimo&quot;">10%</text><text x="292.7" y="340.09" text-anchor="middle" style="font-size:8.8px;fill:#4d4d4d;font-family:&quot;Arimo&quot;">20%</text><text x="364.72" y="340.09" text-anchor="middle" style="font-size:8.8px;fill:#4d4d4d;font-family:&quot;Arimo&quot;">30%</text><text x="436.73" y="340.09" text-anchor="middle" style="font-size:8.8px;fill:#4d4d4d;font-family:&quot;Arimo&quot;">40%</text><text x="315.26" y="352.23" text-anchor="middle" style="font-size:11px;font-family:&quot;Arimo&quot;">Percent of Respondents</text><text text-anchor="middle" transform="translate(13.05,175.94) rotate(-90)" style="font-size:11px;font-family:&quot;Arimo&quot;">Response</text><text x="132" y="14.56" style="font-size:13.2px;font-family:&quot;Arimo&quot;">Is GDAL is secure software?</text></g></g></svg>