<svg xmlns="http://www.w3.org/2000/svg" xmlns:xlink="http://www.w3.org/1999/xlink" width="672" height="480" viewBox="0 0 504 360"><g class="svglite"><defs><style type="text/css">.svglite polyline,.svglite rect{fill:none;stroke:#000;stroke-linecap:round;stroke-linejoin:round;stroke-miterlimit:10}.svglite text{white-space:pre}</style></defs><rect width="100%" height="100%" style="stroke:none;fill:none"/><defs><clipPath id="cpMC4wMHw1MDQuMDB8MC4wMHwzNjAuMDA="><rect width="504" height="360" x="0" y="0"/></clipPath></defs><defs><clipPath id="cpMTAzLjY2fDQ5OC41MnwyMi43OHwzMjkuMTA="><rect width="394.87" height="306.32" x="103.66" y="22.78"/></clipPath></defs><g clip-path="url(#cpMTAzLjY2fDQ5OC41MnwyMi43OHwzMjkuMTA=)"><polyline points="183.56 329.1 183.56 22.78" style="stroke-width:.53;stroke:#fff;stroke-linecap:butt"/><polyline points="307.48 329.1 307.48 22.78" style="stroke-width:.53;stroke:#fff;stroke-linecap:butt"/><polyline points="431.4 329.1 431.4 22.78" style="stroke-width:.53;stroke:#fff;stroke-linecap:butt"/><polyline points="103.66 299.46 498.52 299.46" style="stroke-width:1.07;stroke:#fff;stroke-linecap:butt"/><polyline points="103.66 200.64 498.52 200.64" style="stroke-width:1.07;stroke:#fff;stroke-linecap:butt"/><polyline points="103.66 101.83 498.52 101.83" style="stroke-width:1.07;stroke:#fff;stroke-linecap:butt"/><polyline points="103.66 151.24 498.52 151.24" style="stroke-width:1.07;stroke:#fff;stroke-linecap:butt"/><polyline points="103.66 52.43 498.52 52.43" style="stroke-width:1.07;stroke:#fff;stroke-linecap:butt"/><polyline points="103.66 250.05 498.52 250.05" style="stroke-width:1.07;stroke:#fff;stroke-linecap:butt"/><polyline points="121.6 329.1 121.6 22.78" style="stroke-width:1.07;stroke:#fff;stroke-linecap:butt"/><polyline points="245.52 329.1 245.52 22.78" style="stroke-width:1.07;stroke:#fff;stroke-linecap:butt"/><polyline points="369.44 329.1 369.44 22.78" style="stroke-width:1.07;stroke:#fff;stroke-linecap:butt"/><polyline points="493.36 329.1 493.36 22.78" style="stroke-width:1.07;stroke:#fff;stroke-linecap:butt"/><rect width="358.97" height="44.47" x="121.6" y="277.22" style="stroke-width:1.07;stroke:none;stroke-linecap:butt;stroke-linejoin:miter;fill:#71c9f1"/><rect width="277.83" height="44.47" x="121.6" y="178.41" style="stroke-width:1.07;stroke:none;stroke-linecap:butt;stroke-linejoin:miter;fill:#71c9f1"/><rect width="152.44" height="44.47" x="121.6" y="79.6" style="stroke-width:1.07;stroke:none;stroke-linecap:butt;stroke-linejoin:miter;fill:#71c9f1"/><rect width="245.87" height="44.47" x="121.6" y="129.01" style="stroke-width:1.07;stroke:none;stroke-linecap:butt;stroke-linejoin:miter;fill:#71c9f1"/><rect width="140.15" height="44.47" x="121.6" y="30.19" style="stroke-width:1.07;stroke:none;stroke-linecap:butt;stroke-linejoin:miter;fill:#71c9f1"/><rect width="341.76" height="44.47" x="121.6" y="227.82" style="stroke-width:1.07;stroke:none;stroke-linecap:butt;stroke-linejoin:miter;fill:#71c9f1"/></g><g clip-path="url(#cpMC4wMHw1MDQuMDB8MC4wMHwzNjAuMDA=)"><text x="98.72" y="302.49" text-anchor="end" style="font-size:8.8px;fill:#4d4d4d;font-family:&quot;Arimo&quot;">Code review</text><text x="98.72" y="203.67" text-anchor="end" style="font-size:8.8px;fill:#4d4d4d;font-family:&quot;Arimo&quot;">Bug/ticket review</text><text x="98.72" y="104.86" text-anchor="end" style="font-size:8.8px;fill:#4d4d4d;font-family:&quot;Arimo&quot;">Format development</text><text x="98.72" y="154.27" text-anchor="end" style="font-size:8.8px;fill:#4d4d4d;font-family:&quot;Arimo&quot;">Code refactoring</text><text x="98.72" y="55.45" text-anchor="end" style="font-size:8.8px;fill:#4d4d4d;font-family:&quot;Arimo&quot;">Porting</text><text x="98.72" y="253.08" text-anchor="end" style="font-size:8.8px;fill:#4d4d4d;font-family:&quot;Arimo&quot;">Test development</text><polyline points="100.92 299.46 103.66 299.46" style="stroke-width:1.07;stroke:#333;stroke-linecap:butt"/><polyline points="100.92 200.64 103.66 200.64" style="stroke-width:1.07;stroke:#333;stroke-linecap:butt"/><polyline points="100.92 101.83 103.66 101.83" style="stroke-width:1.07;stroke:#333;stroke-linecap:butt"/><polyline points="100.92 151.24 103.66 151.24" style="stroke-width:1.07;stroke:#333;stroke-linecap:butt"/><polyline points="100.92 52.43 103.66 52.43" style="stroke-width:1.07;stroke:#333;stroke-linecap:butt"/><polyline points="100.92 250.05 103.66 250.05" style="stroke-width:1.07;stroke:#333;stroke-linecap:butt"/><polyline points="121.6 331.84 121.6 329.1" style="stroke-width:1.07;stroke:#333;stroke-linecap:butt"/><polyline points="245.52 331.84 245.52 329.1" style="stroke-width:1.07;stroke:#333;stroke-linecap:butt"/><polyline points="369.44 331.84 369.44 329.1" style="stroke-width:1.07;stroke:#333;stroke-linecap:butt"/><polyline points="493.36 331.84 493.36 329.1" style="stroke-width:1.07;stroke:#333;stroke-linecap:butt"/><text x="121.6" y="340.09" text-anchor="middle" style="font-size:8.8px;fill:#4d4d4d;font-family:&quot;Arimo&quot;">0%</text><text x="245.52" y="340.09" text-anchor="middle" style="font-size:8.8px;fill:#4d4d4d;font-family:&quot;Arimo&quot;">20%</text><text x="369.44" y="340.09" text-anchor="middle" style="font-size:8.8px;fill:#4d4d4d;font-family:&quot;Arimo&quot;">40%</text><text x="493.36" y="340.09" text-anchor="middle" style="font-size:8.8px;fill:#4d4d4d;font-family:&quot;Arimo&quot;">60%</text><text x="301.09" y="352.23" text-anchor="middle" style="font-size:11px;font-family:&quot;Arimo&quot;">Percent of responses</text><text text-anchor="middle" transform="translate(13.05,175.94) rotate(-90)" style="font-size:11px;font-family:&quot;Arimo&quot;">Activity</text><text x="103.66" y="14.56" style="font-size:13.2px;font-family:&quot;Arimo&quot;">I support LLM usage by GDAL in the following areas</text></g></g></svg>