<svg xmlns="http://www.w3.org/2000/svg" xmlns:xlink="http://www.w3.org/1999/xlink" width="672" height="480" viewBox="0 0 504 360"><g class="svglite"><defs><style type="text/css">.svglite polyline,.svglite rect{fill:none;stroke:#000;stroke-linecap:round;stroke-linejoin:round;stroke-miterlimit:10}.svglite text{white-space:pre}</style></defs><rect width="100%" height="100%" style="stroke:none;fill:none"/><defs><clipPath id="cpMC4wMHw1MDQuMDB8MC4wMHwzNjAuMDA="><rect width="504" height="360" x="0" y="0"/></clipPath></defs><defs><clipPath id="cpMTQ0LjIyfDQxNy4yNnwyMi43OHwzMjkuMTA="><rect width="273.04" height="306.32" x="144.22" y="22.78"/></clipPath></defs><g clip-path="url(#cpMTQ0LjIyfDQxNy4yNnwyMi43OHwzMjkuMTA=)"><polyline points="191.41 329.1 191.41 22.78" style="stroke-width:.53;stroke:#fff;stroke-linecap:butt"/><polyline points="260.99 329.1 260.99 22.78" style="stroke-width:.53;stroke:#fff;stroke-linecap:butt"/><polyline points="330.56 329.1 330.56 22.78" style="stroke-width:.53;stroke:#fff;stroke-linecap:butt"/><polyline points="400.13 329.1 400.13 22.78" style="stroke-width:.53;stroke:#fff;stroke-linecap:butt"/><polyline points="144.22 303.57 417.26 303.57" style="stroke-width:1.07;stroke:#fff;stroke-linecap:butt"/><polyline points="144.22 261.03 417.26 261.03" style="stroke-width:1.07;stroke:#fff;stroke-linecap:butt"/><polyline points="144.22 218.49 417.26 218.49" style="stroke-width:1.07;stroke:#fff;stroke-linecap:butt"/><polyline points="144.22 175.94 417.26 175.94" style="stroke-width:1.07;stroke:#fff;stroke-linecap:butt"/><polyline points="144.22 133.4 417.26 133.4" style="stroke-width:1.07;stroke:#fff;stroke-linecap:butt"/><polyline points="144.22 90.85 417.26 90.85" style="stroke-width:1.07;stroke:#fff;stroke-linecap:butt"/><polyline points="144.22 48.31 417.26 48.31" style="stroke-width:1.07;stroke:#fff;stroke-linecap:butt"/><polyline points="156.63 329.1 156.63 22.78" style="stroke-width:1.07;stroke:#fff;stroke-linecap:butt"/><polyline points="226.2 329.1 226.2 22.78" style="stroke-width:1.07;stroke:#fff;stroke-linecap:butt"/><polyline points="295.77 329.1 295.77 22.78" style="stroke-width:1.07;stroke:#fff;stroke-linecap:butt"/><polyline points="365.35 329.1 365.35 22.78" style="stroke-width:1.07;stroke:#fff;stroke-linecap:butt"/><rect width="41.79" height="19.15" x="156.63" y="241.89" style="stroke-width:1.07;stroke:none;stroke-linecap:butt;stroke-linejoin:miter;fill:#359946"/><rect width="8.83" height="19.15" x="156.63" y="114.25" style="stroke-width:1.07;stroke:none;stroke-linecap:butt;stroke-linejoin:miter;fill:#359946"/><rect width="4.71" height="19.15" x="156.63" y="71.71" style="stroke-width:1.07;stroke:none;stroke-linecap:butt;stroke-linejoin:miter;fill:#359946"/><rect width="232.5" height="19.15" x="156.63" y="284.43" style="stroke-width:1.07;stroke:none;stroke-linecap:butt;stroke-linejoin:miter;fill:#359946"/><rect width="14.13" height="19.15" x="156.63" y="156.8" style="stroke-width:1.07;stroke:none;stroke-linecap:butt;stroke-linejoin:miter;fill:#359946"/><rect width="42.97" height="19.15" x="156.63" y="199.34" style="stroke-width:1.07;stroke:none;stroke-linecap:butt;stroke-linejoin:miter;fill:#359946"/><rect width="2.94" height="19.15" x="156.63" y="29.16" style="stroke-width:1.07;stroke:none;stroke-linecap:butt;stroke-linejoin:miter;fill:#359946"/><rect width="41.27" height="19.15" x="156.63" y="261.03" style="stroke-width:1.07;stroke:none;stroke-linecap:butt;stroke-linejoin:miter;fill:#71c9f1"/><rect width="6.49" height="19.15" x="156.63" y="133.4" style="stroke-width:1.07;stroke:none;stroke-linecap:butt;stroke-linejoin:miter;fill:#71c9f1"/><rect width="8.84" height="19.15" x="156.63" y="90.85" style="stroke-width:1.07;stroke:none;stroke-linecap:butt;stroke-linejoin:miter;fill:#71c9f1"/><rect width="248.22" height="19.15" x="156.63" y="303.57" style="stroke-width:1.07;stroke:none;stroke-linecap:butt;stroke-linejoin:miter;fill:#71c9f1"/><rect width="9.43" height="19.15" x="156.63" y="175.94" style="stroke-width:1.07;stroke:none;stroke-linecap:butt;stroke-linejoin:miter;fill:#71c9f1"/><rect width="31.84" height="19.15" x="156.63" y="218.49" style="stroke-width:1.07;stroke:none;stroke-linecap:butt;stroke-linejoin:miter;fill:#71c9f1"/><rect width="1.77" height="19.15" x="156.63" y="48.31" style="stroke-width:1.07;stroke:none;stroke-linecap:butt;stroke-linejoin:miter;fill:#71c9f1"/></g><g clip-path="url(#cpMC4wMHw1MDQuMDB8MC4wMHwzNjAuMDA=)"><text x="139.29" y="306.6" text-anchor="end" style="font-size:8.8px;fill:#4d4d4d;font-family:&quot;Arimo&quot;">Local file systems</text><text x="139.29" y="264.06" text-anchor="end" style="font-size:8.8px;fill:#4d4d4d;font-family:&quot;Arimo&quot;">Cloud (s3, gcs, az)</text><text x="139.29" y="221.51" text-anchor="end" style="font-size:8.8px;fill:#4d4d4d;font-family:&quot;Arimo&quot;">Network file systems</text><text x="139.29" y="178.97" text-anchor="end" style="font-size:8.8px;fill:#4d4d4d;font-family:&quot;Arimo&quot;">Memory</text><text x="139.29" y="136.42" text-anchor="end" style="font-size:8.8px;fill:#4d4d4d;font-family:&quot;Arimo&quot;">Database</text><text x="139.29" y="93.88" text-anchor="end" style="font-size:8.8px;fill:#4d4d4d;font-family:&quot;Arimo&quot;">HPC (Lustre, HDFS, IPFS, etc)</text><text x="139.29" y="51.34" text-anchor="end" style="font-size:8.8px;fill:#4d4d4d;font-family:&quot;Arimo&quot;">Other</text><polyline points="141.48 303.57 144.22 303.57" style="stroke-width:1.07;stroke:#333;stroke-linecap:butt"/><polyline points="141.48 261.03 144.22 261.03" style="stroke-width:1.07;stroke:#333;stroke-linecap:butt"/><polyline points="141.48 218.49 144.22 218.49" style="stroke-width:1.07;stroke:#333;stroke-linecap:butt"/><polyline points="141.48 175.94 144.22 175.94" style="stroke-width:1.07;stroke:#333;stroke-linecap:butt"/><polyline points="141.48 133.4 144.22 133.4" style="stroke-width:1.07;stroke:#333;stroke-linecap:butt"/><polyline points="141.48 90.85 144.22 90.85" style="stroke-width:1.07;stroke:#333;stroke-linecap:butt"/><polyline points="141.48 48.31 144.22 48.31" style="stroke-width:1.07;stroke:#333;stroke-linecap:butt"/><polyline points="156.63 331.84 156.63 329.1" style="stroke-width:1.07;stroke:#333;stroke-linecap:butt"/><polyline points="226.2 331.84 226.2 329.1" style="stroke-width:1.07;stroke:#333;stroke-linecap:butt"/><polyline points="295.77 331.84 295.77 329.1" style="stroke-width:1.07;stroke:#333;stroke-linecap:butt"/><polyline points="365.35 331.84 365.35 329.1" style="stroke-width:1.07;stroke:#333;stroke-linecap:butt"/><text x="156.63" y="340.09" text-anchor="middle" style="font-size:8.8px;fill:#4d4d4d;font-family:&quot;Arimo&quot;">0%</text><text x="226.2" y="340.09" text-anchor="middle" style="font-size:8.8px;fill:#4d4d4d;font-family:&quot;Arimo&quot;">20%</text><text x="295.77" y="340.09" text-anchor="middle" style="font-size:8.8px;fill:#4d4d4d;font-family:&quot;Arimo&quot;">40%</text><text x="365.35" y="340.09" text-anchor="middle" style="font-size:8.8px;fill:#4d4d4d;font-family:&quot;Arimo&quot;">60%</text><text x="280.74" y="352.23" text-anchor="middle" style="font-size:11px;font-family:&quot;Arimo&quot;">Percent of Respondents</text><text text-anchor="middle" transform="translate(13.05,175.94) rotate(-90)" style="font-size:11px;font-family:&quot;Arimo&quot;">Location</text><text x="433.7" y="159.71" style="font-size:11px;font-family:&quot;Arimo&quot;">Survey Year</text><rect width="15.86" height="15.86" x="434.41" y="167.04" style="stroke-width:1.07;stroke:none;stroke-linecap:butt;stroke-linejoin:miter;fill:#359946"/><rect width="15.86" height="15.86" x="434.41" y="184.32" style="stroke-width:1.07;stroke:none;stroke-linecap:butt;stroke-linejoin:miter;fill:#71c9f1"/><text x="456.46" y="178" style="font-size:8.8px;font-family:&quot;Arimo&quot;">2024</text><text x="456.46" y="195.28" style="font-size:8.8px;font-family:&quot;Arimo&quot;">2025</text><text x="144.22" y="14.56" style="font-size:13.2px;font-family:&quot;Arimo&quot;">I write most data with GDAL to...</text></g></g></svg>