<svg xmlns="http://www.w3.org/2000/svg" xmlns:xlink="http://www.w3.org/1999/xlink" width="672" height="480" viewBox="0 0 504 360"><g class="svglite"><defs><style type="text/css">.svglite polyline,.svglite rect{fill:none;stroke:#000;stroke-linecap:round;stroke-linejoin:round;stroke-miterlimit:10}.svglite text{white-space:pre}</style></defs><rect width="100%" height="100%" style="stroke:none;fill:none"/><defs><clipPath id="cpMC4wMHw1MDQuMDB8MC4wMHwzNjAuMDA="><rect width="504" height="360" x="0" y="0"/></clipPath></defs><defs><clipPath id="cpMTQ0LjIyfDQxNy4yNnwyMi43OHwzMjkuMTA="><rect width="273.04" height="306.32" x="144.22" y="22.78"/></clipPath></defs><g clip-path="url(#cpMTQ0LjIyfDQxNy4yNnwyMi43OHwzMjkuMTA=)"><polyline points="193.61 329.1 193.61 22.78" style="stroke-width:.53;stroke:#fff;stroke-linecap:butt"/><polyline points="267.57 329.1 267.57 22.78" style="stroke-width:.53;stroke:#fff;stroke-linecap:butt"/><polyline points="341.53 329.1 341.53 22.78" style="stroke-width:.53;stroke:#fff;stroke-linecap:butt"/><polyline points="415.49 329.1 415.49 22.78" style="stroke-width:.53;stroke:#fff;stroke-linecap:butt"/><polyline points="144.22 299.46 417.26 299.46" style="stroke-width:1.07;stroke:#fff;stroke-linecap:butt"/><polyline points="144.22 250.05 417.26 250.05" style="stroke-width:1.07;stroke:#fff;stroke-linecap:butt"/><polyline points="144.22 200.64 417.26 200.64" style="stroke-width:1.07;stroke:#fff;stroke-linecap:butt"/><polyline points="144.22 151.24 417.26 151.24" style="stroke-width:1.07;stroke:#fff;stroke-linecap:butt"/><polyline points="144.22 101.83 417.26 101.83" style="stroke-width:1.07;stroke:#fff;stroke-linecap:butt"/><polyline points="144.22 52.43 417.26 52.43" style="stroke-width:1.07;stroke:#fff;stroke-linecap:butt"/><polyline points="156.63 329.1 156.63 22.78" style="stroke-width:1.07;stroke:#fff;stroke-linecap:butt"/><polyline points="230.59 329.1 230.59 22.78" style="stroke-width:1.07;stroke:#fff;stroke-linecap:butt"/><polyline points="304.55 329.1 304.55 22.78" style="stroke-width:1.07;stroke:#fff;stroke-linecap:butt"/><polyline points="378.51 329.1 378.51 22.78" style="stroke-width:1.07;stroke:#fff;stroke-linecap:butt"/><rect width="56.89" height="22.23" x="156.63" y="227.82" style="stroke-width:1.07;stroke:none;stroke-linecap:butt;stroke-linejoin:miter;fill:#359946"/><rect width="4.95" height="22.23" x="156.63" y="79.6" style="stroke-width:1.07;stroke:none;stroke-linecap:butt;stroke-linejoin:miter;fill:#359946"/><rect width="244.89" height="22.23" x="156.63" y="277.22" style="stroke-width:1.07;stroke:none;stroke-linecap:butt;stroke-linejoin:miter;fill:#359946"/><rect width="8.66" height="22.23" x="156.63" y="129.01" style="stroke-width:1.07;stroke:none;stroke-linecap:butt;stroke-linejoin:miter;fill:#359946"/><rect width="49.47" height="22.23" x="156.63" y="178.41" style="stroke-width:1.07;stroke:none;stroke-linecap:butt;stroke-linejoin:miter;fill:#359946"/><rect width="4.95" height="22.23" x="156.63" y="30.19" style="stroke-width:1.07;stroke:none;stroke-linecap:butt;stroke-linejoin:miter;fill:#359946"/><rect width="57.96" height="22.23" x="156.63" y="250.05" style="stroke-width:1.07;stroke:none;stroke-linecap:butt;stroke-linejoin:miter;fill:#71c9f1"/><rect width="8.82" height="22.23" x="156.63" y="101.83" style="stroke-width:1.07;stroke:none;stroke-linecap:butt;stroke-linejoin:miter;fill:#71c9f1"/><rect width="248.22" height="22.23" x="156.63" y="299.46" style="stroke-width:1.07;stroke:none;stroke-linecap:butt;stroke-linejoin:miter;fill:#71c9f1"/><rect width="8.19" height="22.23" x="156.63" y="151.24" style="stroke-width:1.07;stroke:none;stroke-linecap:butt;stroke-linejoin:miter;fill:#71c9f1"/><rect width="43.47" height="22.23" x="156.63" y="200.64" style="stroke-width:1.07;stroke:none;stroke-linecap:butt;stroke-linejoin:miter;fill:#71c9f1"/><rect width="3.15" height="22.23" x="156.63" y="52.43" style="stroke-width:1.07;stroke:none;stroke-linecap:butt;stroke-linejoin:miter;fill:#71c9f1"/></g><g clip-path="url(#cpMC4wMHw1MDQuMDB8MC4wMHwzNjAuMDA=)"><text x="139.29" y="302.49" text-anchor="end" style="font-size:8.8px;fill:#4d4d4d;font-family:&quot;Arimo&quot;">Local file systems</text><text x="139.29" y="253.08" text-anchor="end" style="font-size:8.8px;fill:#4d4d4d;font-family:&quot;Arimo&quot;">Cloud (s3, gcs, az)</text><text x="139.29" y="203.67" text-anchor="end" style="font-size:8.8px;fill:#4d4d4d;font-family:&quot;Arimo&quot;">Network file systems</text><text x="139.29" y="154.27" text-anchor="end" style="font-size:8.8px;fill:#4d4d4d;font-family:&quot;Arimo&quot;">Memory</text><text x="139.29" y="104.86" text-anchor="end" style="font-size:8.8px;fill:#4d4d4d;font-family:&quot;Arimo&quot;">HPC (Lustre, HDFS, IPFS, etc)</text><text x="139.29" y="55.45" text-anchor="end" style="font-size:8.8px;fill:#4d4d4d;font-family:&quot;Arimo&quot;">Other</text><polyline points="141.48 299.46 144.22 299.46" style="stroke-width:1.07;stroke:#333;stroke-linecap:butt"/><polyline points="141.48 250.05 144.22 250.05" style="stroke-width:1.07;stroke:#333;stroke-linecap:butt"/><polyline points="141.48 200.64 144.22 200.64" style="stroke-width:1.07;stroke:#333;stroke-linecap:butt"/><polyline points="141.48 151.24 144.22 151.24" style="stroke-width:1.07;stroke:#333;stroke-linecap:butt"/><polyline points="141.48 101.83 144.22 101.83" style="stroke-width:1.07;stroke:#333;stroke-linecap:butt"/><polyline points="141.48 52.43 144.22 52.43" style="stroke-width:1.07;stroke:#333;stroke-linecap:butt"/><polyline points="156.63 331.84 156.63 329.1" style="stroke-width:1.07;stroke:#333;stroke-linecap:butt"/><polyline points="230.59 331.84 230.59 329.1" style="stroke-width:1.07;stroke:#333;stroke-linecap:butt"/><polyline points="304.55 331.84 304.55 329.1" style="stroke-width:1.07;stroke:#333;stroke-linecap:butt"/><polyline points="378.51 331.84 378.51 329.1" style="stroke-width:1.07;stroke:#333;stroke-linecap:butt"/><text x="156.63" y="340.09" text-anchor="middle" style="font-size:8.8px;fill:#4d4d4d;font-family:&quot;Arimo&quot;">0%</text><text x="230.59" y="340.09" text-anchor="middle" style="font-size:8.8px;fill:#4d4d4d;font-family:&quot;Arimo&quot;">20%</text><text x="304.55" y="340.09" text-anchor="middle" style="font-size:8.8px;fill:#4d4d4d;font-family:&quot;Arimo&quot;">40%</text><text x="378.51" y="340.09" text-anchor="middle" style="font-size:8.8px;fill:#4d4d4d;font-family:&quot;Arimo&quot;">60%</text><text x="280.74" y="352.23" text-anchor="middle" style="font-size:11px;font-family:&quot;Arimo&quot;">Percent of Respondents</text><text text-anchor="middle" transform="translate(13.05,175.94) rotate(-90)" style="font-size:11px;font-family:&quot;Arimo&quot;">Source</text><text x="433.7" y="159.71" style="font-size:11px;font-family:&quot;Arimo&quot;">Survey Year</text><rect width="15.86" height="15.86" x="434.41" y="167.04" style="stroke-width:1.07;stroke:none;stroke-linecap:butt;stroke-linejoin:miter;fill:#359946"/><rect width="15.86" height="15.86" x="434.41" y="184.32" style="stroke-width:1.07;stroke:none;stroke-linecap:butt;stroke-linejoin:miter;fill:#71c9f1"/><text x="456.46" y="178" style="font-size:8.8px;font-family:&quot;Arimo&quot;">2024</text><text x="456.46" y="195.28" style="font-size:8.8px;font-family:&quot;Arimo&quot;">2025</text><text x="144.22" y="14.56" style="font-size:13.2px;font-family:&quot;Arimo&quot;">I read most data with GDAL from...</text></g></g></svg>