<svg xmlns="http://www.w3.org/2000/svg" xmlns:xlink="http://www.w3.org/1999/xlink" width="672" height="480" viewBox="0 0 504 360"><g class="svglite"><defs><style type="text/css">.svglite polyline,.svglite rect{fill:none;stroke:#000;stroke-linecap:round;stroke-linejoin:round;stroke-miterlimit:10}.svglite text{white-space:pre}</style></defs><rect width="100%" height="100%" style="stroke:none;fill:none"/><defs><clipPath id="cpMC4wMHw1MDQuMDB8MC4wMHwzNjAuMDA="><rect width="504" height="360" x="0" y="0"/></clipPath></defs><defs><clipPath id="cpMTQwLjc2fDQxNy4yNnwyMi43OHwzMjkuMTA="><rect width="276.49" height="306.32" x="140.76" y="22.78"/></clipPath></defs><g clip-path="url(#cpMTQwLjc2fDQxNy4yNnwyMi43OHwzMjkuMTA=)"><polyline points="189.62 329.1 189.62 22.78" style="stroke-width:.53;stroke:#fff;stroke-linecap:butt"/><polyline points="262.2 329.1 262.2 22.78" style="stroke-width:.53;stroke:#fff;stroke-linecap:butt"/><polyline points="334.77 329.1 334.77 22.78" style="stroke-width:.53;stroke:#fff;stroke-linecap:butt"/><polyline points="407.35 329.1 407.35 22.78" style="stroke-width:.53;stroke:#fff;stroke-linecap:butt"/><polyline points="140.76 312.69 417.26 312.69" style="stroke-width:1.07;stroke:#fff;stroke-linecap:butt"/><polyline points="140.76 285.34 417.26 285.34" style="stroke-width:1.07;stroke:#fff;stroke-linecap:butt"/><polyline points="140.76 257.99 417.26 257.99" style="stroke-width:1.07;stroke:#fff;stroke-linecap:butt"/><polyline points="140.76 230.64 417.26 230.64" style="stroke-width:1.07;stroke:#fff;stroke-linecap:butt"/><polyline points="140.76 203.29 417.26 203.29" style="stroke-width:1.07;stroke:#fff;stroke-linecap:butt"/><polyline points="140.76 175.94 417.26 175.94" style="stroke-width:1.07;stroke:#fff;stroke-linecap:butt"/><polyline points="140.76 148.59 417.26 148.59" style="stroke-width:1.07;stroke:#fff;stroke-linecap:butt"/><polyline points="140.76 121.24 417.26 121.24" style="stroke-width:1.07;stroke:#fff;stroke-linecap:butt"/><polyline points="140.76 93.89 417.26 93.89" style="stroke-width:1.07;stroke:#fff;stroke-linecap:butt"/><polyline points="140.76 66.54 417.26 66.54" style="stroke-width:1.07;stroke:#fff;stroke-linecap:butt"/><polyline points="140.76 39.19 417.26 39.19" style="stroke-width:1.07;stroke:#fff;stroke-linecap:butt"/><polyline points="153.33 329.1 153.33 22.78" style="stroke-width:1.07;stroke:#fff;stroke-linecap:butt"/><polyline points="225.91 329.1 225.91 22.78" style="stroke-width:1.07;stroke:#fff;stroke-linecap:butt"/><polyline points="298.49 329.1 298.49 22.78" style="stroke-width:1.07;stroke:#fff;stroke-linecap:butt"/><polyline points="371.06 329.1 371.06 22.78" style="stroke-width:1.07;stroke:#fff;stroke-linecap:butt"/><rect width="187.88" height="12.31" x="153.33" y="81.58" style="stroke-width:1.07;stroke:none;stroke-linecap:butt;stroke-linejoin:miter;fill:#359946"/><rect width="205.56" height="12.31" x="153.33" y="218.33" style="stroke-width:1.07;stroke:none;stroke-linecap:butt;stroke-linejoin:miter;fill:#359946"/><rect width="0" height="12.31" x="153.33" y="190.98" style="stroke-width:1.07;stroke:none;stroke-linecap:butt;stroke-linejoin:miter;fill:#359946"/><rect width="170.74" height="12.31" x="153.33" y="54.23" style="stroke-width:1.07;stroke:none;stroke-linecap:butt;stroke-linejoin:miter;fill:#359946"/><rect width="157.82" height="12.31" x="153.33" y="26.88" style="stroke-width:1.07;stroke:none;stroke-linecap:butt;stroke-linejoin:miter;fill:#359946"/><rect width="248.95" height="12.31" x="153.33" y="300.38" style="stroke-width:1.07;stroke:none;stroke-linecap:butt;stroke-linejoin:miter;fill:#359946"/><rect width="218.54" height="12.31" x="153.33" y="245.68" style="stroke-width:1.07;stroke:none;stroke-linecap:butt;stroke-linejoin:miter;fill:#359946"/><rect width="184.29" height="12.31" x="153.33" y="136.28" style="stroke-width:1.07;stroke:none;stroke-linecap:butt;stroke-linejoin:miter;fill:#359946"/><rect width="251.36" height="12.31" x="153.33" y="273.03" style="stroke-width:1.07;stroke:none;stroke-linecap:butt;stroke-linejoin:miter;fill:#359946"/><rect width="176.15" height="12.31" x="153.33" y="108.93" style="stroke-width:1.07;stroke:none;stroke-linecap:butt;stroke-linejoin:miter;fill:#359946"/><rect width="198.23" height="12.31" x="153.33" y="163.63" style="stroke-width:1.07;stroke:none;stroke-linecap:butt;stroke-linejoin:miter;fill:#359946"/><rect width="185.69" height="12.31" x="153.33" y="93.89" style="stroke-width:1.07;stroke:none;stroke-linecap:butt;stroke-linejoin:miter;fill:#71c9f1"/><rect width="204.77" height="12.31" x="153.33" y="230.64" style="stroke-width:1.07;stroke:none;stroke-linecap:butt;stroke-linejoin:miter;fill:#71c9f1"/><rect width="202.38" height="12.31" x="153.33" y="203.29" style="stroke-width:1.07;stroke:none;stroke-linecap:butt;stroke-linejoin:miter;fill:#71c9f1"/><rect width="179.82" height="12.31" x="153.33" y="66.54" style="stroke-width:1.07;stroke:none;stroke-linecap:butt;stroke-linejoin:miter;fill:#71c9f1"/><rect width="167.67" height="12.31" x="153.33" y="39.19" style="stroke-width:1.07;stroke:none;stroke-linecap:butt;stroke-linejoin:miter;fill:#71c9f1"/><rect width="250.48" height="12.31" x="153.33" y="312.69" style="stroke-width:1.07;stroke:none;stroke-linecap:butt;stroke-linejoin:miter;fill:#71c9f1"/><rect width="211.96" height="12.31" x="153.33" y="257.99" style="stroke-width:1.07;stroke:none;stroke-linecap:butt;stroke-linejoin:miter;fill:#71c9f1"/><rect width="189.43" height="12.31" x="153.33" y="148.59" style="stroke-width:1.07;stroke:none;stroke-linecap:butt;stroke-linejoin:miter;fill:#71c9f1"/><rect width="249.26" height="12.31" x="153.33" y="285.34" style="stroke-width:1.07;stroke:none;stroke-linecap:butt;stroke-linejoin:miter;fill:#71c9f1"/><rect width="187.28" height="12.31" x="153.33" y="121.24" style="stroke-width:1.07;stroke:none;stroke-linecap:butt;stroke-linejoin:miter;fill:#71c9f1"/><rect width="197.49" height="12.31" x="153.33" y="175.94" style="stroke-width:1.07;stroke:none;stroke-linecap:butt;stroke-linejoin:miter;fill:#71c9f1"/></g><g clip-path="url(#cpMC4wMHw1MDQuMDB8MC4wMHwzNjAuMDA=)"><text x="135.83" y="315.72" text-anchor="end" style="font-size:8.8px;fill:#4d4d4d;font-family:&quot;Arimo&quot;">Format compatibility</text><text x="135.83" y="288.37" text-anchor="end" style="font-size:8.8px;fill:#4d4d4d;font-family:&quot;Arimo&quot;">Performance</text><text x="135.83" y="261.02" text-anchor="end" style="font-size:8.8px;fill:#4d4d4d;font-family:&quot;Arimo&quot;">Integration with other software</text><text x="135.83" y="233.67" text-anchor="end" style="font-size:8.8px;fill:#4d4d4d;font-family:&quot;Arimo&quot;">Command line compatibility</text><text x="135.83" y="206.32" text-anchor="end" style="font-size:8.8px;fill:#4d4d4d;font-family:&quot;Arimo&quot;">Command line new features</text><text x="135.83" y="178.97" text-anchor="end" style="font-size:8.8px;fill:#4d4d4d;font-family:&quot;Arimo&quot;">VSI features</text><text x="135.83" y="151.62" text-anchor="end" style="font-size:8.8px;fill:#4d4d4d;font-family:&quot;Arimo&quot;">More formats</text><text x="135.83" y="124.27" text-anchor="end" style="font-size:8.8px;fill:#4d4d4d;font-family:&quot;Arimo&quot;">Static builds</text><text x="135.83" y="96.92" text-anchor="end" style="font-size:8.8px;fill:#4d4d4d;font-family:&quot;Arimo&quot;">Backward compatibility</text><text x="135.83" y="69.57" text-anchor="end" style="font-size:8.8px;fill:#4d4d4d;font-family:&quot;Arimo&quot;">Compiler compatibility</text><text x="135.83" y="42.22" text-anchor="end" style="font-size:8.8px;fill:#4d4d4d;font-family:&quot;Arimo&quot;">Deprecation of unused drivers</text><polyline points="138.02 312.69 140.76 312.69" style="stroke-width:1.07;stroke:#333;stroke-linecap:butt"/><polyline points="138.02 285.34 140.76 285.34" style="stroke-width:1.07;stroke:#333;stroke-linecap:butt"/><polyline points="138.02 257.99 140.76 257.99" style="stroke-width:1.07;stroke:#333;stroke-linecap:butt"/><polyline points="138.02 230.64 140.76 230.64" style="stroke-width:1.07;stroke:#333;stroke-linecap:butt"/><polyline points="138.02 203.29 140.76 203.29" style="stroke-width:1.07;stroke:#333;stroke-linecap:butt"/><polyline points="138.02 175.94 140.76 175.94" style="stroke-width:1.07;stroke:#333;stroke-linecap:butt"/><polyline points="138.02 148.59 140.76 148.59" style="stroke-width:1.07;stroke:#333;stroke-linecap:butt"/><polyline points="138.02 121.24 140.76 121.24" style="stroke-width:1.07;stroke:#333;stroke-linecap:butt"/><polyline points="138.02 93.89 140.76 93.89" style="stroke-width:1.07;stroke:#333;stroke-linecap:butt"/><polyline points="138.02 66.54 140.76 66.54" style="stroke-width:1.07;stroke:#333;stroke-linecap:butt"/><polyline points="138.02 39.19 140.76 39.19" style="stroke-width:1.07;stroke:#333;stroke-linecap:butt"/><polyline points="153.33 331.84 153.33 329.1" style="stroke-width:1.07;stroke:#333;stroke-linecap:butt"/><polyline points="225.91 331.84 225.91 329.1" style="stroke-width:1.07;stroke:#333;stroke-linecap:butt"/><polyline points="298.49 331.84 298.49 329.1" style="stroke-width:1.07;stroke:#333;stroke-linecap:butt"/><polyline points="371.06 331.84 371.06 329.1" style="stroke-width:1.07;stroke:#333;stroke-linecap:butt"/><text x="153.33" y="340.09" text-anchor="middle" style="font-size:8.8px;fill:#4d4d4d;font-family:&quot;Arimo&quot;">0</text><text x="225.91" y="340.09" text-anchor="middle" style="font-size:8.8px;fill:#4d4d4d;font-family:&quot;Arimo&quot;">1</text><text x="298.49" y="340.09" text-anchor="middle" style="font-size:8.8px;fill:#4d4d4d;font-family:&quot;Arimo&quot;">2</text><text x="371.06" y="340.09" text-anchor="middle" style="font-size:8.8px;fill:#4d4d4d;font-family:&quot;Arimo&quot;">3</text><text x="279.01" y="352.23" text-anchor="middle" style="font-size:11px;font-family:&quot;Arimo&quot;">Average priority</text><text text-anchor="middle" transform="translate(13.05,175.94) rotate(-90)" style="font-size:11px;font-family:&quot;Arimo&quot;">Area of focus</text><text x="433.7" y="159.71" style="font-size:11px;font-family:&quot;Arimo&quot;">Survey Year</text><rect width="15.86" height="15.86" x="434.41" y="167.04" style="stroke-width:1.07;stroke:none;stroke-linecap:butt;stroke-linejoin:miter;fill:#71c9f1"/><rect width="15.86" height="15.86" x="434.41" y="184.32" style="stroke-width:1.07;stroke:none;stroke-linecap:butt;stroke-linejoin:miter;fill:#359946"/><text x="456.46" y="178" style="font-size:8.8px;font-family:&quot;Arimo&quot;">2025</text><text x="456.46" y="195.28" style="font-size:8.8px;font-family:&quot;Arimo&quot;">2024</text><text x="140.76" y="14.56" style="font-size:13.2px;font-family:&quot;Arimo&quot;">Maintenance program priority rankings</text></g></g></svg>