<svg xmlns="http://www.w3.org/2000/svg" xmlns:xlink="http://www.w3.org/1999/xlink" width="672" height="480" viewBox="0 0 504 360"><g class="svglite"><defs><style type="text/css">.svglite polyline,.svglite rect{fill:none;stroke:#000;stroke-linecap:round;stroke-linejoin:round;stroke-miterlimit:10}.svglite text{white-space:pre}</style></defs><rect width="100%" height="100%" style="stroke:none;fill:none"/><defs><clipPath id="cpMC4wMHw1MDQuMDB8MC4wMHwzNjAuMDA="><rect width="504" height="360" x="0" y="0"/></clipPath></defs><defs><clipPath id="cpMTQzLjI4fDQxNy4yNnwzNy4wNHwzMjkuMTA="><rect width="273.98" height="292.06" x="143.28" y="37.04"/></clipPath></defs><g clip-path="url(#cpMTQzLjI4fDQxNy4yNnwzNy4wNHwzMjkuMTA=)"><polyline points="180.54 329.1 180.54 37.04" style="stroke-width:.53;stroke:#fff;stroke-linecap:butt"/><polyline points="230.15 329.1 230.15 37.04" style="stroke-width:.53;stroke:#fff;stroke-linecap:butt"/><polyline points="279.76 329.1 279.76 37.04" style="stroke-width:.53;stroke:#fff;stroke-linecap:butt"/><polyline points="329.37 329.1 329.37 37.04" style="stroke-width:.53;stroke:#fff;stroke-linecap:butt"/><polyline points="378.98 329.1 378.98 37.04" style="stroke-width:.53;stroke:#fff;stroke-linecap:butt"/><polyline points="143.28 101.94 417.26 101.94" style="stroke-width:1.07;stroke:#fff;stroke-linecap:butt"/><polyline points="143.28 142.5 417.26 142.5" style="stroke-width:1.07;stroke:#fff;stroke-linecap:butt"/><polyline points="143.28 264.2 417.26 264.2" style="stroke-width:1.07;stroke:#fff;stroke-linecap:butt"/><polyline points="143.28 304.76 417.26 304.76" style="stroke-width:1.07;stroke:#fff;stroke-linecap:butt"/><polyline points="143.28 223.63 417.26 223.63" style="stroke-width:1.07;stroke:#fff;stroke-linecap:butt"/><polyline points="143.28 183.07 417.26 183.07" style="stroke-width:1.07;stroke:#fff;stroke-linecap:butt"/><polyline points="143.28 61.38 417.26 61.38" style="stroke-width:1.07;stroke:#fff;stroke-linecap:butt"/><polyline points="155.73 329.1 155.73 37.04" style="stroke-width:1.07;stroke:#fff;stroke-linecap:butt"/><polyline points="205.34 329.1 205.34 37.04" style="stroke-width:1.07;stroke:#fff;stroke-linecap:butt"/><polyline points="254.95 329.1 254.95 37.04" style="stroke-width:1.07;stroke:#fff;stroke-linecap:butt"/><polyline points="304.56 329.1 304.56 37.04" style="stroke-width:1.07;stroke:#fff;stroke-linecap:butt"/><polyline points="354.17 329.1 354.17 37.04" style="stroke-width:1.07;stroke:#fff;stroke-linecap:butt"/><polyline points="403.78 329.1 403.78 37.04" style="stroke-width:1.07;stroke:#fff;stroke-linecap:butt"/><rect width="207.1" height="18.25" x="155.73" y="245.94" style="stroke-width:1.07;stroke:none;stroke-linecap:butt;stroke-linejoin:miter;fill:#359946"/><rect width="0" height="18.25" x="155.73" y="83.69" style="stroke-width:1.07;stroke:none;stroke-linecap:butt;stroke-linejoin:miter;fill:#359946"/><rect width="204.76" height="18.25" x="155.73" y="286.51" style="stroke-width:1.07;stroke:none;stroke-linecap:butt;stroke-linejoin:miter;fill:#359946"/><rect width="221.14" height="18.25" x="155.73" y="205.38" style="stroke-width:1.07;stroke:none;stroke-linecap:butt;stroke-linejoin:miter;fill:#359946"/><rect width="88.92" height="18.25" x="155.73" y="164.82" style="stroke-width:1.07;stroke:none;stroke-linecap:butt;stroke-linejoin:miter;fill:#359946"/><rect width="0" height="18.25" x="155.73" y="43.12" style="stroke-width:1.07;stroke:none;stroke-linecap:butt;stroke-linejoin:miter;fill:#359946"/><rect width="84.24" height="18.25" x="155.73" y="124.25" style="stroke-width:1.07;stroke:none;stroke-linecap:butt;stroke-linejoin:miter;fill:#359946"/><rect width="231.65" height="18.25" x="155.73" y="264.2" style="stroke-width:1.07;stroke:none;stroke-linecap:butt;stroke-linejoin:miter;fill:#71c9f1"/><rect width="147.6" height="18.25" x="155.73" y="101.94" style="stroke-width:1.07;stroke:none;stroke-linecap:butt;stroke-linejoin:miter;fill:#71c9f1"/><rect width="249.07" height="18.25" x="155.73" y="304.76" style="stroke-width:1.07;stroke:none;stroke-linecap:butt;stroke-linejoin:miter;fill:#71c9f1"/><rect width="202.95" height="18.25" x="155.73" y="223.63" style="stroke-width:1.07;stroke:none;stroke-linecap:butt;stroke-linejoin:miter;fill:#71c9f1"/><rect width="75.85" height="18.25" x="155.73" y="183.07" style="stroke-width:1.07;stroke:none;stroke-linecap:butt;stroke-linejoin:miter;fill:#71c9f1"/><rect width="22.55" height="18.25" x="155.73" y="61.38" style="stroke-width:1.07;stroke:none;stroke-linecap:butt;stroke-linejoin:miter;fill:#71c9f1"/><rect width="74.82" height="18.25" x="155.73" y="142.5" style="stroke-width:1.07;stroke:none;stroke-linecap:butt;stroke-linejoin:miter;fill:#71c9f1"/></g><g clip-path="url(#cpMC4wMHw1MDQuMDB8MC4wMHwzNjAuMDA=)"><text x="138.35" y="104.97" text-anchor="end" style="font-size:8.8px;fill:#4d4d4d;font-family:&quot;Arimo&quot;">New command line interface</text><text x="138.35" y="145.53" text-anchor="end" style="font-size:8.8px;fill:#4d4d4d;font-family:&quot;Arimo&quot;">VSI enhancements</text><text x="138.35" y="267.23" text-anchor="end" style="font-size:8.8px;fill:#4d4d4d;font-family:&quot;Arimo&quot;">Python bindings improvements</text><text x="138.35" y="307.79" text-anchor="end" style="font-size:8.8px;fill:#4d4d4d;font-family:&quot;Arimo&quot;">Documentation improvements</text><text x="138.35" y="221.91" text-anchor="end" style="font-size:8.8px;fill:#4d4d4d;font-family:&quot;Arimo&quot;">Dependency enhancements</text><text x="138.35" y="231.41" text-anchor="end" style="font-size:8.8px;fill:#4d4d4d;font-family:&quot;Arimo&quot;">(PROJ, GEOS, libgeotiff, libtiff)</text><text x="138.35" y="181.34" text-anchor="end" style="font-size:8.8px;fill:#4d4d4d;font-family:&quot;Arimo&quot;">Build system refactor</text><text x="138.35" y="190.85" text-anchor="end" style="font-size:8.8px;fill:#4d4d4d;font-family:&quot;Arimo&quot;">(CMake, plugin loading, etc.)</text><text x="138.35" y="64.4" text-anchor="end" style="font-size:8.8px;fill:#4d4d4d;font-family:&quot;Arimo&quot;">Security improvements</text><polyline points="140.54 101.94 143.28 101.94" style="stroke-width:1.07;stroke:#333;stroke-linecap:butt"/><polyline points="140.54 142.5 143.28 142.5" style="stroke-width:1.07;stroke:#333;stroke-linecap:butt"/><polyline points="140.54 264.2 143.28 264.2" style="stroke-width:1.07;stroke:#333;stroke-linecap:butt"/><polyline points="140.54 304.76 143.28 304.76" style="stroke-width:1.07;stroke:#333;stroke-linecap:butt"/><polyline points="140.54 223.63 143.28 223.63" style="stroke-width:1.07;stroke:#333;stroke-linecap:butt"/><polyline points="140.54 183.07 143.28 183.07" style="stroke-width:1.07;stroke:#333;stroke-linecap:butt"/><polyline points="140.54 61.38 143.28 61.38" style="stroke-width:1.07;stroke:#333;stroke-linecap:butt"/><polyline points="155.73 331.84 155.73 329.1" style="stroke-width:1.07;stroke:#333;stroke-linecap:butt"/><polyline points="205.34 331.84 205.34 329.1" style="stroke-width:1.07;stroke:#333;stroke-linecap:butt"/><polyline points="254.95 331.84 254.95 329.1" style="stroke-width:1.07;stroke:#333;stroke-linecap:butt"/><polyline points="304.56 331.84 304.56 329.1" style="stroke-width:1.07;stroke:#333;stroke-linecap:butt"/><polyline points="354.17 331.84 354.17 329.1" style="stroke-width:1.07;stroke:#333;stroke-linecap:butt"/><polyline points="403.78 331.84 403.78 329.1" style="stroke-width:1.07;stroke:#333;stroke-linecap:butt"/><text x="155.73" y="340.09" text-anchor="middle" style="font-size:8.8px;fill:#4d4d4d;font-family:&quot;Arimo&quot;">0%</text><text x="205.34" y="340.09" text-anchor="middle" style="font-size:8.8px;fill:#4d4d4d;font-family:&quot;Arimo&quot;">10%</text><text x="254.95" y="340.09" text-anchor="middle" style="font-size:8.8px;fill:#4d4d4d;font-family:&quot;Arimo&quot;">20%</text><text x="304.56" y="340.09" text-anchor="middle" style="font-size:8.8px;fill:#4d4d4d;font-family:&quot;Arimo&quot;">30%</text><text x="354.17" y="340.09" text-anchor="middle" style="font-size:8.8px;fill:#4d4d4d;font-family:&quot;Arimo&quot;">40%</text><text x="403.78" y="340.09" text-anchor="middle" style="font-size:8.8px;fill:#4d4d4d;font-family:&quot;Arimo&quot;">50%</text><text x="280.27" y="352.23" text-anchor="middle" style="font-size:11px;font-family:&quot;Arimo&quot;">Percent of responses</text><text text-anchor="middle" transform="translate(13.05,183.07) rotate(-90)" style="font-size:11px;font-family:&quot;Arimo&quot;">Activity</text><text x="433.7" y="166.84" style="font-size:11px;font-family:&quot;Arimo&quot;">Survey Year</text><rect width="15.86" height="15.86" x="434.41" y="174.17" style="stroke-width:1.07;stroke:none;stroke-linecap:butt;stroke-linejoin:miter;fill:#359946"/><rect width="15.86" height="15.86" x="434.41" y="191.45" style="stroke-width:1.07;stroke:none;stroke-linecap:butt;stroke-linejoin:miter;fill:#71c9f1"/><text x="456.46" y="185.13" style="font-size:8.8px;font-family:&quot;Arimo&quot;">2024</text><text x="456.46" y="202.41" style="font-size:8.8px;font-family:&quot;Arimo&quot;">2025</text><text x="143.28" y="14.56" style="font-size:13.2px;font-family:&quot;Arimo&quot;">Which maintenance program-funded activities</text><text x="143.28" y="28.81" style="font-size:13.2px;font-family:&quot;Arimo&quot;">improved usability of GDAL for you?</text></g></g></svg>