<svg xmlns="http://www.w3.org/2000/svg" xmlns:xlink="http://www.w3.org/1999/xlink" width="672" height="480" viewBox="0 0 504 360"><g class="svglite"><defs><style type="text/css">.svglite polyline,.svglite rect{fill:none;stroke:#000;stroke-linecap:round;stroke-linejoin:round;stroke-miterlimit:10}.svglite text{white-space:pre}</style></defs><rect width="100%" height="100%" style="stroke:none;fill:none"/><defs><clipPath id="cpMC4wMHw1MDQuMDB8MC4wMHwzNjAuMDA="><rect width="504" height="360" x="0" y="0"/></clipPath></defs><defs><clipPath id="cpMTU3LjM5fDQ5OC41MnwyMi43OHwzMjkuMTA="><rect width="341.13" height="306.32" x="157.39" y="22.78"/></clipPath></defs><g clip-path="url(#cpMTU3LjM5fDQ5OC41MnwyMi43OHwzMjkuMTA=)"><polyline points="204.96 329.1 204.96 22.78" style="stroke-width:.53;stroke:#fff;stroke-linecap:butt"/><polyline points="269.1 329.1 269.1 22.78" style="stroke-width:.53;stroke:#fff;stroke-linecap:butt"/><polyline points="333.24 329.1 333.24 22.78" style="stroke-width:.53;stroke:#fff;stroke-linecap:butt"/><polyline points="397.38 329.1 397.38 22.78" style="stroke-width:.53;stroke:#fff;stroke-linecap:butt"/><polyline points="461.52 329.1 461.52 22.78" style="stroke-width:.53;stroke:#fff;stroke-linecap:butt"/><polyline points="157.39 314.04 498.52 314.04" style="stroke-width:1.07;stroke:#fff;stroke-linecap:butt"/><polyline points="157.39 288.93 498.52 288.93" style="stroke-width:1.07;stroke:#fff;stroke-linecap:butt"/><polyline points="157.39 263.82 498.52 263.82" style="stroke-width:1.07;stroke:#fff;stroke-linecap:butt"/><polyline points="157.39 238.71 498.52 238.71" style="stroke-width:1.07;stroke:#fff;stroke-linecap:butt"/><polyline points="157.39 213.6 498.52 213.6" style="stroke-width:1.07;stroke:#fff;stroke-linecap:butt"/><polyline points="157.39 188.5 498.52 188.5" style="stroke-width:1.07;stroke:#fff;stroke-linecap:butt"/><polyline points="157.39 163.39 498.52 163.39" style="stroke-width:1.07;stroke:#fff;stroke-linecap:butt"/><polyline points="157.39 138.28 498.52 138.28" style="stroke-width:1.07;stroke:#fff;stroke-linecap:butt"/><polyline points="157.39 113.17 498.52 113.17" style="stroke-width:1.07;stroke:#fff;stroke-linecap:butt"/><polyline points="157.39 88.06 498.52 88.06" style="stroke-width:1.07;stroke:#fff;stroke-linecap:butt"/><polyline points="157.39 62.95 498.52 62.95" style="stroke-width:1.07;stroke:#fff;stroke-linecap:butt"/><polyline points="157.39 37.85 498.52 37.85" style="stroke-width:1.07;stroke:#fff;stroke-linecap:butt"/><polyline points="172.9 329.1 172.9 22.78" style="stroke-width:1.07;stroke:#fff;stroke-linecap:butt"/><polyline points="237.03 329.1 237.03 22.78" style="stroke-width:1.07;stroke:#fff;stroke-linecap:butt"/><polyline points="301.17 329.1 301.17 22.78" style="stroke-width:1.07;stroke:#fff;stroke-linecap:butt"/><polyline points="365.31 329.1 365.31 22.78" style="stroke-width:1.07;stroke:#fff;stroke-linecap:butt"/><polyline points="429.45 329.1 429.45 22.78" style="stroke-width:1.07;stroke:#fff;stroke-linecap:butt"/><polyline points="493.59 329.1 493.59 22.78" style="stroke-width:1.07;stroke:#fff;stroke-linecap:butt"/><rect width="5.64" height="22.6" x="172.9" y="101.87" style="stroke-width:1.07;stroke:none;stroke-linecap:butt;stroke-linejoin:miter;fill:#71c9f1"/><rect width="5.64" height="22.6" x="172.9" y="76.76" style="stroke-width:1.07;stroke:none;stroke-linecap:butt;stroke-linejoin:miter;fill:#71c9f1"/><rect width="169.16" height="22.6" x="172.9" y="252.52" style="stroke-width:1.07;stroke:none;stroke-linecap:butt;stroke-linejoin:miter;fill:#71c9f1"/><rect width="310.12" height="22.6" x="172.9" y="302.74" style="stroke-width:1.07;stroke:none;stroke-linecap:butt;stroke-linejoin:miter;fill:#71c9f1"/><rect width="153.65" height="22.6" x="172.9" y="227.41" style="stroke-width:1.07;stroke:none;stroke-linecap:butt;stroke-linejoin:miter;fill:#71c9f1"/><rect width="180.43" height="22.6" x="172.9" y="277.63" style="stroke-width:1.07;stroke:none;stroke-linecap:butt;stroke-linejoin:miter;fill:#71c9f1"/><rect width="131.1" height="22.6" x="172.9" y="177.2" style="stroke-width:1.07;stroke:none;stroke-linecap:butt;stroke-linejoin:miter;fill:#71c9f1"/><rect width="135.32" height="22.6" x="172.9" y="202.3" style="stroke-width:1.07;stroke:none;stroke-linecap:butt;stroke-linejoin:miter;fill:#71c9f1"/><rect width="35.24" height="22.6" x="172.9" y="152.09" style="stroke-width:1.07;stroke:none;stroke-linecap:butt;stroke-linejoin:miter;fill:#71c9f1"/><rect width="2.82" height="22.6" x="172.9" y="51.66" style="stroke-width:1.07;stroke:none;stroke-linecap:butt;stroke-linejoin:miter;fill:#71c9f1"/><rect width="2.82" height="22.6" x="172.9" y="26.55" style="stroke-width:1.07;stroke:none;stroke-linecap:butt;stroke-linejoin:miter;fill:#71c9f1"/><rect width="11.28" height="22.6" x="172.9" y="126.98" style="stroke-width:1.07;stroke:none;stroke-linecap:butt;stroke-linejoin:miter;fill:#71c9f1"/></g><g clip-path="url(#cpMC4wMHw1MDQuMDB8MC4wMHwzNjAuMDA=)"><text x="152.46" y="317.06" text-anchor="end" style="font-size:8.8px;fill:#4d4d4d;font-family:&quot;Arimo&quot;">GDAL release notes</text><text x="152.46" y="291.96" text-anchor="end" style="font-size:8.8px;fill:#4d4d4d;font-family:&quot;Arimo&quot;">GitHub</text><text x="152.46" y="266.85" text-anchor="end" style="font-size:8.8px;fill:#4d4d4d;font-family:&quot;Arimo&quot;">FOSS4G</text><text x="152.46" y="241.74" text-anchor="end" style="font-size:8.8px;fill:#4d4d4d;font-family:&quot;Arimo&quot;">gdal-dev mailing list</text><text x="152.46" y="216.63" text-anchor="end" style="font-size:8.8px;fill:#4d4d4d;font-family:&quot;Arimo&quot;">Mastodon</text><text x="152.46" y="191.52" text-anchor="end" style="font-size:8.8px;fill:#4d4d4d;font-family:&quot;Arimo&quot;">LinkedIn</text><text x="152.46" y="166.41" text-anchor="end" style="font-size:8.8px;fill:#4d4d4d;font-family:&quot;Arimo&quot;">Other</text><text x="152.46" y="141.31" text-anchor="end" style="font-size:8.8px;fill:#4d4d4d;font-family:&quot;Arimo&quot;">X (defunct) – https://x.com/gdalorg</text><text x="152.46" y="116.2" text-anchor="end" style="font-size:8.8px;fill:#4d4d4d;font-family:&quot;Arimo&quot;">Bluesky</text><text x="152.46" y="91.09" text-anchor="end" style="font-size:8.8px;fill:#4d4d4d;font-family:&quot;Arimo&quot;">Coworkers</text><text x="152.46" y="65.98" text-anchor="end" style="font-size:8.8px;fill:#4d4d4d;font-family:&quot;Arimo&quot;">R-SIG-Geo mailing list</text><text x="152.46" y="40.87" text-anchor="end" style="font-size:8.8px;fill:#4d4d4d;font-family:&quot;Arimo&quot;">Slack: Spatial Community</text><polyline points="154.65 314.04 157.39 314.04" style="stroke-width:1.07;stroke:#333;stroke-linecap:butt"/><polyline points="154.65 288.93 157.39 288.93" style="stroke-width:1.07;stroke:#333;stroke-linecap:butt"/><polyline points="154.65 263.82 157.39 263.82" style="stroke-width:1.07;stroke:#333;stroke-linecap:butt"/><polyline points="154.65 238.71 157.39 238.71" style="stroke-width:1.07;stroke:#333;stroke-linecap:butt"/><polyline points="154.65 213.6 157.39 213.6" style="stroke-width:1.07;stroke:#333;stroke-linecap:butt"/><polyline points="154.65 188.5 157.39 188.5" style="stroke-width:1.07;stroke:#333;stroke-linecap:butt"/><polyline points="154.65 163.39 157.39 163.39" style="stroke-width:1.07;stroke:#333;stroke-linecap:butt"/><polyline points="154.65 138.28 157.39 138.28" style="stroke-width:1.07;stroke:#333;stroke-linecap:butt"/><polyline points="154.65 113.17 157.39 113.17" style="stroke-width:1.07;stroke:#333;stroke-linecap:butt"/><polyline points="154.65 88.06 157.39 88.06" style="stroke-width:1.07;stroke:#333;stroke-linecap:butt"/><polyline points="154.65 62.95 157.39 62.95" style="stroke-width:1.07;stroke:#333;stroke-linecap:butt"/><polyline points="154.65 37.85 157.39 37.85" style="stroke-width:1.07;stroke:#333;stroke-linecap:butt"/><polyline points="172.9 331.84 172.9 329.1" style="stroke-width:1.07;stroke:#333;stroke-linecap:butt"/><polyline points="237.03 331.84 237.03 329.1" style="stroke-width:1.07;stroke:#333;stroke-linecap:butt"/><polyline points="301.17 331.84 301.17 329.1" style="stroke-width:1.07;stroke:#333;stroke-linecap:butt"/><polyline points="365.31 331.84 365.31 329.1" style="stroke-width:1.07;stroke:#333;stroke-linecap:butt"/><polyline points="429.45 331.84 429.45 329.1" style="stroke-width:1.07;stroke:#333;stroke-linecap:butt"/><polyline points="493.59 331.84 493.59 329.1" style="stroke-width:1.07;stroke:#333;stroke-linecap:butt"/><text x="172.9" y="340.09" text-anchor="middle" style="font-size:8.8px;fill:#4d4d4d;font-family:&quot;Arimo&quot;">0%</text><text x="237.03" y="340.09" text-anchor="middle" style="font-size:8.8px;fill:#4d4d4d;font-family:&quot;Arimo&quot;">10%</text><text x="301.17" y="340.09" text-anchor="middle" style="font-size:8.8px;fill:#4d4d4d;font-family:&quot;Arimo&quot;">20%</text><text x="365.31" y="340.09" text-anchor="middle" style="font-size:8.8px;fill:#4d4d4d;font-family:&quot;Arimo&quot;">30%</text><text x="429.45" y="340.09" text-anchor="middle" style="font-size:8.8px;fill:#4d4d4d;font-family:&quot;Arimo&quot;">40%</text><text x="493.59" y="340.09" text-anchor="middle" style="font-size:8.8px;fill:#4d4d4d;font-family:&quot;Arimo&quot;">50%</text><text x="327.96" y="352.23" text-anchor="middle" style="font-size:11px;font-family:&quot;Arimo&quot;">Percent of Respondents</text><text text-anchor="middle" transform="translate(13.05,175.94) rotate(-90)" style="font-size:11px;font-family:&quot;Arimo&quot;">Source</text><text x="157.39" y="14.56" style="font-size:13.2px;font-family:&quot;Arimo&quot;">I get my GDAL news from</text></g></g></svg>