<svg xmlns="http://www.w3.org/2000/svg" xmlns:xlink="http://www.w3.org/1999/xlink" width="672" height="480" viewBox="0 0 504 360"><g class="svglite"><defs><style type="text/css">.svglite polyline,.svglite rect{fill:none;stroke:#000;stroke-linecap:round;stroke-linejoin:round;stroke-miterlimit:10}.svglite text{white-space:pre}</style></defs><rect width="100%" height="100%" style="stroke:none;fill:none"/><defs><clipPath id="cpMC4wMHw1MDQuMDB8MC4wMHwzNjAuMDA="><rect width="504" height="360" x="0" y="0"/></clipPath></defs><defs><clipPath id="cpOTEuNDV8NDE3LjI2fDIyLjc4fDMyOS4xMA=="><rect width="325.81" height="306.32" x="91.45" y="22.78"/></clipPath></defs><g clip-path="url(#cpOTEuNDV8NDE3LjI2fDIyLjc4fDMyOS4xMA==)"><polyline points="147.32 329.1 147.32 22.78" style="stroke-width:.53;stroke:#fff;stroke-linecap:butt"/><polyline points="229.43 329.1 229.43 22.78" style="stroke-width:.53;stroke:#fff;stroke-linecap:butt"/><polyline points="311.55 329.1 311.55 22.78" style="stroke-width:.53;stroke:#fff;stroke-linecap:butt"/><polyline points="393.66 329.1 393.66 22.78" style="stroke-width:.53;stroke:#fff;stroke-linecap:butt"/><polyline points="91.45 303.57 417.26 303.57" style="stroke-width:1.07;stroke:#fff;stroke-linecap:butt"/><polyline points="91.45 261.03 417.26 261.03" style="stroke-width:1.07;stroke:#fff;stroke-linecap:butt"/><polyline points="91.45 218.49 417.26 218.49" style="stroke-width:1.07;stroke:#fff;stroke-linecap:butt"/><polyline points="91.45 175.94 417.26 175.94" style="stroke-width:1.07;stroke:#fff;stroke-linecap:butt"/><polyline points="91.45 133.4 417.26 133.4" style="stroke-width:1.07;stroke:#fff;stroke-linecap:butt"/><polyline points="91.45 90.85 417.26 90.85" style="stroke-width:1.07;stroke:#fff;stroke-linecap:butt"/><polyline points="91.45 48.31 417.26 48.31" style="stroke-width:1.07;stroke:#fff;stroke-linecap:butt"/><polyline points="106.26 329.1 106.26 22.78" style="stroke-width:1.07;stroke:#fff;stroke-linecap:butt"/><polyline points="188.38 329.1 188.38 22.78" style="stroke-width:1.07;stroke:#fff;stroke-linecap:butt"/><polyline points="270.49 329.1 270.49 22.78" style="stroke-width:1.07;stroke:#fff;stroke-linecap:butt"/><polyline points="352.6 329.1 352.6 22.78" style="stroke-width:1.07;stroke:#fff;stroke-linecap:butt"/><rect width="5.61" height="19.15" x="106.26" y="114.25" style="stroke-width:1.07;stroke:none;stroke-linecap:butt;stroke-linejoin:miter;fill:#359946"/><rect width="295.39" height="19.15" x="106.26" y="284.43" style="stroke-width:1.07;stroke:none;stroke-linecap:butt;stroke-linejoin:miter;fill:#359946"/><rect width="9.53" height="19.15" x="106.26" y="241.89" style="stroke-width:1.07;stroke:none;stroke-linecap:butt;stroke-linejoin:miter;fill:#359946"/><rect width="2.24" height="19.15" x="106.26" y="71.71" style="stroke-width:1.07;stroke:none;stroke-linecap:butt;stroke-linejoin:miter;fill:#359946"/><rect width="9.53" height="19.15" x="106.26" y="199.34" style="stroke-width:1.07;stroke:none;stroke-linecap:butt;stroke-linejoin:miter;fill:#359946"/><rect width="5.61" height="19.15" x="106.26" y="156.8" style="stroke-width:1.07;stroke:none;stroke-linecap:butt;stroke-linejoin:miter;fill:#359946"/><rect width=".56" height="19.15" x="106.26" y="29.16" style="stroke-width:1.07;stroke:none;stroke-linecap:butt;stroke-linejoin:miter;fill:#359946"/><rect width="3.46" height="19.15" x="106.26" y="133.4" style="stroke-width:1.07;stroke:none;stroke-linecap:butt;stroke-linejoin:miter;fill:#71c9f1"/><rect width="296.19" height="19.15" x="106.26" y="303.57" style="stroke-width:1.07;stroke:none;stroke-linecap:butt;stroke-linejoin:miter;fill:#71c9f1"/><rect width="10.37" height="19.15" x="106.26" y="261.03" style="stroke-width:1.07;stroke:none;stroke-linecap:butt;stroke-linejoin:miter;fill:#71c9f1"/><rect width="4.03" height="19.15" x="106.26" y="90.85" style="stroke-width:1.07;stroke:none;stroke-linecap:butt;stroke-linejoin:miter;fill:#71c9f1"/><rect width="4.61" height="19.15" x="106.26" y="218.49" style="stroke-width:1.07;stroke:none;stroke-linecap:butt;stroke-linejoin:miter;fill:#71c9f1"/><rect width="5.19" height="19.15" x="106.26" y="175.94" style="stroke-width:1.07;stroke:none;stroke-linecap:butt;stroke-linejoin:miter;fill:#71c9f1"/><rect width="4.61" height="19.15" x="106.26" y="48.31" style="stroke-width:1.07;stroke:none;stroke-linecap:butt;stroke-linejoin:miter;fill:#71c9f1"/></g><g clip-path="url(#cpMC4wMHw1MDQuMDB8MC4wMHwzNjAuMDA=)"><text x="86.52" y="306.6" text-anchor="end" style="font-size:8.8px;fill:#4d4d4d;font-family:&quot;Arimo&quot;">GeoTIFF / COG</text><text x="86.52" y="264.06" text-anchor="end" style="font-size:8.8px;fill:#4d4d4d;font-family:&quot;Arimo&quot;">HDF/NetCDF</text><text x="86.52" y="221.51" text-anchor="end" style="font-size:8.8px;fill:#4d4d4d;font-family:&quot;Arimo&quot;">Other</text><text x="86.52" y="178.97" text-anchor="end" style="font-size:8.8px;fill:#4d4d4d;font-family:&quot;Arimo&quot;">Rendered tilesets</text><text x="86.52" y="136.42" text-anchor="end" style="font-size:8.8px;fill:#4d4d4d;font-family:&quot;Arimo&quot;">GeoPackage</text><text x="86.52" y="93.88" text-anchor="end" style="font-size:8.8px;fill:#4d4d4d;font-family:&quot;Arimo&quot;">JPEG/JPEG2000</text><text x="86.52" y="51.34" text-anchor="end" style="font-size:8.8px;fill:#4d4d4d;font-family:&quot;Arimo&quot;">Zarr</text><polyline points="88.71 303.57 91.45 303.57" style="stroke-width:1.07;stroke:#333;stroke-linecap:butt"/><polyline points="88.71 261.03 91.45 261.03" style="stroke-width:1.07;stroke:#333;stroke-linecap:butt"/><polyline points="88.71 218.49 91.45 218.49" style="stroke-width:1.07;stroke:#333;stroke-linecap:butt"/><polyline points="88.71 175.94 91.45 175.94" style="stroke-width:1.07;stroke:#333;stroke-linecap:butt"/><polyline points="88.71 133.4 91.45 133.4" style="stroke-width:1.07;stroke:#333;stroke-linecap:butt"/><polyline points="88.71 90.85 91.45 90.85" style="stroke-width:1.07;stroke:#333;stroke-linecap:butt"/><polyline points="88.71 48.31 91.45 48.31" style="stroke-width:1.07;stroke:#333;stroke-linecap:butt"/><polyline points="106.26 331.84 106.26 329.1" style="stroke-width:1.07;stroke:#333;stroke-linecap:butt"/><polyline points="188.38 331.84 188.38 329.1" style="stroke-width:1.07;stroke:#333;stroke-linecap:butt"/><polyline points="270.49 331.84 270.49 329.1" style="stroke-width:1.07;stroke:#333;stroke-linecap:butt"/><polyline points="352.6 331.84 352.6 329.1" style="stroke-width:1.07;stroke:#333;stroke-linecap:butt"/><text x="106.26" y="340.09" text-anchor="middle" style="font-size:8.8px;fill:#4d4d4d;font-family:&quot;Arimo&quot;">0%</text><text x="188.38" y="340.09" text-anchor="middle" style="font-size:8.8px;fill:#4d4d4d;font-family:&quot;Arimo&quot;">25%</text><text x="270.49" y="340.09" text-anchor="middle" style="font-size:8.8px;fill:#4d4d4d;font-family:&quot;Arimo&quot;">50%</text><text x="352.6" y="340.09" text-anchor="middle" style="font-size:8.8px;fill:#4d4d4d;font-family:&quot;Arimo&quot;">75%</text><text x="254.36" y="352.23" text-anchor="middle" style="font-size:11px;font-family:&quot;Arimo&quot;">Percent of Respondents</text><text text-anchor="middle" transform="translate(13.05,175.94) rotate(-90)" style="font-size:11px;font-family:&quot;Arimo&quot;">Format</text><text x="433.7" y="159.71" style="font-size:11px;font-family:&quot;Arimo&quot;">Survey Year</text><rect width="15.86" height="15.86" x="434.41" y="167.04" style="stroke-width:1.07;stroke:none;stroke-linecap:butt;stroke-linejoin:miter;fill:#359946"/><rect width="15.86" height="15.86" x="434.41" y="184.32" style="stroke-width:1.07;stroke:none;stroke-linecap:butt;stroke-linejoin:miter;fill:#71c9f1"/><text x="456.46" y="178" style="font-size:8.8px;font-family:&quot;Arimo&quot;">2024</text><text x="456.46" y="195.28" style="font-size:8.8px;font-family:&quot;Arimo&quot;">2025</text><text x="91.45" y="14.56" style="font-size:13.2px;font-family:&quot;Arimo&quot;">Most common raster format usage</text></g></g></svg>