<svg xmlns="http://www.w3.org/2000/svg" xmlns:xlink="http://www.w3.org/1999/xlink" width="672" height="480" viewBox="0 0 504 360"><g class="svglite"><defs><style type="text/css">.svglite polyline,.svglite rect{fill:none;stroke:#000;stroke-linecap:round;stroke-linejoin:round;stroke-miterlimit:10}.svglite text{white-space:pre}</style></defs><rect width="100%" height="100%" style="stroke:none;fill:none"/><defs><clipPath id="cpMC4wMHw1MDQuMDB8MC4wMHwzNjAuMDA="><rect width="504" height="360" x="0" y="0"/></clipPath></defs><defs><clipPath id="cpOTEuNDV8NDk4LjUyfDIyLjc4fDMyOS4xMA=="><rect width="407.07" height="306.32" x="91.45" y="22.78"/></clipPath></defs><g clip-path="url(#cpOTEuNDV8NDk4LjUyfDIyLjc4fDMyOS4xMA==)"><polyline points="155.86 329.1 155.86 22.78" style="stroke-width:.53;stroke:#fff;stroke-linecap:butt"/><polyline points="247.66 329.1 247.66 22.78" style="stroke-width:.53;stroke:#fff;stroke-linecap:butt"/><polyline points="339.46 329.1 339.46 22.78" style="stroke-width:.53;stroke:#fff;stroke-linecap:butt"/><polyline points="431.26 329.1 431.26 22.78" style="stroke-width:.53;stroke:#fff;stroke-linecap:butt"/><polyline points="91.45 306.69 498.52 306.69" style="stroke-width:1.07;stroke:#fff;stroke-linecap:butt"/><polyline points="91.45 269.33 498.52 269.33" style="stroke-width:1.07;stroke:#fff;stroke-linecap:butt"/><polyline points="91.45 231.98 498.52 231.98" style="stroke-width:1.07;stroke:#fff;stroke-linecap:butt"/><polyline points="91.45 194.62 498.52 194.62" style="stroke-width:1.07;stroke:#fff;stroke-linecap:butt"/><polyline points="91.45 157.26 498.52 157.26" style="stroke-width:1.07;stroke:#fff;stroke-linecap:butt"/><polyline points="91.45 119.91 498.52 119.91" style="stroke-width:1.07;stroke:#fff;stroke-linecap:butt"/><polyline points="91.45 82.55 498.52 82.55" style="stroke-width:1.07;stroke:#fff;stroke-linecap:butt"/><polyline points="91.45 45.19 498.52 45.19" style="stroke-width:1.07;stroke:#fff;stroke-linecap:butt"/><polyline points="109.96 329.1 109.96 22.78" style="stroke-width:1.07;stroke:#fff;stroke-linecap:butt"/><polyline points="201.76 329.1 201.76 22.78" style="stroke-width:1.07;stroke:#fff;stroke-linecap:butt"/><polyline points="293.56 329.1 293.56 22.78" style="stroke-width:1.07;stroke:#fff;stroke-linecap:butt"/><polyline points="385.36 329.1 385.36 22.78" style="stroke-width:1.07;stroke:#fff;stroke-linecap:butt"/><polyline points="477.16 329.1 477.16 22.78" style="stroke-width:1.07;stroke:#fff;stroke-linecap:butt"/><rect width="160.28" height="33.62" x="109.96" y="215.17" style="stroke-width:1.07;stroke:none;stroke-linecap:butt;stroke-linejoin:miter;fill:#71c9f1"/><rect width="370.06" height="33.62" x="109.96" y="289.88" style="stroke-width:1.07;stroke:none;stroke-linecap:butt;stroke-linejoin:miter;fill:#71c9f1"/><rect width="141.82" height="33.62" x="109.96" y="177.81" style="stroke-width:1.07;stroke:none;stroke-linecap:butt;stroke-linejoin:miter;fill:#71c9f1"/><rect width="93.98" height="33.62" x="109.96" y="103.1" style="stroke-width:1.07;stroke:none;stroke-linecap:butt;stroke-linejoin:miter;fill:#71c9f1"/><rect width="30.21" height="33.62" x="109.96" y="65.74" style="stroke-width:1.07;stroke:none;stroke-linecap:butt;stroke-linejoin:miter;fill:#71c9f1"/><rect width="2.52" height="33.62" x="109.96" y="28.38" style="stroke-width:1.07;stroke:none;stroke-linecap:butt;stroke-linejoin:miter;fill:#71c9f1"/><rect width="105.73" height="33.62" x="109.96" y="140.45" style="stroke-width:1.07;stroke:none;stroke-linecap:butt;stroke-linejoin:miter;fill:#71c9f1"/><rect width="166.15" height="33.62" x="109.96" y="252.52" style="stroke-width:1.07;stroke:none;stroke-linecap:butt;stroke-linejoin:miter;fill:#71c9f1"/></g><g clip-path="url(#cpMC4wMHw1MDQuMDB8MC4wMHwzNjAuMDA=)"><text x="86.52" y="309.72" text-anchor="end" style="font-size:8.8px;fill:#4d4d4d;font-family:&quot;Arimo&quot;">GeoTIFF / COG</text><text x="86.52" y="272.36" text-anchor="end" style="font-size:8.8px;fill:#4d4d4d;font-family:&quot;Arimo&quot;">Zarr</text><text x="86.52" y="235" text-anchor="end" style="font-size:8.8px;fill:#4d4d4d;font-family:&quot;Arimo&quot;">GeoPackage</text><text x="86.52" y="197.65" text-anchor="end" style="font-size:8.8px;fill:#4d4d4d;font-family:&quot;Arimo&quot;">HDF/NetCDF</text><text x="86.52" y="160.29" text-anchor="end" style="font-size:8.8px;fill:#4d4d4d;font-family:&quot;Arimo&quot;">Rendered tilesets</text><text x="86.52" y="122.93" text-anchor="end" style="font-size:8.8px;fill:#4d4d4d;font-family:&quot;Arimo&quot;">JPEG/JPEG2000</text><text x="86.52" y="85.58" text-anchor="end" style="font-size:8.8px;fill:#4d4d4d;font-family:&quot;Arimo&quot;">Other</text><text x="86.52" y="48.22" text-anchor="end" style="font-size:8.8px;fill:#4d4d4d;font-family:&quot;Arimo&quot;">PNG</text><polyline points="88.71 306.69 91.45 306.69" style="stroke-width:1.07;stroke:#333;stroke-linecap:butt"/><polyline points="88.71 269.33 91.45 269.33" style="stroke-width:1.07;stroke:#333;stroke-linecap:butt"/><polyline points="88.71 231.98 91.45 231.98" style="stroke-width:1.07;stroke:#333;stroke-linecap:butt"/><polyline points="88.71 194.62 91.45 194.62" style="stroke-width:1.07;stroke:#333;stroke-linecap:butt"/><polyline points="88.71 157.26 91.45 157.26" style="stroke-width:1.07;stroke:#333;stroke-linecap:butt"/><polyline points="88.71 119.91 91.45 119.91" style="stroke-width:1.07;stroke:#333;stroke-linecap:butt"/><polyline points="88.71 82.55 91.45 82.55" style="stroke-width:1.07;stroke:#333;stroke-linecap:butt"/><polyline points="88.71 45.19 91.45 45.19" style="stroke-width:1.07;stroke:#333;stroke-linecap:butt"/><polyline points="109.96 331.84 109.96 329.1" style="stroke-width:1.07;stroke:#333;stroke-linecap:butt"/><polyline points="201.76 331.84 201.76 329.1" style="stroke-width:1.07;stroke:#333;stroke-linecap:butt"/><polyline points="293.56 331.84 293.56 329.1" style="stroke-width:1.07;stroke:#333;stroke-linecap:butt"/><polyline points="385.36 331.84 385.36 329.1" style="stroke-width:1.07;stroke:#333;stroke-linecap:butt"/><polyline points="477.16 331.84 477.16 329.1" style="stroke-width:1.07;stroke:#333;stroke-linecap:butt"/><text x="109.96" y="340.09" text-anchor="middle" style="font-size:8.8px;fill:#4d4d4d;font-family:&quot;Arimo&quot;">0%</text><text x="201.76" y="340.09" text-anchor="middle" style="font-size:8.8px;fill:#4d4d4d;font-family:&quot;Arimo&quot;">20%</text><text x="293.56" y="340.09" text-anchor="middle" style="font-size:8.8px;fill:#4d4d4d;font-family:&quot;Arimo&quot;">40%</text><text x="385.36" y="340.09" text-anchor="middle" style="font-size:8.8px;fill:#4d4d4d;font-family:&quot;Arimo&quot;">60%</text><text x="477.16" y="340.09" text-anchor="middle" style="font-size:8.8px;fill:#4d4d4d;font-family:&quot;Arimo&quot;">80%</text><text x="294.99" y="352.23" text-anchor="middle" style="font-size:11px;font-family:&quot;Arimo&quot;">Percent of Respondents</text><text text-anchor="middle" transform="translate(13.05,175.94) rotate(-90)" style="font-size:11px;font-family:&quot;Arimo&quot;">Format</text><text x="91.45" y="14.56" style="font-size:13.2px;font-family:&quot;Arimo&quot;">Raster formats I plan to use in the future</text></g></g></svg>