<svg xmlns="http://www.w3.org/2000/svg" xmlns:xlink="http://www.w3.org/1999/xlink" width="672" height="480" viewBox="0 0 504 360"><g class="svglite"><defs><style type="text/css">.svglite polyline,.svglite rect{fill:none;stroke:#000;stroke-linecap:round;stroke-linejoin:round;stroke-miterlimit:10}.svglite text{white-space:pre}</style></defs><rect width="100%" height="100%" style="stroke:none;fill:none"/><defs><clipPath id="cpMC4wMHw1MDQuMDB8MC4wMHwzNjAuMDA="><rect width="504" height="360" x="0" y="0"/></clipPath></defs><defs><clipPath id="cpMTA3LjU5fDQxNy4yNnwyMi43OHwzMjkuMTA="><rect width="309.67" height="306.32" x="107.59" y="22.78"/></clipPath></defs><g clip-path="url(#cpMTA3LjU5fDQxNy4yNnwyMi43OHwzMjkuMTA=)"><polyline points="162.01 329.1 162.01 22.78" style="stroke-width:.53;stroke:#fff;stroke-linecap:butt"/><polyline points="242.71 329.1 242.71 22.78" style="stroke-width:.53;stroke:#fff;stroke-linecap:butt"/><polyline points="323.4 329.1 323.4 22.78" style="stroke-width:.53;stroke:#fff;stroke-linecap:butt"/><polyline points="404.09 329.1 404.09 22.78" style="stroke-width:.53;stroke:#fff;stroke-linecap:butt"/><polyline points="107.59 311.08 417.26 311.08" style="stroke-width:1.07;stroke:#fff;stroke-linecap:butt"/><polyline points="107.59 281.05 417.26 281.05" style="stroke-width:1.07;stroke:#fff;stroke-linecap:butt"/><polyline points="107.59 251.02 417.26 251.02" style="stroke-width:1.07;stroke:#fff;stroke-linecap:butt"/><polyline points="107.59 220.99 417.26 220.99" style="stroke-width:1.07;stroke:#fff;stroke-linecap:butt"/><polyline points="107.59 190.96 417.26 190.96" style="stroke-width:1.07;stroke:#fff;stroke-linecap:butt"/><polyline points="107.59 160.93 417.26 160.93" style="stroke-width:1.07;stroke:#fff;stroke-linecap:butt"/><polyline points="107.59 130.89 417.26 130.89" style="stroke-width:1.07;stroke:#fff;stroke-linecap:butt"/><polyline points="107.59 100.86 417.26 100.86" style="stroke-width:1.07;stroke:#fff;stroke-linecap:butt"/><polyline points="107.59 70.83 417.26 70.83" style="stroke-width:1.07;stroke:#fff;stroke-linecap:butt"/><polyline points="107.59 40.8 417.26 40.8" style="stroke-width:1.07;stroke:#fff;stroke-linecap:butt"/><polyline points="121.67 329.1 121.67 22.78" style="stroke-width:1.07;stroke:#fff;stroke-linecap:butt"/><polyline points="202.36 329.1 202.36 22.78" style="stroke-width:1.07;stroke:#fff;stroke-linecap:butt"/><polyline points="283.05 329.1 283.05 22.78" style="stroke-width:1.07;stroke:#fff;stroke-linecap:butt"/><polyline points="363.74 329.1 363.74 22.78" style="stroke-width:1.07;stroke:#fff;stroke-linecap:butt"/><rect width="29.27" height="13.51" x="121.67" y="177.44" style="stroke-width:1.07;stroke:none;stroke-linecap:butt;stroke-linejoin:miter;fill:#359946"/><rect width="25.09" height="13.51" x="121.67" y="117.38" style="stroke-width:1.07;stroke:none;stroke-linecap:butt;stroke-linejoin:miter;fill:#359946"/><rect width="12.54" height="13.51" x="121.67" y="87.35" style="stroke-width:1.07;stroke:none;stroke-linecap:butt;stroke-linejoin:miter;fill:#359946"/><rect width="135.18" height="13.51" x="121.67" y="237.51" style="stroke-width:1.07;stroke:none;stroke-linecap:butt;stroke-linejoin:miter;fill:#359946"/><rect width="281.51" height="13.51" x="121.67" y="297.57" style="stroke-width:1.07;stroke:none;stroke-linecap:butt;stroke-linejoin:miter;fill:#359946"/><rect width="2.79" height="13.51" x="121.67" y="57.32" style="stroke-width:1.07;stroke:none;stroke-linecap:butt;stroke-linejoin:miter;fill:#359946"/><rect width="4.18" height="13.51" x="121.67" y="27.29" style="stroke-width:1.07;stroke:none;stroke-linecap:butt;stroke-linejoin:miter;fill:#359946"/><rect width="22.3" height="13.51" x="121.67" y="147.41" style="stroke-width:1.07;stroke:none;stroke-linecap:butt;stroke-linejoin:miter;fill:#359946"/><rect width="115.67" height="13.51" x="121.67" y="207.47" style="stroke-width:1.07;stroke:none;stroke-linecap:butt;stroke-linejoin:miter;fill:#359946"/><rect width="178.39" height="13.51" x="121.67" y="267.54" style="stroke-width:1.07;stroke:none;stroke-linecap:butt;stroke-linejoin:miter;fill:#359946"/><rect width="66.89" height="13.51" x="121.67" y="190.96" style="stroke-width:1.07;stroke:none;stroke-linecap:butt;stroke-linejoin:miter;fill:#71c9f1"/><rect width="20.9" height="13.51" x="121.67" y="130.89" style="stroke-width:1.07;stroke:none;stroke-linecap:butt;stroke-linejoin:miter;fill:#71c9f1"/><rect width="18.12" height="13.51" x="121.67" y="100.86" style="stroke-width:1.07;stroke:none;stroke-linecap:butt;stroke-linejoin:miter;fill:#71c9f1"/><rect width="114.28" height="13.51" x="121.67" y="251.02" style="stroke-width:1.07;stroke:none;stroke-linecap:butt;stroke-linejoin:miter;fill:#71c9f1"/><rect width="253.64" height="13.51" x="121.67" y="311.08" style="stroke-width:1.07;stroke:none;stroke-linecap:butt;stroke-linejoin:miter;fill:#71c9f1"/><rect width="5.57" height="13.51" x="121.67" y="70.83" style="stroke-width:1.07;stroke:none;stroke-linecap:butt;stroke-linejoin:miter;fill:#71c9f1"/><rect width="1.39" height="13.51" x="121.67" y="40.8" style="stroke-width:1.07;stroke:none;stroke-linecap:butt;stroke-linejoin:miter;fill:#71c9f1"/><rect width="26.48" height="13.51" x="121.67" y="160.93" style="stroke-width:1.07;stroke:none;stroke-linecap:butt;stroke-linejoin:miter;fill:#71c9f1"/><rect width="111.49" height="13.51" x="121.67" y="220.99" style="stroke-width:1.07;stroke:none;stroke-linecap:butt;stroke-linejoin:miter;fill:#71c9f1"/><rect width="188.14" height="13.51" x="121.67" y="281.05" style="stroke-width:1.07;stroke:none;stroke-linecap:butt;stroke-linejoin:miter;fill:#71c9f1"/></g><g clip-path="url(#cpMC4wMHw1MDQuMDB8MC4wMHwzNjAuMDA=)"><text x="102.66" y="314.11" text-anchor="end" style="font-size:8.8px;fill:#4d4d4d;font-family:&quot;Arimo&quot;">GeoPackage</text><text x="102.66" y="284.08" text-anchor="end" style="font-size:8.8px;fill:#4d4d4d;font-family:&quot;Arimo&quot;">Shapefile</text><text x="102.66" y="254.05" text-anchor="end" style="font-size:8.8px;fill:#4d4d4d;font-family:&quot;Arimo&quot;">GeoJSON</text><text x="102.66" y="224.02" text-anchor="end" style="font-size:8.8px;fill:#4d4d4d;font-family:&quot;Arimo&quot;">PostGIS</text><text x="102.66" y="193.98" text-anchor="end" style="font-size:8.8px;fill:#4d4d4d;font-family:&quot;Arimo&quot;">(Geo)Parquet</text><text x="102.66" y="163.95" text-anchor="end" style="font-size:8.8px;fill:#4d4d4d;font-family:&quot;Arimo&quot;">Other</text><text x="102.66" y="133.92" text-anchor="end" style="font-size:8.8px;fill:#4d4d4d;font-family:&quot;Arimo&quot;">Esri FileGeodatabase</text><text x="102.66" y="103.89" text-anchor="end" style="font-size:8.8px;fill:#4d4d4d;font-family:&quot;Arimo&quot;">FlatGeobuf</text><text x="102.66" y="73.86" text-anchor="end" style="font-size:8.8px;fill:#4d4d4d;font-family:&quot;Arimo&quot;">GML</text><text x="102.66" y="43.83" text-anchor="end" style="font-size:8.8px;fill:#4d4d4d;font-family:&quot;Arimo&quot;">MapInfo TAB</text><polyline points="104.85 311.08 107.59 311.08" style="stroke-width:1.07;stroke:#333;stroke-linecap:butt"/><polyline points="104.85 281.05 107.59 281.05" style="stroke-width:1.07;stroke:#333;stroke-linecap:butt"/><polyline points="104.85 251.02 107.59 251.02" style="stroke-width:1.07;stroke:#333;stroke-linecap:butt"/><polyline points="104.85 220.99 107.59 220.99" style="stroke-width:1.07;stroke:#333;stroke-linecap:butt"/><polyline points="104.85 190.96 107.59 190.96" style="stroke-width:1.07;stroke:#333;stroke-linecap:butt"/><polyline points="104.85 160.93 107.59 160.93" style="stroke-width:1.07;stroke:#333;stroke-linecap:butt"/><polyline points="104.85 130.89 107.59 130.89" style="stroke-width:1.07;stroke:#333;stroke-linecap:butt"/><polyline points="104.85 100.86 107.59 100.86" style="stroke-width:1.07;stroke:#333;stroke-linecap:butt"/><polyline points="104.85 70.83 107.59 70.83" style="stroke-width:1.07;stroke:#333;stroke-linecap:butt"/><polyline points="104.85 40.8 107.59 40.8" style="stroke-width:1.07;stroke:#333;stroke-linecap:butt"/><polyline points="121.67 331.84 121.67 329.1" style="stroke-width:1.07;stroke:#333;stroke-linecap:butt"/><polyline points="202.36 331.84 202.36 329.1" style="stroke-width:1.07;stroke:#333;stroke-linecap:butt"/><polyline points="283.05 331.84 283.05 329.1" style="stroke-width:1.07;stroke:#333;stroke-linecap:butt"/><polyline points="363.74 331.84 363.74 329.1" style="stroke-width:1.07;stroke:#333;stroke-linecap:butt"/><text x="121.67" y="340.09" text-anchor="middle" style="font-size:8.8px;fill:#4d4d4d;font-family:&quot;Arimo&quot;">0%</text><text x="202.36" y="340.09" text-anchor="middle" style="font-size:8.8px;fill:#4d4d4d;font-family:&quot;Arimo&quot;">10%</text><text x="283.05" y="340.09" text-anchor="middle" style="font-size:8.8px;fill:#4d4d4d;font-family:&quot;Arimo&quot;">20%</text><text x="363.74" y="340.09" text-anchor="middle" style="font-size:8.8px;fill:#4d4d4d;font-family:&quot;Arimo&quot;">30%</text><text x="262.43" y="352.23" text-anchor="middle" style="font-size:11px;font-family:&quot;Arimo&quot;">Percent of Respondents</text><text text-anchor="middle" transform="translate(13.05,175.94) rotate(-90)" style="font-size:11px;font-family:&quot;Arimo&quot;">Format</text><text x="433.7" y="159.71" style="font-size:11px;font-family:&quot;Arimo&quot;">Survey Year</text><rect width="15.86" height="15.86" x="434.41" y="167.04" style="stroke-width:1.07;stroke:none;stroke-linecap:butt;stroke-linejoin:miter;fill:#359946"/><rect width="15.86" height="15.86" x="434.41" y="184.32" style="stroke-width:1.07;stroke:none;stroke-linecap:butt;stroke-linejoin:miter;fill:#71c9f1"/><text x="456.46" y="178" style="font-size:8.8px;font-family:&quot;Arimo&quot;">2024</text><text x="456.46" y="195.28" style="font-size:8.8px;font-family:&quot;Arimo&quot;">2025</text><text x="107.59" y="14.56" style="font-size:13.2px;font-family:&quot;Arimo&quot;">Most common vector format usage</text></g></g></svg>