<svg xmlns="http://www.w3.org/2000/svg" xmlns:xlink="http://www.w3.org/1999/xlink" width="672" height="480" viewBox="0 0 504 360"><g class="svglite"><defs><style type="text/css">.svglite polyline,.svglite rect{fill:none;stroke:#000;stroke-linecap:round;stroke-linejoin:round;stroke-miterlimit:10}.svglite text{white-space:pre}</style></defs><rect width="100%" height="100%" style="stroke:none;fill:none"/><defs><clipPath id="cpMC4wMHw1MDQuMDB8MC4wMHwzNjAuMDA="><rect width="504" height="360" x="0" y="0"/></clipPath></defs><defs><clipPath id="cpMTA3LjU5fDQ5OC41MnwyMi43OHwzMjkuMTA="><rect width="390.93" height="306.32" x="107.59" y="22.78"/></clipPath></defs><g clip-path="url(#cpMTA3LjU5fDQ5OC41MnwyMi43OHwzMjkuMTA=)"><polyline points="178.58 329.1 178.58 22.78" style="stroke-width:.53;stroke:#fff;stroke-linecap:butt"/><polyline points="285.01 329.1 285.01 22.78" style="stroke-width:.53;stroke:#fff;stroke-linecap:butt"/><polyline points="391.44 329.1 391.44 22.78" style="stroke-width:.53;stroke:#fff;stroke-linecap:butt"/><polyline points="497.87 329.1 497.87 22.78" style="stroke-width:.53;stroke:#fff;stroke-linecap:butt"/><polyline points="107.59 320 498.52 320" style="stroke-width:1.07;stroke:#fff;stroke-linecap:butt"/><polyline points="107.59 304.84 498.52 304.84" style="stroke-width:1.07;stroke:#fff;stroke-linecap:butt"/><polyline points="107.59 289.67 498.52 289.67" style="stroke-width:1.07;stroke:#fff;stroke-linecap:butt"/><polyline points="107.59 274.51 498.52 274.51" style="stroke-width:1.07;stroke:#fff;stroke-linecap:butt"/><polyline points="107.59 259.35 498.52 259.35" style="stroke-width:1.07;stroke:#fff;stroke-linecap:butt"/><polyline points="107.59 244.18 498.52 244.18" style="stroke-width:1.07;stroke:#fff;stroke-linecap:butt"/><polyline points="107.59 229.02 498.52 229.02" style="stroke-width:1.07;stroke:#fff;stroke-linecap:butt"/><polyline points="107.59 213.85 498.52 213.85" style="stroke-width:1.07;stroke:#fff;stroke-linecap:butt"/><polyline points="107.59 198.69 498.52 198.69" style="stroke-width:1.07;stroke:#fff;stroke-linecap:butt"/><polyline points="107.59 183.52 498.52 183.52" style="stroke-width:1.07;stroke:#fff;stroke-linecap:butt"/><polyline points="107.59 168.36 498.52 168.36" style="stroke-width:1.07;stroke:#fff;stroke-linecap:butt"/><polyline points="107.59 153.19 498.52 153.19" style="stroke-width:1.07;stroke:#fff;stroke-linecap:butt"/><polyline points="107.59 138.03 498.52 138.03" style="stroke-width:1.07;stroke:#fff;stroke-linecap:butt"/><polyline points="107.59 122.87 498.52 122.87" style="stroke-width:1.07;stroke:#fff;stroke-linecap:butt"/><polyline points="107.59 107.7 498.52 107.7" style="stroke-width:1.07;stroke:#fff;stroke-linecap:butt"/><polyline points="107.59 92.54 498.52 92.54" style="stroke-width:1.07;stroke:#fff;stroke-linecap:butt"/><polyline points="107.59 77.37 498.52 77.37" style="stroke-width:1.07;stroke:#fff;stroke-linecap:butt"/><polyline points="107.59 62.21 498.52 62.21" style="stroke-width:1.07;stroke:#fff;stroke-linecap:butt"/><polyline points="107.59 47.04 498.52 47.04" style="stroke-width:1.07;stroke:#fff;stroke-linecap:butt"/><polyline points="107.59 31.88 498.52 31.88" style="stroke-width:1.07;stroke:#fff;stroke-linecap:butt"/><polyline points="125.36 329.1 125.36 22.78" style="stroke-width:1.07;stroke:#fff;stroke-linecap:butt"/><polyline points="231.79 329.1 231.79 22.78" style="stroke-width:1.07;stroke:#fff;stroke-linecap:butt"/><polyline points="338.22 329.1 338.22 22.78" style="stroke-width:1.07;stroke:#fff;stroke-linecap:butt"/><polyline points="444.65 329.1 444.65 22.78" style="stroke-width:1.07;stroke:#fff;stroke-linecap:butt"/><rect width="2.81" height="13.65" x="125.36" y="146.37" style="stroke-width:1.07;stroke:none;stroke-linecap:butt;stroke-linejoin:miter;fill:#71c9f1"/><rect width="1.87" height="13.65" x="125.36" y="116.04" style="stroke-width:1.07;stroke:none;stroke-linecap:butt;stroke-linejoin:miter;fill:#71c9f1"/><rect width="1.87" height="13.65" x="125.36" y="100.88" style="stroke-width:1.07;stroke:none;stroke-linecap:butt;stroke-linejoin:miter;fill:#71c9f1"/><rect width="94.46" height="13.65" x="125.36" y="237.36" style="stroke-width:1.07;stroke:none;stroke-linecap:butt;stroke-linejoin:miter;fill:#71c9f1"/><rect width="18.7" height="13.65" x="125.36" y="191.86" style="stroke-width:1.07;stroke:none;stroke-linecap:butt;stroke-linejoin:miter;fill:#71c9f1"/><rect width="295.53" height="13.65" x="125.36" y="298.01" style="stroke-width:1.07;stroke:none;stroke-linecap:butt;stroke-linejoin:miter;fill:#71c9f1"/><rect width="355.39" height="13.65" x="125.36" y="313.18" style="stroke-width:1.07;stroke:none;stroke-linecap:butt;stroke-linejoin:miter;fill:#71c9f1"/><rect width="274.96" height="13.65" x="125.36" y="282.85" style="stroke-width:1.07;stroke:none;stroke-linecap:butt;stroke-linejoin:miter;fill:#71c9f1"/><rect width="48.63" height="13.65" x="125.36" y="222.19" style="stroke-width:1.07;stroke:none;stroke-linecap:butt;stroke-linejoin:miter;fill:#71c9f1"/><rect width="1.87" height="13.65" x="125.36" y="85.71" style="stroke-width:1.07;stroke:none;stroke-linecap:butt;stroke-linejoin:miter;fill:#71c9f1"/><rect width="1.87" height="13.65" x="125.36" y="70.55" style="stroke-width:1.07;stroke:none;stroke-linecap:butt;stroke-linejoin:miter;fill:#71c9f1"/><rect width="1.87" height="13.65" x="125.36" y="55.38" style="stroke-width:1.07;stroke:none;stroke-linecap:butt;stroke-linejoin:miter;fill:#71c9f1"/><rect width="3.74" height="13.65" x="125.36" y="161.54" style="stroke-width:1.07;stroke:none;stroke-linecap:butt;stroke-linejoin:miter;fill:#71c9f1"/><rect width="1.87" height="13.65" x="125.36" y="40.22" style="stroke-width:1.07;stroke:none;stroke-linecap:butt;stroke-linejoin:miter;fill:#71c9f1"/><rect width="19.64" height="13.65" x="125.36" y="207.03" style="stroke-width:1.07;stroke:none;stroke-linecap:butt;stroke-linejoin:miter;fill:#71c9f1"/><rect width="4.68" height="13.65" x="125.36" y="176.7" style="stroke-width:1.07;stroke:none;stroke-linecap:butt;stroke-linejoin:miter;fill:#71c9f1"/><rect width="244.1" height="13.65" x="125.36" y="267.69" style="stroke-width:1.07;stroke:none;stroke-linecap:butt;stroke-linejoin:miter;fill:#71c9f1"/><rect width="232.87" height="13.65" x="125.36" y="252.52" style="stroke-width:1.07;stroke:none;stroke-linecap:butt;stroke-linejoin:miter;fill:#71c9f1"/><rect width="2.81" height="13.65" x="125.36" y="131.21" style="stroke-width:1.07;stroke:none;stroke-linecap:butt;stroke-linejoin:miter;fill:#71c9f1"/><rect width="1.87" height="13.65" x="125.36" y="25.06" style="stroke-width:1.07;stroke:none;stroke-linecap:butt;stroke-linejoin:miter;fill:#71c9f1"/></g><g clip-path="url(#cpMC4wMHw1MDQuMDB8MC4wMHwzNjAuMDA=)"><text x="102.66" y="323.03" text-anchor="end" style="font-size:8.8px;fill:#4d4d4d;font-family:&quot;Arimo&quot;">GeoPackage</text><text x="102.66" y="307.87" text-anchor="end" style="font-size:8.8px;fill:#4d4d4d;font-family:&quot;Arimo&quot;">GeoJSON</text><text x="102.66" y="292.7" text-anchor="end" style="font-size:8.8px;fill:#4d4d4d;font-family:&quot;Arimo&quot;">GeoParquet</text><text x="102.66" y="277.54" text-anchor="end" style="font-size:8.8px;fill:#4d4d4d;font-family:&quot;Arimo&quot;">PostGIS</text><text x="102.66" y="262.37" text-anchor="end" style="font-size:8.8px;fill:#4d4d4d;font-family:&quot;Arimo&quot;">Shapefile</text><text x="102.66" y="247.21" text-anchor="end" style="font-size:8.8px;fill:#4d4d4d;font-family:&quot;Arimo&quot;">Esri FileGeodatabase</text><text x="102.66" y="232.04" text-anchor="end" style="font-size:8.8px;fill:#4d4d4d;font-family:&quot;Arimo&quot;">GML</text><text x="102.66" y="216.88" text-anchor="end" style="font-size:8.8px;fill:#4d4d4d;font-family:&quot;Arimo&quot;">Other</text><text x="102.66" y="201.72" text-anchor="end" style="font-size:8.8px;fill:#4d4d4d;font-family:&quot;Arimo&quot;">FlatGeoBuf</text><text x="102.66" y="186.55" text-anchor="end" style="font-size:8.8px;fill:#4d4d4d;font-family:&quot;Arimo&quot;">PMTiles</text><text x="102.66" y="171.39" text-anchor="end" style="font-size:8.8px;fill:#4d4d4d;font-family:&quot;Arimo&quot;">MVT</text><text x="102.66" y="156.22" text-anchor="end" style="font-size:8.8px;fill:#4d4d4d;font-family:&quot;Arimo&quot;">CSV</text><text x="102.66" y="141.06" text-anchor="end" style="font-size:8.8px;fill:#4d4d4d;font-family:&quot;Arimo&quot;">Spatialite</text><text x="102.66" y="125.89" text-anchor="end" style="font-size:8.8px;fill:#4d4d4d;font-family:&quot;Arimo&quot;">DuckDB</text><text x="102.66" y="110.73" text-anchor="end" style="font-size:8.8px;fill:#4d4d4d;font-family:&quot;Arimo&quot;">DWG/DXF</text><text x="102.66" y="95.56" text-anchor="end" style="font-size:8.8px;fill:#4d4d4d;font-family:&quot;Arimo&quot;">KML</text><text x="102.66" y="80.4" text-anchor="end" style="font-size:8.8px;fill:#4d4d4d;font-family:&quot;Arimo&quot;">MapLibre Tiles</text><text x="102.66" y="65.24" text-anchor="end" style="font-size:8.8px;fill:#4d4d4d;font-family:&quot;Arimo&quot;">MiraMon</text><text x="102.66" y="50.07" text-anchor="end" style="font-size:8.8px;fill:#4d4d4d;font-family:&quot;Arimo&quot;">Oracle</text><text x="102.66" y="34.91" text-anchor="end" style="font-size:8.8px;fill:#4d4d4d;font-family:&quot;Arimo&quot;">TopoJSON</text><polyline points="104.85 320 107.59 320" style="stroke-width:1.07;stroke:#333;stroke-linecap:butt"/><polyline points="104.85 304.84 107.59 304.84" style="stroke-width:1.07;stroke:#333;stroke-linecap:butt"/><polyline points="104.85 289.67 107.59 289.67" style="stroke-width:1.07;stroke:#333;stroke-linecap:butt"/><polyline points="104.85 274.51 107.59 274.51" style="stroke-width:1.07;stroke:#333;stroke-linecap:butt"/><polyline points="104.85 259.35 107.59 259.35" style="stroke-width:1.07;stroke:#333;stroke-linecap:butt"/><polyline points="104.85 244.18 107.59 244.18" style="stroke-width:1.07;stroke:#333;stroke-linecap:butt"/><polyline points="104.85 229.02 107.59 229.02" style="stroke-width:1.07;stroke:#333;stroke-linecap:butt"/><polyline points="104.85 213.85 107.59 213.85" style="stroke-width:1.07;stroke:#333;stroke-linecap:butt"/><polyline points="104.85 198.69 107.59 198.69" style="stroke-width:1.07;stroke:#333;stroke-linecap:butt"/><polyline points="104.85 183.52 107.59 183.52" style="stroke-width:1.07;stroke:#333;stroke-linecap:butt"/><polyline points="104.85 168.36 107.59 168.36" style="stroke-width:1.07;stroke:#333;stroke-linecap:butt"/><polyline points="104.85 153.19 107.59 153.19" style="stroke-width:1.07;stroke:#333;stroke-linecap:butt"/><polyline points="104.85 138.03 107.59 138.03" style="stroke-width:1.07;stroke:#333;stroke-linecap:butt"/><polyline points="104.85 122.87 107.59 122.87" style="stroke-width:1.07;stroke:#333;stroke-linecap:butt"/><polyline points="104.85 107.7 107.59 107.7" style="stroke-width:1.07;stroke:#333;stroke-linecap:butt"/><polyline points="104.85 92.54 107.59 92.54" style="stroke-width:1.07;stroke:#333;stroke-linecap:butt"/><polyline points="104.85 77.37 107.59 77.37" style="stroke-width:1.07;stroke:#333;stroke-linecap:butt"/><polyline points="104.85 62.21 107.59 62.21" style="stroke-width:1.07;stroke:#333;stroke-linecap:butt"/><polyline points="104.85 47.04 107.59 47.04" style="stroke-width:1.07;stroke:#333;stroke-linecap:butt"/><polyline points="104.85 31.88 107.59 31.88" style="stroke-width:1.07;stroke:#333;stroke-linecap:butt"/><polyline points="125.36 331.84 125.36 329.1" style="stroke-width:1.07;stroke:#333;stroke-linecap:butt"/><polyline points="231.79 331.84 231.79 329.1" style="stroke-width:1.07;stroke:#333;stroke-linecap:butt"/><polyline points="338.22 331.84 338.22 329.1" style="stroke-width:1.07;stroke:#333;stroke-linecap:butt"/><polyline points="444.65 331.84 444.65 329.1" style="stroke-width:1.07;stroke:#333;stroke-linecap:butt"/><text x="125.36" y="340.09" text-anchor="middle" style="font-size:8.8px;fill:#4d4d4d;font-family:&quot;Arimo&quot;">0%</text><text x="231.79" y="340.09" text-anchor="middle" style="font-size:8.8px;fill:#4d4d4d;font-family:&quot;Arimo&quot;">20%</text><text x="338.22" y="340.09" text-anchor="middle" style="font-size:8.8px;fill:#4d4d4d;font-family:&quot;Arimo&quot;">40%</text><text x="444.65" y="340.09" text-anchor="middle" style="font-size:8.8px;fill:#4d4d4d;font-family:&quot;Arimo&quot;">60%</text><text x="303.06" y="352.23" text-anchor="middle" style="font-size:11px;font-family:&quot;Arimo&quot;">Percent of Respondents</text><text text-anchor="middle" transform="translate(13.05,175.94) rotate(-90)" style="font-size:11px;font-family:&quot;Arimo&quot;">Format</text><text x="107.59" y="14.56" style="font-size:13.2px;font-family:&quot;Arimo&quot;">Vector formats I plan to use in the future</text></g></g></svg>