<svg xmlns="http://www.w3.org/2000/svg" xmlns:xlink="http://www.w3.org/1999/xlink" width="672" height="480" viewBox="0 0 504 360"><g class="svglite"><defs><style type="text/css">.svglite polyline,.svglite rect{fill:none;stroke:#000;stroke-linecap:round;stroke-linejoin:round;stroke-miterlimit:10}.svglite text{white-space:pre}</style></defs><rect width="100%" height="100%" style="stroke:none;fill:none"/><defs><clipPath id="cpMC4wMHw1MDQuMDB8MC4wMHwzNjAuMDA="><rect width="504" height="360" x="0" y="0"/></clipPath></defs><defs><clipPath id="cpMjA3LjY5fDQxNy4yNnwyMi43OHwzMjkuMTA="><rect width="209.57" height="306.32" x="207.69" y="22.78"/></clipPath></defs><g clip-path="url(#cpMjA3LjY5fDQxNy4yNnwyMi43OHwzMjkuMTA=)"><polyline points="244.26 329.1 244.26 22.78" style="stroke-width:.53;stroke:#fff;stroke-linecap:butt"/><polyline points="298.36 329.1 298.36 22.78" style="stroke-width:.53;stroke:#fff;stroke-linecap:butt"/><polyline points="352.46 329.1 352.46 22.78" style="stroke-width:.53;stroke:#fff;stroke-linecap:butt"/><polyline points="406.56 329.1 406.56 22.78" style="stroke-width:.53;stroke:#fff;stroke-linecap:butt"/><polyline points="207.69 314.04 417.26 314.04" style="stroke-width:1.07;stroke:#fff;stroke-linecap:butt"/><polyline points="207.69 288.93 417.26 288.93" style="stroke-width:1.07;stroke:#fff;stroke-linecap:butt"/><polyline points="207.69 263.82 417.26 263.82" style="stroke-width:1.07;stroke:#fff;stroke-linecap:butt"/><polyline points="207.69 238.71 417.26 238.71" style="stroke-width:1.07;stroke:#fff;stroke-linecap:butt"/><polyline points="207.69 213.6 417.26 213.6" style="stroke-width:1.07;stroke:#fff;stroke-linecap:butt"/><polyline points="207.69 188.5 417.26 188.5" style="stroke-width:1.07;stroke:#fff;stroke-linecap:butt"/><polyline points="207.69 163.39 417.26 163.39" style="stroke-width:1.07;stroke:#fff;stroke-linecap:butt"/><polyline points="207.69 138.28 417.26 138.28" style="stroke-width:1.07;stroke:#fff;stroke-linecap:butt"/><polyline points="207.69 113.17 417.26 113.17" style="stroke-width:1.07;stroke:#fff;stroke-linecap:butt"/><polyline points="207.69 88.06 417.26 88.06" style="stroke-width:1.07;stroke:#fff;stroke-linecap:butt"/><polyline points="207.69 62.95 417.26 62.95" style="stroke-width:1.07;stroke:#fff;stroke-linecap:butt"/><polyline points="207.69 37.85 417.26 37.85" style="stroke-width:1.07;stroke:#fff;stroke-linecap:butt"/><polyline points="217.21 329.1 217.21 22.78" style="stroke-width:1.07;stroke:#fff;stroke-linecap:butt"/><polyline points="271.31 329.1 271.31 22.78" style="stroke-width:1.07;stroke:#fff;stroke-linecap:butt"/><polyline points="325.41 329.1 325.41 22.78" style="stroke-width:1.07;stroke:#fff;stroke-linecap:butt"/><polyline points="379.51 329.1 379.51 22.78" style="stroke-width:1.07;stroke:#fff;stroke-linecap:butt"/><rect width="190.52" height="11.3" x="217.21" y="302.74" style="stroke-width:1.07;stroke:none;stroke-linecap:butt;stroke-linejoin:miter;fill:#359946"/><rect width="17.07" height="11.3" x="217.21" y="126.98" style="stroke-width:1.07;stroke:none;stroke-linecap:butt;stroke-linejoin:miter;fill:#359946"/><rect width="4.49" height="11.3" x="217.21" y="76.76" style="stroke-width:1.07;stroke:none;stroke-linecap:butt;stroke-linejoin:miter;fill:#359946"/><rect width="112.34" height="11.3" x="217.21" y="277.63" style="stroke-width:1.07;stroke:none;stroke-linecap:butt;stroke-linejoin:miter;fill:#359946"/><rect width="0" height="11.3" x="217.21" y="26.55" style="stroke-width:1.07;stroke:none;stroke-linecap:butt;stroke-linejoin:miter;fill:#359946"/><rect width="6.29" height="11.3" x="217.21" y="51.66" style="stroke-width:1.07;stroke:none;stroke-linecap:butt;stroke-linejoin:miter;fill:#359946"/><rect width="0" height="11.3" x="217.21" y="101.87" style="stroke-width:1.07;stroke:none;stroke-linecap:butt;stroke-linejoin:miter;fill:#359946"/><rect width="29.66" height="11.3" x="217.21" y="177.2" style="stroke-width:1.07;stroke:none;stroke-linecap:butt;stroke-linejoin:miter;fill:#359946"/><rect width="23.37" height="11.3" x="217.21" y="152.09" style="stroke-width:1.07;stroke:none;stroke-linecap:butt;stroke-linejoin:miter;fill:#359946"/><rect width="109.64" height="11.3" x="217.21" y="252.52" style="stroke-width:1.07;stroke:none;stroke-linecap:butt;stroke-linejoin:miter;fill:#359946"/><rect width="12.58" height="11.3" x="217.21" y="202.3" style="stroke-width:1.07;stroke:none;stroke-linecap:butt;stroke-linejoin:miter;fill:#359946"/><rect width="35.05" height="11.3" x="217.21" y="227.41" style="stroke-width:1.07;stroke:none;stroke-linecap:butt;stroke-linejoin:miter;fill:#359946"/><rect width="178.19" height="11.3" x="217.21" y="314.04" style="stroke-width:1.07;stroke:none;stroke-linecap:butt;stroke-linejoin:miter;fill:#71c9f1"/><rect width="17.45" height="11.3" x="217.21" y="138.28" style="stroke-width:1.07;stroke:none;stroke-linecap:butt;stroke-linejoin:miter;fill:#71c9f1"/><rect width="17.45" height="11.3" x="217.21" y="88.06" style="stroke-width:1.07;stroke:none;stroke-linecap:butt;stroke-linejoin:miter;fill:#71c9f1"/><rect width="86.34" height="11.3" x="217.21" y="288.93" style="stroke-width:1.07;stroke:none;stroke-linecap:butt;stroke-linejoin:miter;fill:#71c9f1"/><rect width="4.59" height="11.3" x="217.21" y="37.85" style="stroke-width:1.07;stroke:none;stroke-linecap:butt;stroke-linejoin:miter;fill:#71c9f1"/><rect width="6.43" height="11.3" x="217.21" y="62.95" style="stroke-width:1.07;stroke:none;stroke-linecap:butt;stroke-linejoin:miter;fill:#71c9f1"/><rect width="32.15" height="11.3" x="217.21" y="113.17" style="stroke-width:1.07;stroke:none;stroke-linecap:butt;stroke-linejoin:miter;fill:#71c9f1"/><rect width="18.37" height="11.3" x="217.21" y="188.5" style="stroke-width:1.07;stroke:none;stroke-linecap:butt;stroke-linejoin:miter;fill:#71c9f1"/><rect width="12.86" height="11.3" x="217.21" y="163.39" style="stroke-width:1.07;stroke:none;stroke-linecap:butt;stroke-linejoin:miter;fill:#71c9f1"/><rect width="87.26" height="11.3" x="217.21" y="263.82" style="stroke-width:1.07;stroke:none;stroke-linecap:butt;stroke-linejoin:miter;fill:#71c9f1"/><rect width="43.17" height="11.3" x="217.21" y="213.6" style="stroke-width:1.07;stroke:none;stroke-linecap:butt;stroke-linejoin:miter;fill:#71c9f1"/><rect width="36.74" height="11.3" x="217.21" y="238.71" style="stroke-width:1.07;stroke:none;stroke-linecap:butt;stroke-linejoin:miter;fill:#71c9f1"/></g><g clip-path="url(#cpMC4wMHw1MDQuMDB8MC4wMHwzNjAuMDA=)"><text x="202.76" y="312.31" text-anchor="end" style="font-size:8.8px;fill:#4d4d4d;font-family:&quot;Arimo&quot;">&quot;Classic&quot; command line</text><text x="202.76" y="321.82" text-anchor="end" style="font-size:8.8px;fill:#4d4d4d;font-family:&quot;Arimo&quot;">(gdal_translate, gdalwarp, ogr2ogr, etc.)</text><text x="202.76" y="291.96" text-anchor="end" style="font-size:8.8px;fill:#4d4d4d;font-family:&quot;Arimo&quot;">GDAL Python bindings</text><text x="202.76" y="262.1" text-anchor="end" style="font-size:8.8px;fill:#4d4d4d;font-family:&quot;Arimo&quot;">Python packages</text><text x="202.76" y="271.6" text-anchor="end" style="font-size:8.8px;fill:#4d4d4d;font-family:&quot;Arimo&quot;">(rasterio, fiona, geopandas, rioxarray, etc.)</text><text x="202.76" y="236.99" text-anchor="end" style="font-size:8.8px;fill:#4d4d4d;font-family:&quot;Arimo&quot;">R packages</text><text x="202.76" y="246.49" text-anchor="end" style="font-size:8.8px;fill:#4d4d4d;font-family:&quot;Arimo&quot;">(terra, gdalraster, stars, etc.)</text><text x="202.76" y="216.63" text-anchor="end" style="font-size:8.8px;fill:#4d4d4d;font-family:&quot;Arimo&quot;">QGIS</text><text x="202.76" y="191.52" text-anchor="end" style="font-size:8.8px;fill:#4d4d4d;font-family:&quot;Arimo&quot;">Other</text><text x="202.76" y="166.41" text-anchor="end" style="font-size:8.8px;fill:#4d4d4d;font-family:&quot;Arimo&quot;">PostGIS</text><text x="202.76" y="141.31" text-anchor="end" style="font-size:8.8px;fill:#4d4d4d;font-family:&quot;Arimo&quot;">C/C++</text><text x="202.76" y="111.45" text-anchor="end" style="font-size:8.8px;fill:#4d4d4d;font-family:&quot;Arimo&quot;">New command line</text><text x="202.76" y="120.95" text-anchor="end" style="font-size:8.8px;fill:#4d4d4d;font-family:&quot;Arimo&quot;">(gdal raster convert, gdal vector reproject, etc.)</text><text x="202.76" y="91.09" text-anchor="end" style="font-size:8.8px;fill:#4d4d4d;font-family:&quot;Arimo&quot;">C# bindings</text><text x="202.76" y="65.98" text-anchor="end" style="font-size:8.8px;fill:#4d4d4d;font-family:&quot;Arimo&quot;">Java bindings</text><text x="202.76" y="40.87" text-anchor="end" style="font-size:8.8px;fill:#4d4d4d;font-family:&quot;Arimo&quot;">GRASS</text><polyline points="204.95 314.04 207.69 314.04" style="stroke-width:1.07;stroke:#333;stroke-linecap:butt"/><polyline points="204.95 288.93 207.69 288.93" style="stroke-width:1.07;stroke:#333;stroke-linecap:butt"/><polyline points="204.95 263.82 207.69 263.82" style="stroke-width:1.07;stroke:#333;stroke-linecap:butt"/><polyline points="204.95 238.71 207.69 238.71" style="stroke-width:1.07;stroke:#333;stroke-linecap:butt"/><polyline points="204.95 213.6 207.69 213.6" style="stroke-width:1.07;stroke:#333;stroke-linecap:butt"/><polyline points="204.95 188.5 207.69 188.5" style="stroke-width:1.07;stroke:#333;stroke-linecap:butt"/><polyline points="204.95 163.39 207.69 163.39" style="stroke-width:1.07;stroke:#333;stroke-linecap:butt"/><polyline points="204.95 138.28 207.69 138.28" style="stroke-width:1.07;stroke:#333;stroke-linecap:butt"/><polyline points="204.95 113.17 207.69 113.17" style="stroke-width:1.07;stroke:#333;stroke-linecap:butt"/><polyline points="204.95 88.06 207.69 88.06" style="stroke-width:1.07;stroke:#333;stroke-linecap:butt"/><polyline points="204.95 62.95 207.69 62.95" style="stroke-width:1.07;stroke:#333;stroke-linecap:butt"/><polyline points="204.95 37.85 207.69 37.85" style="stroke-width:1.07;stroke:#333;stroke-linecap:butt"/><polyline points="217.21 331.84 217.21 329.1" style="stroke-width:1.07;stroke:#333;stroke-linecap:butt"/><polyline points="271.31 331.84 271.31 329.1" style="stroke-width:1.07;stroke:#333;stroke-linecap:butt"/><polyline points="325.41 331.84 325.41 329.1" style="stroke-width:1.07;stroke:#333;stroke-linecap:butt"/><polyline points="379.51 331.84 379.51 329.1" style="stroke-width:1.07;stroke:#333;stroke-linecap:butt"/><text x="217.21" y="340.09" text-anchor="middle" style="font-size:8.8px;fill:#4d4d4d;font-family:&quot;Arimo&quot;">0%</text><text x="271.31" y="340.09" text-anchor="middle" style="font-size:8.8px;fill:#4d4d4d;font-family:&quot;Arimo&quot;">10%</text><text x="325.41" y="340.09" text-anchor="middle" style="font-size:8.8px;fill:#4d4d4d;font-family:&quot;Arimo&quot;">20%</text><text x="379.51" y="340.09" text-anchor="middle" style="font-size:8.8px;fill:#4d4d4d;font-family:&quot;Arimo&quot;">30%</text><text x="312.47" y="352.23" text-anchor="middle" style="font-size:11px;font-family:&quot;Arimo&quot;">Percent of Respondents</text><text text-anchor="middle" transform="translate(13.05,175.94) rotate(-90)" style="font-size:11px;font-family:&quot;Arimo&quot;">Method</text><text x="433.7" y="159.71" style="font-size:11px;font-family:&quot;Arimo&quot;">Survey Year</text><rect width="15.86" height="15.86" x="434.41" y="167.04" style="stroke-width:1.07;stroke:none;stroke-linecap:butt;stroke-linejoin:miter;fill:#359946"/><rect width="15.86" height="15.86" x="434.41" y="184.32" style="stroke-width:1.07;stroke:none;stroke-linecap:butt;stroke-linejoin:miter;fill:#71c9f1"/><text x="456.46" y="178" style="font-size:8.8px;font-family:&quot;Arimo&quot;">2024</text><text x="456.46" y="195.28" style="font-size:8.8px;font-family:&quot;Arimo&quot;">2025</text><text x="207.69" y="14.56" style="font-size:13.2px;font-family:&quot;Arimo&quot;">I use GDAL most often via...</text></g></g></svg>