<svg xmlns="http://www.w3.org/2000/svg" xmlns:xlink="http://www.w3.org/1999/xlink" width="672" height="480" viewBox="0 0 504 360"><g class="svglite"><defs><style type="text/css">.svglite polyline,.svglite rect{fill:none;stroke:#000;stroke-linecap:round;stroke-linejoin:round;stroke-miterlimit:10}.svglite text{white-space:pre}</style></defs><rect width="100%" height="100%" style="stroke:none;fill:none"/><defs><clipPath id="cpMC4wMHw1MDQuMDB8MC4wMHwzNjAuMDA="><rect width="504" height="360" x="0" y="0"/></clipPath></defs><defs><clipPath id="cpNDAuNjJ8NDE3LjI2fDIyLjc4fDMyOS4xMA=="><rect width="376.63" height="306.32" x="40.62" y="22.78"/></clipPath></defs><g clip-path="url(#cpNDAuNjJ8NDE3LjI2fDIyLjc4fDMyOS4xMA==)"><polyline points="40.62 283.15 417.26 283.15" style="stroke-width:.53;stroke:#fff;stroke-linecap:butt"/><polyline points="40.62 219.1 417.26 219.1" style="stroke-width:.53;stroke:#fff;stroke-linecap:butt"/><polyline points="40.62 155.06 417.26 155.06" style="stroke-width:.53;stroke:#fff;stroke-linecap:butt"/><polyline points="40.62 91.01 417.26 91.01" style="stroke-width:.53;stroke:#fff;stroke-linecap:butt"/><polyline points="40.62 26.96 417.26 26.96" style="stroke-width:.53;stroke:#fff;stroke-linecap:butt"/><polyline points="40.62 315.18 417.26 315.18" style="stroke-width:1.07;stroke:#fff;stroke-linecap:butt"/><polyline points="40.62 251.13 417.26 251.13" style="stroke-width:1.07;stroke:#fff;stroke-linecap:butt"/><polyline points="40.62 187.08 417.26 187.08" style="stroke-width:1.07;stroke:#fff;stroke-linecap:butt"/><polyline points="40.62 123.03 417.26 123.03" style="stroke-width:1.07;stroke:#fff;stroke-linecap:butt"/><polyline points="40.62 58.98 417.26 58.98" style="stroke-width:1.07;stroke:#fff;stroke-linecap:butt"/><polyline points="111.24 329.1 111.24 22.78" style="stroke-width:1.07;stroke:#fff;stroke-linecap:butt"/><polyline points="228.94 329.1 228.94 22.78" style="stroke-width:1.07;stroke:#fff;stroke-linecap:butt"/><polyline points="346.64 329.1 346.64 22.78" style="stroke-width:1.07;stroke:#fff;stroke-linecap:butt"/><rect width="52.96" height="134.95" x="58.28" y="180.23" style="stroke-width:1.07;stroke:none;stroke-linecap:butt;stroke-linejoin:miter;fill:#359946"/><rect width="52.96" height="278.47" x="293.68" y="36.7" style="stroke-width:1.07;stroke:none;stroke-linecap:butt;stroke-linejoin:miter;fill:#359946"/><rect width="52.96" height="227.06" x="175.98" y="88.12" style="stroke-width:1.07;stroke:none;stroke-linecap:butt;stroke-linejoin:miter;fill:#359946"/><rect width="52.96" height="153.45" x="111.24" y="161.73" style="stroke-width:1.07;stroke:none;stroke-linecap:butt;stroke-linejoin:miter;fill:#71c9f1"/><rect width="52.96" height="257.97" x="346.64" y="57.2" style="stroke-width:1.07;stroke:none;stroke-linecap:butt;stroke-linejoin:miter;fill:#71c9f1"/><rect width="52.96" height="229.06" x="228.94" y="86.11" style="stroke-width:1.07;stroke:none;stroke-linecap:butt;stroke-linejoin:miter;fill:#71c9f1"/></g><g clip-path="url(#cpMC4wMHw1MDQuMDB8MC4wMHwzNjAuMDA=)"><text x="35.69" y="318.21" text-anchor="end" style="font-size:8.8px;fill:#4d4d4d;font-family:&quot;Arimo&quot;">0%</text><text x="35.69" y="254.16" text-anchor="end" style="font-size:8.8px;fill:#4d4d4d;font-family:&quot;Arimo&quot;">10%</text><text x="35.69" y="190.11" text-anchor="end" style="font-size:8.8px;fill:#4d4d4d;font-family:&quot;Arimo&quot;">20%</text><text x="35.69" y="126.06" text-anchor="end" style="font-size:8.8px;fill:#4d4d4d;font-family:&quot;Arimo&quot;">30%</text><text x="35.69" y="62.01" text-anchor="end" style="font-size:8.8px;fill:#4d4d4d;font-family:&quot;Arimo&quot;">40%</text><polyline points="37.88 315.18 40.62 315.18" style="stroke-width:1.07;stroke:#333;stroke-linecap:butt"/><polyline points="37.88 251.13 40.62 251.13" style="stroke-width:1.07;stroke:#333;stroke-linecap:butt"/><polyline points="37.88 187.08 40.62 187.08" style="stroke-width:1.07;stroke:#333;stroke-linecap:butt"/><polyline points="37.88 123.03 40.62 123.03" style="stroke-width:1.07;stroke:#333;stroke-linecap:butt"/><polyline points="37.88 58.98 40.62 58.98" style="stroke-width:1.07;stroke:#333;stroke-linecap:butt"/><polyline points="111.24 331.84 111.24 329.1" style="stroke-width:1.07;stroke:#333;stroke-linecap:butt"/><polyline points="228.94 331.84 228.94 329.1" style="stroke-width:1.07;stroke:#333;stroke-linecap:butt"/><polyline points="346.64 331.84 346.64 329.1" style="stroke-width:1.07;stroke:#333;stroke-linecap:butt"/><text x="111.24" y="340.09" text-anchor="middle" style="font-size:8.8px;fill:#4d4d4d;font-family:&quot;Arimo&quot;">1 - 4 years</text><text x="228.94" y="340.09" text-anchor="middle" style="font-size:8.8px;fill:#4d4d4d;font-family:&quot;Arimo&quot;">5 - 9 years</text><text x="346.64" y="340.09" text-anchor="middle" style="font-size:8.8px;fill:#4d4d4d;font-family:&quot;Arimo&quot;">10 - 20+ years</text><text x="228.94" y="352.23" text-anchor="middle" style="font-size:11px;font-family:&quot;Arimo&quot;">Level of experience</text><text text-anchor="middle" transform="translate(13.05,175.94) rotate(-90)" style="font-size:11px;font-family:&quot;Arimo&quot;">Share of respondents</text><text x="433.7" y="159.71" style="font-size:11px;font-family:&quot;Arimo&quot;">Survey Year</text><rect width="15.86" height="15.86" x="434.41" y="167.04" style="stroke-width:1.07;stroke:none;stroke-linecap:butt;stroke-linejoin:miter;fill:#359946"/><rect width="15.86" height="15.86" x="434.41" y="184.32" style="stroke-width:1.07;stroke:none;stroke-linecap:butt;stroke-linejoin:miter;fill:#71c9f1"/><text x="456.46" y="178" style="font-size:8.8px;font-family:&quot;Arimo&quot;">2024</text><text x="456.46" y="195.28" style="font-size:8.8px;font-family:&quot;Arimo&quot;">2025</text><text x="40.62" y="14.56" style="font-size:13.2px;font-family:&quot;Arimo&quot;">Survey Respondents - Level of Experience</text></g></g></svg>