<svg xmlns="http://www.w3.org/2000/svg" xmlns:xlink="http://www.w3.org/1999/xlink" width="672" height="480" class="svglite" viewBox="0 0 504 360"><defs><style type="text/css">.svglite polyline,.svglite rect{fill:none;stroke:#000;stroke-linecap:round;stroke-linejoin:round;stroke-miterlimit:10}</style></defs><rect width="100%" height="100%" style="stroke:none;fill:none"/><defs><clipPath id="cpMC4wMHw1MDQuMDB8MC4wMHwzNjAuMDA="><rect width="504" height="360" x="0" y="0"/></clipPath></defs><defs><clipPath id="cpMTIwLjcxfDQ5OC41MnwyMy40NHwzMjcuOTc="><rect width="377.81" height="304.53" x="120.71" y="23.44"/></clipPath></defs><g clip-path="url(#cpMTIwLjcxfDQ5OC41MnwyMy40NHwzMjcuOTc=)"><polyline points="202.93 327.97 202.93 23.44" style="stroke-width:.53;stroke:#fff;stroke-linecap:butt"/><polyline points="333.03 327.97 333.03 23.44" style="stroke-width:.53;stroke:#fff;stroke-linecap:butt"/><polyline points="463.13 327.97 463.13 23.44" style="stroke-width:.53;stroke:#fff;stroke-linecap:butt"/><polyline points="120.71 305.68 498.52 305.68" style="stroke-width:1.07;stroke:#fff;stroke-linecap:butt"/><polyline points="120.71 268.55 498.52 268.55" style="stroke-width:1.07;stroke:#fff;stroke-linecap:butt"/><polyline points="120.71 231.41 498.52 231.41" style="stroke-width:1.07;stroke:#fff;stroke-linecap:butt"/><polyline points="120.71 194.27 498.52 194.27" style="stroke-width:1.07;stroke:#fff;stroke-linecap:butt"/><polyline points="120.71 157.13 498.52 157.13" style="stroke-width:1.07;stroke:#fff;stroke-linecap:butt"/><polyline points="120.71 120 498.52 120" style="stroke-width:1.07;stroke:#fff;stroke-linecap:butt"/><polyline points="120.71 82.86 498.52 82.86" style="stroke-width:1.07;stroke:#fff;stroke-linecap:butt"/><polyline points="120.71 45.72 498.52 45.72" style="stroke-width:1.07;stroke:#fff;stroke-linecap:butt"/><polyline points="137.88 327.97 137.88 23.44" style="stroke-width:1.07;stroke:#fff;stroke-linecap:butt"/><polyline points="267.98 327.97 267.98 23.44" style="stroke-width:1.07;stroke:#fff;stroke-linecap:butt"/><polyline points="398.08 327.97 398.08 23.44" style="stroke-width:1.07;stroke:#fff;stroke-linecap:butt"/><rect width="74.16" height="33.42" x="137.88" y="140.42" style="stroke-width:1.07;stroke:none;stroke-linecap:butt;stroke-linejoin:miter;fill:#71c9f1"/><rect width="106.68" height="33.42" x="137.88" y="103.28" style="stroke-width:1.07;stroke:none;stroke-linecap:butt;stroke-linejoin:miter;fill:#71c9f1"/><rect width="343.46" height="33.42" x="137.88" y="29.01" style="stroke-width:1.07;stroke:none;stroke-linecap:butt;stroke-linejoin:miter;fill:#71c9f1"/><rect width="39.03" height="33.42" x="137.88" y="177.56" style="stroke-width:1.07;stroke:none;stroke-linecap:butt;stroke-linejoin:miter;fill:#71c9f1"/><rect width="9.11" height="33.42" x="137.88" y="288.97" style="stroke-width:1.07;stroke:none;stroke-linecap:butt;stroke-linejoin:miter;fill:#71c9f1"/><rect width="26.02" height="33.42" x="137.88" y="214.7" style="stroke-width:1.07;stroke:none;stroke-linecap:butt;stroke-linejoin:miter;fill:#71c9f1"/><rect width="11.71" height="33.42" x="137.88" y="251.83" style="stroke-width:1.07;stroke:none;stroke-linecap:butt;stroke-linejoin:miter;fill:#71c9f1"/><rect width="124.9" height="33.42" x="137.88" y="66.15" style="stroke-width:1.07;stroke:none;stroke-linecap:butt;stroke-linejoin:miter;fill:#71c9f1"/></g><g clip-path="url(#cpMC4wMHw1MDQuMDB8MC4wMHwzNjAuMDA=)"><text x="115.78" y="308.89" text-anchor="end" style="font-size:8.8px;fill:#4d4d4d;font-family:Arial">Installation</text><text x="115.78" y="271.75" text-anchor="end" style="font-size:8.8px;fill:#4d4d4d;font-family:Arial">Python</text><text x="115.78" y="234.62" text-anchor="end" style="font-size:8.8px;fill:#4d4d4d;font-family:Arial">Other</text><text x="115.78" y="197.48" text-anchor="end" style="font-size:8.8px;fill:#4d4d4d;font-family:Arial">Format options</text><text x="115.78" y="160.34" text-anchor="end" style="font-size:8.8px;fill:#4d4d4d;font-family:Arial">Data format peculiarities</text><text x="115.78" y="123.2" text-anchor="end" style="font-size:8.8px;fill:#4d4d4d;font-family:Arial">Developer API usage</text><text x="115.78" y="86.07" text-anchor="end" style="font-size:8.8px;fill:#4d4d4d;font-family:Arial">Workflows</text><text x="115.78" y="48.93" text-anchor="end" style="font-size:8.8px;fill:#4d4d4d;font-family:Arial">Examples</text><polyline points="117.97 305.68 120.71 305.68" style="stroke-width:1.07;stroke:#333;stroke-linecap:butt"/><polyline points="117.97 268.55 120.71 268.55" style="stroke-width:1.07;stroke:#333;stroke-linecap:butt"/><polyline points="117.97 231.41 120.71 231.41" style="stroke-width:1.07;stroke:#333;stroke-linecap:butt"/><polyline points="117.97 194.27 120.71 194.27" style="stroke-width:1.07;stroke:#333;stroke-linecap:butt"/><polyline points="117.97 157.13 120.71 157.13" style="stroke-width:1.07;stroke:#333;stroke-linecap:butt"/><polyline points="117.97 120 120.71 120" style="stroke-width:1.07;stroke:#333;stroke-linecap:butt"/><polyline points="117.97 82.86 120.71 82.86" style="stroke-width:1.07;stroke:#333;stroke-linecap:butt"/><polyline points="117.97 45.72 120.71 45.72" style="stroke-width:1.07;stroke:#333;stroke-linecap:butt"/><polyline points="137.88 330.71 137.88 327.97" style="stroke-width:1.07;stroke:#333;stroke-linecap:butt"/><polyline points="267.98 330.71 267.98 327.97" style="stroke-width:1.07;stroke:#333;stroke-linecap:butt"/><polyline points="398.08 330.71 398.08 327.97" style="stroke-width:1.07;stroke:#333;stroke-linecap:butt"/><text x="137.88" y="339.31" text-anchor="middle" style="font-size:8.8px;fill:#4d4d4d;font-family:Arial">0</text><text x="267.98" y="339.31" text-anchor="middle" style="font-size:8.8px;fill:#4d4d4d;font-family:Arial">100</text><text x="398.08" y="339.31" text-anchor="middle" style="font-size:8.8px;fill:#4d4d4d;font-family:Arial">200</text><text x="309.62" y="352.1" text-anchor="middle" style="font-size:11px;font-family:Arial">Number of respondents</text><text text-anchor="middle" transform="translate(13.50,175.70) rotate(-90)" style="font-size:11px;font-family:Arial">Topic</text><text x="120.71" y="15.1" style="font-size:13.2px;font-family:Arial">Where does GDAL need more documentation?</text></g></svg>