<svg xmlns="http://www.w3.org/2000/svg" xmlns:xlink="http://www.w3.org/1999/xlink" width="672" height="480" class="svglite" viewBox="0 0 504 360"><defs><style type="text/css">.svglite polyline,.svglite rect{fill:none;stroke:#000;stroke-linecap:round;stroke-linejoin:round;stroke-miterlimit:10}</style></defs><rect width="100%" height="100%" style="stroke:none;fill:none"/><defs><clipPath id="cpMC4wMHw1MDQuMDB8MC4wMHwzNjAuMDA="><rect width="504" height="360" x="0" y="0"/></clipPath></defs><defs><clipPath id="cpMzguNjB8MTg4LjI2fDQwLjY1fDMxOC40Ng=="><rect width="149.65" height="277.82" x="38.6" y="40.65"/></clipPath></defs><g clip-path="url(#cpMzguNjB8MTg4LjI2fDQwLjY1fDMxOC40Ng==)"><polyline points="38.6 267.57 188.26 267.57" style="stroke-width:.53;stroke:#fff;stroke-linecap:butt"/><polyline points="38.6 191.03 188.26 191.03" style="stroke-width:.53;stroke:#fff;stroke-linecap:butt"/><polyline points="38.6 114.5 188.26 114.5" style="stroke-width:.53;stroke:#fff;stroke-linecap:butt"/><polyline points="38.6 305.83 188.26 305.83" style="stroke-width:1.07;stroke:#fff;stroke-linecap:butt"/><polyline points="38.6 229.3 188.26 229.3" style="stroke-width:1.07;stroke:#fff;stroke-linecap:butt"/><polyline points="38.6 152.77 188.26 152.77" style="stroke-width:1.07;stroke:#fff;stroke-linecap:butt"/><polyline points="38.6 76.24 188.26 76.24" style="stroke-width:1.07;stroke:#fff;stroke-linecap:butt"/><polyline points="66.66 318.46 66.66 40.65" style="stroke-width:1.07;stroke:#fff;stroke-linecap:butt"/><polyline points="113.43 318.46 113.43 40.65" style="stroke-width:1.07;stroke:#fff;stroke-linecap:butt"/><polyline points="160.2 318.46 160.2 40.65" style="stroke-width:1.07;stroke:#fff;stroke-linecap:butt"/><rect width="42.09" height="125.51" x="45.62" y="180.32" style="stroke-width:1.07;stroke:none;stroke-linecap:butt;stroke-linejoin:miter;fill:#71c9f1"/><rect width="42.09" height="252.56" x="92.38" y="53.28" style="stroke-width:1.07;stroke:none;stroke-linecap:butt;stroke-linejoin:miter;fill:#71c9f1"/><rect width="42.09" height="67.35" x="139.15" y="238.49" style="stroke-width:1.07;stroke:none;stroke-linecap:butt;stroke-linejoin:miter;fill:#71c9f1"/></g><defs><clipPath id="cpMTkzLjc0fDM0My4zOXw0MC42NXwzMTguNDY="><rect width="149.65" height="277.82" x="193.74" y="40.65"/></clipPath></defs><g clip-path="url(#cpMTkzLjc0fDM0My4zOXw0MC42NXwzMTguNDY=)"><polyline points="193.74 267.57 343.39 267.57" style="stroke-width:.53;stroke:#fff;stroke-linecap:butt"/><polyline points="193.74 191.03 343.39 191.03" style="stroke-width:.53;stroke:#fff;stroke-linecap:butt"/><polyline points="193.74 114.5 343.39 114.5" style="stroke-width:.53;stroke:#fff;stroke-linecap:butt"/><polyline points="193.74 305.83 343.39 305.83" style="stroke-width:1.07;stroke:#fff;stroke-linecap:butt"/><polyline points="193.74 229.3 343.39 229.3" style="stroke-width:1.07;stroke:#fff;stroke-linecap:butt"/><polyline points="193.74 152.77 343.39 152.77" style="stroke-width:1.07;stroke:#fff;stroke-linecap:butt"/><polyline points="193.74 76.24 343.39 76.24" style="stroke-width:1.07;stroke:#fff;stroke-linecap:butt"/><polyline points="221.8 318.46 221.8 40.65" style="stroke-width:1.07;stroke:#fff;stroke-linecap:butt"/><polyline points="268.56 318.46 268.56 40.65" style="stroke-width:1.07;stroke:#fff;stroke-linecap:butt"/><polyline points="315.33 318.46 315.33 40.65" style="stroke-width:1.07;stroke:#fff;stroke-linecap:butt"/><rect width="42.09" height="30.61" x="200.75" y="275.22" style="stroke-width:1.07;stroke:none;stroke-linecap:butt;stroke-linejoin:miter;fill:#71c9f1"/><rect width="42.09" height="65.82" x="247.52" y="240.02" style="stroke-width:1.07;stroke:none;stroke-linecap:butt;stroke-linejoin:miter;fill:#71c9f1"/><rect width="42.09" height="21.43" x="294.28" y="284.41" style="stroke-width:1.07;stroke:none;stroke-linecap:butt;stroke-linejoin:miter;fill:#71c9f1"/></g><defs><clipPath id="cpMzQ4Ljg3fDQ5OC41Mnw0MC42NXwzMTguNDY="><rect width="149.65" height="277.82" x="348.87" y="40.65"/></clipPath></defs><g clip-path="url(#cpMzQ4Ljg3fDQ5OC41Mnw0MC42NXwzMTguNDY=)"><polyline points="348.87 267.57 498.52 267.57" style="stroke-width:.53;stroke:#fff;stroke-linecap:butt"/><polyline points="348.87 191.03 498.52 191.03" style="stroke-width:.53;stroke:#fff;stroke-linecap:butt"/><polyline points="348.87 114.5 498.52 114.5" style="stroke-width:.53;stroke:#fff;stroke-linecap:butt"/><polyline points="348.87 305.83 498.52 305.83" style="stroke-width:1.07;stroke:#fff;stroke-linecap:butt"/><polyline points="348.87 229.3 498.52 229.3" style="stroke-width:1.07;stroke:#fff;stroke-linecap:butt"/><polyline points="348.87 152.77 498.52 152.77" style="stroke-width:1.07;stroke:#fff;stroke-linecap:butt"/><polyline points="348.87 76.24 498.52 76.24" style="stroke-width:1.07;stroke:#fff;stroke-linecap:butt"/><polyline points="376.93 318.46 376.93 40.65" style="stroke-width:1.07;stroke:#fff;stroke-linecap:butt"/><polyline points="423.69 318.46 423.69 40.65" style="stroke-width:1.07;stroke:#fff;stroke-linecap:butt"/><polyline points="470.46 318.46 470.46 40.65" style="stroke-width:1.07;stroke:#fff;stroke-linecap:butt"/><rect width="42.09" height="105.62" x="355.88" y="200.22" style="stroke-width:1.07;stroke:none;stroke-linecap:butt;stroke-linejoin:miter;fill:#71c9f1"/><rect width="42.09" height="176.03" x="402.65" y="129.81" style="stroke-width:1.07;stroke:none;stroke-linecap:butt;stroke-linejoin:miter;fill:#71c9f1"/><rect width="42.09" height="39.8" x="449.42" y="266.04" style="stroke-width:1.07;stroke:none;stroke-linecap:butt;stroke-linejoin:miter;fill:#71c9f1"/></g><defs><clipPath id="cpMzguNjB8MTg4LjI2fDIzLjQ0fDQwLjY1"><rect width="149.65" height="17.21" x="38.6" y="23.44"/></clipPath></defs><g clip-path="url(#cpMzguNjB8MTg4LjI2fDIzLjQ0fDQwLjY1)"><rect width="149.65" height="17.21" x="38.6" y="23.44" style="stroke-width:1.07;stroke:none;fill:#d9d9d9"/><text x="113.43" y="35.25" text-anchor="middle" style="font-size:8.8px;fill:#1a1a1a;font-family:Arial">Linux</text></g><defs><clipPath id="cpMTkzLjc0fDM0My4zOXwyMy40NHw0MC42NQ=="><rect width="149.65" height="17.21" x="193.74" y="23.44"/></clipPath></defs><g clip-path="url(#cpMTkzLjc0fDM0My4zOXwyMy40NHw0MC42NQ==)"><rect width="149.65" height="17.21" x="193.74" y="23.44" style="stroke-width:1.07;stroke:none;fill:#d9d9d9"/><text x="268.56" y="35.25" text-anchor="middle" style="font-size:8.8px;fill:#1a1a1a;font-family:Arial">OSX</text></g><defs><clipPath id="cpMzQ4Ljg3fDQ5OC41MnwyMy40NHw0MC42NQ=="><rect width="149.65" height="17.21" x="348.87" y="23.44"/></clipPath></defs><g clip-path="url(#cpMzQ4Ljg3fDQ5OC41MnwyMy40NHw0MC42NQ==)"><rect width="149.65" height="17.21" x="348.87" y="23.44" style="stroke-width:1.07;stroke:none;fill:#d9d9d9"/><text x="423.69" y="35.25" text-anchor="middle" style="font-size:8.8px;fill:#1a1a1a;font-family:Arial">Windows</text></g><g clip-path="url(#cpMC4wMHw1MDQuMDB8MC4wMHwzNjAuMDA=)"><polyline points="66.66 321.2 66.66 318.46" style="stroke-width:1.07;stroke:#333;stroke-linecap:butt"/><polyline points="113.43 321.2 113.43 318.46" style="stroke-width:1.07;stroke:#333;stroke-linecap:butt"/><polyline points="160.2 321.2 160.2 318.46" style="stroke-width:1.07;stroke:#333;stroke-linecap:butt"/><text x="66.66" y="329.81" text-anchor="middle" style="font-size:8.8px;fill:#4d4d4d;font-family:Arial">No</text><text x="113.43" y="329.81" text-anchor="middle" style="font-size:8.8px;fill:#4d4d4d;font-family:Arial">Yes</text><text x="160.2" y="329.81" text-anchor="middle" style="font-size:8.8px;fill:#4d4d4d;font-family:Arial">Yes, but not with</text><text x="160.2" y="339.31" text-anchor="middle" style="font-size:8.8px;fill:#4d4d4d;font-family:Arial">the options I need</text><polyline points="221.8 321.2 221.8 318.46" style="stroke-width:1.07;stroke:#333;stroke-linecap:butt"/><polyline points="268.56 321.2 268.56 318.46" style="stroke-width:1.07;stroke:#333;stroke-linecap:butt"/><polyline points="315.33 321.2 315.33 318.46" style="stroke-width:1.07;stroke:#333;stroke-linecap:butt"/><text x="221.8" y="329.81" text-anchor="middle" style="font-size:8.8px;fill:#4d4d4d;font-family:Arial">No</text><text x="268.56" y="329.81" text-anchor="middle" style="font-size:8.8px;fill:#4d4d4d;font-family:Arial">Yes</text><text x="315.33" y="329.81" text-anchor="middle" style="font-size:8.8px;fill:#4d4d4d;font-family:Arial">Yes, but not with</text><text x="315.33" y="339.31" text-anchor="middle" style="font-size:8.8px;fill:#4d4d4d;font-family:Arial">the options I need</text><polyline points="376.93 321.2 376.93 318.46" style="stroke-width:1.07;stroke:#333;stroke-linecap:butt"/><polyline points="423.69 321.2 423.69 318.46" style="stroke-width:1.07;stroke:#333;stroke-linecap:butt"/><polyline points="470.46 321.2 470.46 318.46" style="stroke-width:1.07;stroke:#333;stroke-linecap:butt"/><text x="376.93" y="329.81" text-anchor="middle" style="font-size:8.8px;fill:#4d4d4d;font-family:Arial">No</text><text x="423.69" y="329.81" text-anchor="middle" style="font-size:8.8px;fill:#4d4d4d;font-family:Arial">Yes</text><text x="470.46" y="329.81" text-anchor="middle" style="font-size:8.8px;fill:#4d4d4d;font-family:Arial">Yes, but not with</text><text x="470.46" y="339.31" text-anchor="middle" style="font-size:8.8px;fill:#4d4d4d;font-family:Arial">the options I need</text><text x="33.67" y="309.04" text-anchor="end" style="font-size:8.8px;fill:#4d4d4d;font-family:Arial">0</text><text x="33.67" y="232.51" text-anchor="end" style="font-size:8.8px;fill:#4d4d4d;font-family:Arial">50</text><text x="33.67" y="155.98" text-anchor="end" style="font-size:8.8px;fill:#4d4d4d;font-family:Arial">100</text><text x="33.67" y="79.44" text-anchor="end" style="font-size:8.8px;fill:#4d4d4d;font-family:Arial">150</text><polyline points="35.86 305.83 38.6 305.83" style="stroke-width:1.07;stroke:#333;stroke-linecap:butt"/><polyline points="35.86 229.3 38.6 229.3" style="stroke-width:1.07;stroke:#333;stroke-linecap:butt"/><polyline points="35.86 152.77 38.6 152.77" style="stroke-width:1.07;stroke:#333;stroke-linecap:butt"/><polyline points="35.86 76.24 38.6 76.24" style="stroke-width:1.07;stroke:#333;stroke-linecap:butt"/><text x="268.56" y="352.1" text-anchor="middle" style="font-size:11px;font-family:Arial">Operating System</text><text text-anchor="middle" transform="translate(13.50,179.55) rotate(-90)" style="font-size:11px;font-family:Arial">Respondents</text><text x="38.6" y="15.1" style="font-size:13.2px;font-family:Arial">Is it easy to install GDAL?</text></g></svg>