<svg xmlns="http://www.w3.org/2000/svg" xmlns:xlink="http://www.w3.org/1999/xlink" width="672" height="480" class="svglite" viewBox="0 0 504 360"><defs><style type="text/css">.svglite polyline,.svglite rect{fill:none;stroke:#000;stroke-linecap:round;stroke-linejoin:round;stroke-miterlimit:10}</style></defs><rect width="100%" height="100%" style="stroke:none;fill:none"/><defs><clipPath id="cpMC4wMHw1MDQuMDB8MC4wMHwzNjAuMDA="><rect width="504" height="360" x="0" y="0"/></clipPath></defs><defs><clipPath id="cpMTE2Ljg3fDQ5OC41MnwyMy40NHwzMjcuOTc="><rect width="381.65" height="304.53" x="116.87" y="23.44"/></clipPath></defs><g clip-path="url(#cpMTE2Ljg3fDQ5OC41MnwyMy40NHwzMjcuOTc=)"><polyline points="169.48 327.97 169.48 23.44" style="stroke-width:.53;stroke:#fff;stroke-linecap:butt"/><polyline points="240 327.97 240 23.44" style="stroke-width:.53;stroke:#fff;stroke-linecap:butt"/><polyline points="310.51 327.97 310.51 23.44" style="stroke-width:.53;stroke:#fff;stroke-linecap:butt"/><polyline points="381.03 327.97 381.03 23.44" style="stroke-width:.53;stroke:#fff;stroke-linecap:butt"/><polyline points="451.55 327.97 451.55 23.44" style="stroke-width:.53;stroke:#fff;stroke-linecap:butt"/><polyline points="116.87 302.59 498.52 302.59" style="stroke-width:1.07;stroke:#fff;stroke-linecap:butt"/><polyline points="116.87 260.29 498.52 260.29" style="stroke-width:1.07;stroke:#fff;stroke-linecap:butt"/><polyline points="116.87 218 498.52 218" style="stroke-width:1.07;stroke:#fff;stroke-linecap:butt"/><polyline points="116.87 175.7 498.52 175.7" style="stroke-width:1.07;stroke:#fff;stroke-linecap:butt"/><polyline points="116.87 133.41 498.52 133.41" style="stroke-width:1.07;stroke:#fff;stroke-linecap:butt"/><polyline points="116.87 91.11 498.52 91.11" style="stroke-width:1.07;stroke:#fff;stroke-linecap:butt"/><polyline points="116.87 48.82 498.52 48.82" style="stroke-width:1.07;stroke:#fff;stroke-linecap:butt"/><polyline points="134.22 327.97 134.22 23.44" style="stroke-width:1.07;stroke:#fff;stroke-linecap:butt"/><polyline points="204.74 327.97 204.74 23.44" style="stroke-width:1.07;stroke:#fff;stroke-linecap:butt"/><polyline points="275.25 327.97 275.25 23.44" style="stroke-width:1.07;stroke:#fff;stroke-linecap:butt"/><polyline points="345.77 327.97 345.77 23.44" style="stroke-width:1.07;stroke:#fff;stroke-linecap:butt"/><polyline points="416.29 327.97 416.29 23.44" style="stroke-width:1.07;stroke:#fff;stroke-linecap:butt"/><polyline points="486.81 327.97 486.81 23.44" style="stroke-width:1.07;stroke:#fff;stroke-linecap:butt"/><rect width="262.33" height="38.07" x="134.22" y="156.67" style="stroke-width:1.07;stroke:none;stroke-linecap:butt;stroke-linejoin:miter;fill:#71c9f1"/><rect width="126.94" height="38.07" x="134.22" y="72.08" style="stroke-width:1.07;stroke:none;stroke-linecap:butt;stroke-linejoin:miter;fill:#71c9f1"/><rect width="346.96" height="38.07" x="134.22" y="283.56" style="stroke-width:1.07;stroke:none;stroke-linecap:butt;stroke-linejoin:miter;fill:#71c9f1"/><rect width="81.8" height="38.07" x="134.22" y="29.78" style="stroke-width:1.07;stroke:none;stroke-linecap:butt;stroke-linejoin:miter;fill:#71c9f1"/><rect width="284.9" height="38.07" x="134.22" y="198.96" style="stroke-width:1.07;stroke:none;stroke-linecap:butt;stroke-linejoin:miter;fill:#71c9f1"/><rect width="172.07" height="38.07" x="134.22" y="114.37" style="stroke-width:1.07;stroke:none;stroke-linecap:butt;stroke-linejoin:miter;fill:#71c9f1"/><rect width="321.57" height="38.07" x="134.22" y="241.26" style="stroke-width:1.07;stroke:none;stroke-linecap:butt;stroke-linejoin:miter;fill:#71c9f1"/></g><g clip-path="url(#cpMC4wMHw1MDQuMDB8MC4wMHwzNjAuMDA=)"><text x="111.94" y="305.8" text-anchor="end" style="font-size:8.8px;fill:#4d4d4d;font-family:Arial">Finding examples</text><text x="111.94" y="263.5" text-anchor="end" style="font-size:8.8px;fill:#4d4d4d;font-family:Arial">Understanding features</text><text x="111.94" y="221.21" text-anchor="end" style="font-size:8.8px;fill:#4d4d4d;font-family:Arial">Installation</text><text x="111.94" y="178.91" text-anchor="end" style="font-size:8.8px;fill:#4d4d4d;font-family:Arial">Constructing workflows</text><text x="111.94" y="136.61" text-anchor="end" style="font-size:8.8px;fill:#4d4d4d;font-family:Arial">Other</text><text x="111.94" y="94.32" text-anchor="end" style="font-size:8.8px;fill:#4d4d4d;font-family:Arial">Coordinate systems</text><text x="111.94" y="52.02" text-anchor="end" style="font-size:8.8px;fill:#4d4d4d;font-family:Arial">Formats</text><polyline points="114.13 302.59 116.87 302.59" style="stroke-width:1.07;stroke:#333;stroke-linecap:butt"/><polyline points="114.13 260.29 116.87 260.29" style="stroke-width:1.07;stroke:#333;stroke-linecap:butt"/><polyline points="114.13 218 116.87 218" style="stroke-width:1.07;stroke:#333;stroke-linecap:butt"/><polyline points="114.13 175.7 116.87 175.7" style="stroke-width:1.07;stroke:#333;stroke-linecap:butt"/><polyline points="114.13 133.41 116.87 133.41" style="stroke-width:1.07;stroke:#333;stroke-linecap:butt"/><polyline points="114.13 91.11 116.87 91.11" style="stroke-width:1.07;stroke:#333;stroke-linecap:butt"/><polyline points="114.13 48.82 116.87 48.82" style="stroke-width:1.07;stroke:#333;stroke-linecap:butt"/><polyline points="134.22 330.71 134.22 327.97" style="stroke-width:1.07;stroke:#333;stroke-linecap:butt"/><polyline points="204.74 330.71 204.74 327.97" style="stroke-width:1.07;stroke:#333;stroke-linecap:butt"/><polyline points="275.25 330.71 275.25 327.97" style="stroke-width:1.07;stroke:#333;stroke-linecap:butt"/><polyline points="345.77 330.71 345.77 327.97" style="stroke-width:1.07;stroke:#333;stroke-linecap:butt"/><polyline points="416.29 330.71 416.29 327.97" style="stroke-width:1.07;stroke:#333;stroke-linecap:butt"/><polyline points="486.81 330.71 486.81 327.97" style="stroke-width:1.07;stroke:#333;stroke-linecap:butt"/><text x="134.22" y="339.31" text-anchor="middle" style="font-size:8.8px;fill:#4d4d4d;font-family:Arial">0</text><text x="204.74" y="339.31" text-anchor="middle" style="font-size:8.8px;fill:#4d4d4d;font-family:Arial">25</text><text x="275.25" y="339.31" text-anchor="middle" style="font-size:8.8px;fill:#4d4d4d;font-family:Arial">50</text><text x="345.77" y="339.31" text-anchor="middle" style="font-size:8.8px;fill:#4d4d4d;font-family:Arial">75</text><text x="416.29" y="339.31" text-anchor="middle" style="font-size:8.8px;fill:#4d4d4d;font-family:Arial">100</text><text x="486.81" y="339.31" text-anchor="middle" style="font-size:8.8px;fill:#4d4d4d;font-family:Arial">125</text><text x="307.69" y="352.1" text-anchor="middle" style="font-size:11px;font-family:Arial">Number of respondents</text><text text-anchor="middle" transform="translate(13.50,175.70) rotate(-90)" style="font-size:11px;font-family:Arial">Topic</text><text x="116.87" y="15.1" style="font-size:13.2px;font-family:Arial">My most difficult GDAL usage challenge is...</text></g></svg>