<svg xmlns="http://www.w3.org/2000/svg" xmlns:xlink="http://www.w3.org/1999/xlink" width="672" height="480" class="svglite" viewBox="0 0 504 360"><defs><style type="text/css">.svglite polyline,.svglite rect{fill:none;stroke:#000;stroke-linecap:round;stroke-linejoin:round;stroke-miterlimit:10}</style></defs><rect width="100%" height="100%" style="stroke:none;fill:none"/><defs><clipPath id="cpMC4wMHw1MDQuMDB8MC4wMHwzNjAuMDA="><rect width="504" height="360" x="0" y="0"/></clipPath></defs><defs><clipPath id="cpMTQ3LjEzfDQ5OC41MnwyMy40NHwzMjcuOTc="><rect width="351.4" height="304.53" x="147.13" y="23.44"/></clipPath></defs><g clip-path="url(#cpMTQ3LjEzfDQ5OC41MnwyMy40NHwzMjcuOTc=)"><polyline points="203.53 327.97 203.53 23.44" style="stroke-width:.53;stroke:#fff;stroke-linecap:butt"/><polyline points="284.41 327.97 284.41 23.44" style="stroke-width:.53;stroke:#fff;stroke-linecap:butt"/><polyline points="365.28 327.97 365.28 23.44" style="stroke-width:.53;stroke:#fff;stroke-linecap:butt"/><polyline points="446.16 327.97 446.16 23.44" style="stroke-width:.53;stroke:#fff;stroke-linecap:butt"/><polyline points="147.13 302.59 498.52 302.59" style="stroke-width:1.07;stroke:#fff;stroke-linecap:butt"/><polyline points="147.13 260.29 498.52 260.29" style="stroke-width:1.07;stroke:#fff;stroke-linecap:butt"/><polyline points="147.13 218 498.52 218" style="stroke-width:1.07;stroke:#fff;stroke-linecap:butt"/><polyline points="147.13 175.7 498.52 175.7" style="stroke-width:1.07;stroke:#fff;stroke-linecap:butt"/><polyline points="147.13 133.41 498.52 133.41" style="stroke-width:1.07;stroke:#fff;stroke-linecap:butt"/><polyline points="147.13 91.11 498.52 91.11" style="stroke-width:1.07;stroke:#fff;stroke-linecap:butt"/><polyline points="147.13 48.82 498.52 48.82" style="stroke-width:1.07;stroke:#fff;stroke-linecap:butt"/><polyline points="163.1 327.97 163.1 23.44" style="stroke-width:1.07;stroke:#fff;stroke-linecap:butt"/><polyline points="243.97 327.97 243.97 23.44" style="stroke-width:1.07;stroke:#fff;stroke-linecap:butt"/><polyline points="324.84 327.97 324.84 23.44" style="stroke-width:1.07;stroke:#fff;stroke-linecap:butt"/><polyline points="405.72 327.97 405.72 23.44" style="stroke-width:1.07;stroke:#fff;stroke-linecap:butt"/><polyline points="486.59 327.97 486.59 23.44" style="stroke-width:1.07;stroke:#fff;stroke-linecap:butt"/><rect width="57.42" height="38.07" x="163.1" y="198.96" style="stroke-width:1.07;stroke:none;stroke-linecap:butt;stroke-linejoin:miter;fill:#71c9f1"/><rect width="12.13" height="38.07" x="163.1" y="114.37" style="stroke-width:1.07;stroke:none;stroke-linecap:butt;stroke-linejoin:miter;fill:#71c9f1"/><rect width="6.47" height="38.07" x="163.1" y="72.08" style="stroke-width:1.07;stroke:none;stroke-linecap:butt;stroke-linejoin:miter;fill:#71c9f1"/><rect width="319.45" height="38.07" x="163.1" y="283.56" style="stroke-width:1.07;stroke:none;stroke-linecap:butt;stroke-linejoin:miter;fill:#71c9f1"/><rect width="19.41" height="38.07" x="163.1" y="156.67" style="stroke-width:1.07;stroke:none;stroke-linecap:butt;stroke-linejoin:miter;fill:#71c9f1"/><rect width="59.04" height="38.07" x="163.1" y="241.26" style="stroke-width:1.07;stroke:none;stroke-linecap:butt;stroke-linejoin:miter;fill:#71c9f1"/><rect width="4.04" height="38.07" x="163.1" y="29.78" style="stroke-width:1.07;stroke:none;stroke-linecap:butt;stroke-linejoin:miter;fill:#71c9f1"/></g><g clip-path="url(#cpMC4wMHw1MDQuMDB8MC4wMHwzNjAuMDA=)"><text x="142.19" y="305.8" text-anchor="end" style="font-size:8.8px;fill:#4d4d4d;font-family:Arial">Local file systems</text><text x="142.19" y="263.5" text-anchor="end" style="font-size:8.8px;fill:#4d4d4d;font-family:Arial">Network file systems</text><text x="142.19" y="221.21" text-anchor="end" style="font-size:8.8px;fill:#4d4d4d;font-family:Arial">Cloud (s3, gcs, az)</text><text x="142.19" y="178.91" text-anchor="end" style="font-size:8.8px;fill:#4d4d4d;font-family:Arial">Memory</text><text x="142.19" y="136.61" text-anchor="end" style="font-size:8.8px;fill:#4d4d4d;font-family:Arial">Database</text><text x="142.19" y="94.32" text-anchor="end" style="font-size:8.8px;fill:#4d4d4d;font-family:Arial">HPC (Lustre, HDFS, IPFS, etc)</text><text x="142.19" y="52.02" text-anchor="end" style="font-size:8.8px;fill:#4d4d4d;font-family:Arial">Other</text><polyline points="144.39 302.59 147.13 302.59" style="stroke-width:1.07;stroke:#333;stroke-linecap:butt"/><polyline points="144.39 260.29 147.13 260.29" style="stroke-width:1.07;stroke:#333;stroke-linecap:butt"/><polyline points="144.39 218 147.13 218" style="stroke-width:1.07;stroke:#333;stroke-linecap:butt"/><polyline points="144.39 175.7 147.13 175.7" style="stroke-width:1.07;stroke:#333;stroke-linecap:butt"/><polyline points="144.39 133.41 147.13 133.41" style="stroke-width:1.07;stroke:#333;stroke-linecap:butt"/><polyline points="144.39 91.11 147.13 91.11" style="stroke-width:1.07;stroke:#333;stroke-linecap:butt"/><polyline points="144.39 48.82 147.13 48.82" style="stroke-width:1.07;stroke:#333;stroke-linecap:butt"/><polyline points="163.1 330.71 163.1 327.97" style="stroke-width:1.07;stroke:#333;stroke-linecap:butt"/><polyline points="243.97 330.71 243.97 327.97" style="stroke-width:1.07;stroke:#333;stroke-linecap:butt"/><polyline points="324.84 330.71 324.84 327.97" style="stroke-width:1.07;stroke:#333;stroke-linecap:butt"/><polyline points="405.72 330.71 405.72 327.97" style="stroke-width:1.07;stroke:#333;stroke-linecap:butt"/><polyline points="486.59 330.71 486.59 327.97" style="stroke-width:1.07;stroke:#333;stroke-linecap:butt"/><text x="163.1" y="339.31" text-anchor="middle" style="font-size:8.8px;fill:#4d4d4d;font-family:Arial">0</text><text x="243.97" y="339.31" text-anchor="middle" style="font-size:8.8px;fill:#4d4d4d;font-family:Arial">100</text><text x="324.84" y="339.31" text-anchor="middle" style="font-size:8.8px;fill:#4d4d4d;font-family:Arial">200</text><text x="405.72" y="339.31" text-anchor="middle" style="font-size:8.8px;fill:#4d4d4d;font-family:Arial">300</text><text x="486.59" y="339.31" text-anchor="middle" style="font-size:8.8px;fill:#4d4d4d;font-family:Arial">400</text><text x="322.82" y="352.1" text-anchor="middle" style="font-size:11px;font-family:Arial">Number of Respondents</text><text text-anchor="middle" transform="translate(13.50,175.70) rotate(-90)" style="font-size:11px;font-family:Arial">Location</text><text x="147.13" y="15.1" style="font-size:13.2px;font-family:Arial">I write most data with GDAL to...</text></g></svg>