<svg xmlns="http://www.w3.org/2000/svg" xmlns:xlink="http://www.w3.org/1999/xlink" width="672" height="480" class="svglite" viewBox="0 0 504 360"><defs><style type="text/css">.svglite polyline,.svglite rect{fill:none;stroke:#000;stroke-linecap:round;stroke-linejoin:round;stroke-miterlimit:10}</style></defs><rect width="100%" height="100%" style="stroke:none;fill:none"/><defs><clipPath id="cpMC4wMHw1MDQuMDB8MC4wMHwzNjAuMDA="><rect width="504" height="360" x="0" y="0"/></clipPath></defs><defs><clipPath id="cpMTQzLjkyfDQ5OC41MnwyMy40NHwzMjcuOTc="><rect width="354.6" height="304.53" x="143.92" y="23.44"/></clipPath></defs><g clip-path="url(#cpMTQzLjkyfDQ5OC41MnwyMy40NHwzMjcuOTc=)"><polyline points="206.58 327.97 206.58 23.44" style="stroke-width:.53;stroke:#fff;stroke-linecap:butt"/><polyline points="299.66 327.97 299.66 23.44" style="stroke-width:.53;stroke:#fff;stroke-linecap:butt"/><polyline points="392.73 327.97 392.73 23.44" style="stroke-width:.53;stroke:#fff;stroke-linecap:butt"/><polyline points="485.81 327.97 485.81 23.44" style="stroke-width:.53;stroke:#fff;stroke-linecap:butt"/><polyline points="143.92 311.65 498.52 311.65" style="stroke-width:1.07;stroke:#fff;stroke-linecap:butt"/><polyline points="143.92 284.46 498.52 284.46" style="stroke-width:1.07;stroke:#fff;stroke-linecap:butt"/><polyline points="143.92 257.27 498.52 257.27" style="stroke-width:1.07;stroke:#fff;stroke-linecap:butt"/><polyline points="143.92 230.08 498.52 230.08" style="stroke-width:1.07;stroke:#fff;stroke-linecap:butt"/><polyline points="143.92 202.89 498.52 202.89" style="stroke-width:1.07;stroke:#fff;stroke-linecap:butt"/><polyline points="143.92 175.7 498.52 175.7" style="stroke-width:1.07;stroke:#fff;stroke-linecap:butt"/><polyline points="143.92 148.51 498.52 148.51" style="stroke-width:1.07;stroke:#fff;stroke-linecap:butt"/><polyline points="143.92 121.32 498.52 121.32" style="stroke-width:1.07;stroke:#fff;stroke-linecap:butt"/><polyline points="143.92 94.13 498.52 94.13" style="stroke-width:1.07;stroke:#fff;stroke-linecap:butt"/><polyline points="143.92 66.94 498.52 66.94" style="stroke-width:1.07;stroke:#fff;stroke-linecap:butt"/><polyline points="143.92 39.75 498.52 39.75" style="stroke-width:1.07;stroke:#fff;stroke-linecap:butt"/><polyline points="160.04 327.97 160.04 23.44" style="stroke-width:1.07;stroke:#fff;stroke-linecap:butt"/><polyline points="253.12 327.97 253.12 23.44" style="stroke-width:1.07;stroke:#fff;stroke-linecap:butt"/><polyline points="346.2 327.97 346.2 23.44" style="stroke-width:1.07;stroke:#fff;stroke-linecap:butt"/><polyline points="439.27 327.97 439.27 23.44" style="stroke-width:1.07;stroke:#fff;stroke-linecap:butt"/><rect width="240.96" height="24.47" x="160.04" y="136.28" style="stroke-width:1.07;stroke:none;stroke-linecap:butt;stroke-linejoin:miter;fill:#71c9f1"/><rect width="279.57" height="24.47" x="160.04" y="217.85" style="stroke-width:1.07;stroke:none;stroke-linecap:butt;stroke-linejoin:miter;fill:#71c9f1"/><rect width="263.63" height="24.47" x="160.04" y="190.66" style="stroke-width:1.07;stroke:none;stroke-linecap:butt;stroke-linejoin:miter;fill:#71c9f1"/><rect width="218.97" height="24.47" x="160.04" y="54.71" style="stroke-width:1.07;stroke:none;stroke-linecap:butt;stroke-linejoin:miter;fill:#71c9f1"/><rect width="202.4" height="24.47" x="160.04" y="27.52" style="stroke-width:1.07;stroke:none;stroke-linecap:butt;stroke-linejoin:miter;fill:#71c9f1"/><rect width="319.27" height="24.47" x="160.04" y="272.23" style="stroke-width:1.07;stroke:none;stroke-linecap:butt;stroke-linejoin:miter;fill:#71c9f1"/><rect width="280.27" height="24.47" x="160.04" y="245.04" style="stroke-width:1.07;stroke:none;stroke-linecap:butt;stroke-linejoin:miter;fill:#71c9f1"/><rect width="236.35" height="24.47" x="160.04" y="109.09" style="stroke-width:1.07;stroke:none;stroke-linecap:butt;stroke-linejoin:miter;fill:#71c9f1"/><rect width="322.36" height="24.47" x="160.04" y="299.42" style="stroke-width:1.07;stroke:none;stroke-linecap:butt;stroke-linejoin:miter;fill:#71c9f1"/><rect width="225.92" height="24.47" x="160.04" y="81.9" style="stroke-width:1.07;stroke:none;stroke-linecap:butt;stroke-linejoin:miter;fill:#71c9f1"/><rect width="254.22" height="24.47" x="160.04" y="163.47" style="stroke-width:1.07;stroke:none;stroke-linecap:butt;stroke-linejoin:miter;fill:#71c9f1"/></g><g clip-path="url(#cpMC4wMHw1MDQuMDB8MC4wMHwzNjAuMDA=)"><text x="138.99" y="314.86" text-anchor="end" style="font-size:8.8px;fill:#4d4d4d;font-family:Arial">Performance</text><text x="138.99" y="287.67" text-anchor="end" style="font-size:8.8px;fill:#4d4d4d;font-family:Arial">Format compatibility</text><text x="138.99" y="260.48" text-anchor="end" style="font-size:8.8px;fill:#4d4d4d;font-family:Arial">Integration with other software</text><text x="138.99" y="233.29" text-anchor="end" style="font-size:8.8px;fill:#4d4d4d;font-family:Arial">Command line</text><text x="138.99" y="206.1" text-anchor="end" style="font-size:8.8px;fill:#4d4d4d;font-family:Arial">Command line compatibility</text><text x="138.99" y="178.91" text-anchor="end" style="font-size:8.8px;fill:#4d4d4d;font-family:Arial">VSI features</text><text x="138.99" y="151.72" text-anchor="end" style="font-size:8.8px;fill:#4d4d4d;font-family:Arial">Backward compatibility</text><text x="138.99" y="124.53" text-anchor="end" style="font-size:8.8px;fill:#4d4d4d;font-family:Arial">More formats</text><text x="138.99" y="97.34" text-anchor="end" style="font-size:8.8px;fill:#4d4d4d;font-family:Arial">Static builds</text><text x="138.99" y="70.15" text-anchor="end" style="font-size:8.8px;fill:#4d4d4d;font-family:Arial">Compiler compatibility</text><text x="138.99" y="42.96" text-anchor="end" style="font-size:8.8px;fill:#4d4d4d;font-family:Arial">Deprecation of unused drivers</text><polyline points="141.18 311.65 143.92 311.65" style="stroke-width:1.07;stroke:#333;stroke-linecap:butt"/><polyline points="141.18 284.46 143.92 284.46" style="stroke-width:1.07;stroke:#333;stroke-linecap:butt"/><polyline points="141.18 257.27 143.92 257.27" style="stroke-width:1.07;stroke:#333;stroke-linecap:butt"/><polyline points="141.18 230.08 143.92 230.08" style="stroke-width:1.07;stroke:#333;stroke-linecap:butt"/><polyline points="141.18 202.89 143.92 202.89" style="stroke-width:1.07;stroke:#333;stroke-linecap:butt"/><polyline points="141.18 175.7 143.92 175.7" style="stroke-width:1.07;stroke:#333;stroke-linecap:butt"/><polyline points="141.18 148.51 143.92 148.51" style="stroke-width:1.07;stroke:#333;stroke-linecap:butt"/><polyline points="141.18 121.32 143.92 121.32" style="stroke-width:1.07;stroke:#333;stroke-linecap:butt"/><polyline points="141.18 94.13 143.92 94.13" style="stroke-width:1.07;stroke:#333;stroke-linecap:butt"/><polyline points="141.18 66.94 143.92 66.94" style="stroke-width:1.07;stroke:#333;stroke-linecap:butt"/><polyline points="141.18 39.75 143.92 39.75" style="stroke-width:1.07;stroke:#333;stroke-linecap:butt"/><polyline points="160.04 330.71 160.04 327.97" style="stroke-width:1.07;stroke:#333;stroke-linecap:butt"/><polyline points="253.12 330.71 253.12 327.97" style="stroke-width:1.07;stroke:#333;stroke-linecap:butt"/><polyline points="346.2 330.71 346.2 327.97" style="stroke-width:1.07;stroke:#333;stroke-linecap:butt"/><polyline points="439.27 330.71 439.27 327.97" style="stroke-width:1.07;stroke:#333;stroke-linecap:butt"/><text x="160.04" y="339.31" text-anchor="middle" style="font-size:8.8px;fill:#4d4d4d;font-family:Arial">0</text><text x="253.12" y="339.31" text-anchor="middle" style="font-size:8.8px;fill:#4d4d4d;font-family:Arial">1</text><text x="346.2" y="339.31" text-anchor="middle" style="font-size:8.8px;fill:#4d4d4d;font-family:Arial">2</text><text x="439.27" y="339.31" text-anchor="middle" style="font-size:8.8px;fill:#4d4d4d;font-family:Arial">3</text><text x="321.22" y="352.1" text-anchor="middle" style="font-size:11px;font-family:Arial">Average priority</text><text text-anchor="middle" transform="translate(13.50,175.70) rotate(-90)" style="font-size:11px;font-family:Arial">Area of focus</text><text x="143.92" y="15.1" style="font-size:13.2px;font-family:Arial">Maintenance program priority rankings</text></g></svg>