<svg xmlns="http://www.w3.org/2000/svg" xmlns:xlink="http://www.w3.org/1999/xlink" width="672" height="480" class="svglite" viewBox="0 0 504 360"><defs><style type="text/css">.svglite polyline,.svglite rect{fill:none;stroke:#000;stroke-linecap:round;stroke-linejoin:round;stroke-miterlimit:10}</style></defs><rect width="100%" height="100%" style="stroke:none;fill:none"/><defs><clipPath id="cpMC4wMHw1MDQuMDB8MC4wMHwzNjAuMDA="><rect width="504" height="360" x="0" y="0"/></clipPath></defs><defs><clipPath id="cpNjAuNjB8NDk4LjUyfDIzLjQ0fDMyNy45Nw=="><rect width="437.92" height="304.53" x="60.6" y="23.44"/></clipPath></defs><g clip-path="url(#cpNjAuNjB8NDk4LjUyfDIzLjQ0fDMyNy45Nw==)"><polyline points="146.86 327.97 146.86 23.44" style="stroke-width:.53;stroke:#fff;stroke-linecap:butt"/><polyline points="279.56 327.97 279.56 23.44" style="stroke-width:.53;stroke:#fff;stroke-linecap:butt"/><polyline points="412.26 327.97 412.26 23.44" style="stroke-width:.53;stroke:#fff;stroke-linecap:butt"/><polyline points="60.6 292.83 498.52 292.83" style="stroke-width:1.07;stroke:#fff;stroke-linecap:butt"/><polyline points="60.6 234.27 498.52 234.27" style="stroke-width:1.07;stroke:#fff;stroke-linecap:butt"/><polyline points="60.6 175.7 498.52 175.7" style="stroke-width:1.07;stroke:#fff;stroke-linecap:butt"/><polyline points="60.6 117.14 498.52 117.14" style="stroke-width:1.07;stroke:#fff;stroke-linecap:butt"/><polyline points="60.6 58.58 498.52 58.58" style="stroke-width:1.07;stroke:#fff;stroke-linecap:butt"/><polyline points="80.5 327.97 80.5 23.44" style="stroke-width:1.07;stroke:#fff;stroke-linecap:butt"/><polyline points="213.21 327.97 213.21 23.44" style="stroke-width:1.07;stroke:#fff;stroke-linecap:butt"/><polyline points="345.91 327.97 345.91 23.44" style="stroke-width:1.07;stroke:#fff;stroke-linecap:butt"/><polyline points="478.62 327.97 478.62 23.44" style="stroke-width:1.07;stroke:#fff;stroke-linecap:butt"/><rect width="2.65" height="52.71" x="80.5" y="32.22" style="stroke-width:1.07;stroke:none;stroke-linecap:butt;stroke-linejoin:miter;fill:#71c9f1"/><rect width="398.11" height="52.71" x="80.5" y="266.48" style="stroke-width:1.07;stroke:none;stroke-linecap:butt;stroke-linejoin:miter;fill:#71c9f1"/><rect width="106.16" height="52.71" x="80.5" y="149.35" style="stroke-width:1.07;stroke:none;stroke-linecap:butt;stroke-linejoin:miter;fill:#71c9f1"/><rect width="3.98" height="52.71" x="80.5" y="90.79" style="stroke-width:1.07;stroke:none;stroke-linecap:butt;stroke-linejoin:miter;fill:#71c9f1"/><rect width="283.99" height="52.71" x="80.5" y="207.91" style="stroke-width:1.07;stroke:none;stroke-linecap:butt;stroke-linejoin:miter;fill:#71c9f1"/></g><g clip-path="url(#cpMC4wMHw1MDQuMDB8MC4wMHwzNjAuMDA=)"><text x="55.67" y="296.04" text-anchor="end" style="font-size:8.8px;fill:#4d4d4d;font-family:Arial">Linux</text><text x="55.67" y="237.47" text-anchor="end" style="font-size:8.8px;fill:#4d4d4d;font-family:Arial">Windows</text><text x="55.67" y="178.91" text-anchor="end" style="font-size:8.8px;fill:#4d4d4d;font-family:Arial">OSX</text><text x="55.67" y="120.35" text-anchor="end" style="font-size:8.8px;fill:#4d4d4d;font-family:Arial">Other</text><text x="55.67" y="61.78" text-anchor="end" style="font-size:8.8px;fill:#4d4d4d;font-family:Arial">FreeBSD</text><polyline points="57.86 292.83 60.6 292.83" style="stroke-width:1.07;stroke:#333;stroke-linecap:butt"/><polyline points="57.86 234.27 60.6 234.27" style="stroke-width:1.07;stroke:#333;stroke-linecap:butt"/><polyline points="57.86 175.7 60.6 175.7" style="stroke-width:1.07;stroke:#333;stroke-linecap:butt"/><polyline points="57.86 117.14 60.6 117.14" style="stroke-width:1.07;stroke:#333;stroke-linecap:butt"/><polyline points="57.86 58.58 60.6 58.58" style="stroke-width:1.07;stroke:#333;stroke-linecap:butt"/><polyline points="80.5 330.71 80.5 327.97" style="stroke-width:1.07;stroke:#333;stroke-linecap:butt"/><polyline points="213.21 330.71 213.21 327.97" style="stroke-width:1.07;stroke:#333;stroke-linecap:butt"/><polyline points="345.91 330.71 345.91 327.97" style="stroke-width:1.07;stroke:#333;stroke-linecap:butt"/><polyline points="478.62 330.71 478.62 327.97" style="stroke-width:1.07;stroke:#333;stroke-linecap:butt"/><text x="80.5" y="339.31" text-anchor="middle" style="font-size:8.8px;fill:#4d4d4d;font-family:Arial">0</text><text x="213.21" y="339.31" text-anchor="middle" style="font-size:8.8px;fill:#4d4d4d;font-family:Arial">100</text><text x="345.91" y="339.31" text-anchor="middle" style="font-size:8.8px;fill:#4d4d4d;font-family:Arial">200</text><text x="478.62" y="339.31" text-anchor="middle" style="font-size:8.8px;fill:#4d4d4d;font-family:Arial">300</text><text x="279.56" y="352.1" text-anchor="middle" style="font-size:11px;font-family:Arial">Number of Respondents</text><text text-anchor="middle" transform="translate(13.50,175.70) rotate(-90)" style="font-size:11px;font-family:Arial">Operating System</text><text x="60.6" y="15.1" style="font-size:13.2px;font-family:Arial">The operating system I execute GDAL on most is...</text></g></svg>