<svg xmlns="http://www.w3.org/2000/svg" xmlns:xlink="http://www.w3.org/1999/xlink" width="672" height="480" class="svglite" viewBox="0 0 504 360"><defs><style type="text/css">.svglite polyline,.svglite rect{fill:none;stroke:#000;stroke-linecap:round;stroke-linejoin:round;stroke-miterlimit:10}</style></defs><rect width="100%" height="100%" style="stroke:none;fill:none"/><defs><clipPath id="cpMC4wMHw1MDQuMDB8MC4wMHwzNjAuMDA="><rect width="504" height="360" x="0" y="0"/></clipPath></defs><defs><clipPath id="cpOTMuNjJ8NDk4LjUyfDIzLjQ0fDMyNy45Nw=="><rect width="404.9" height="304.53" x="93.62" y="23.44"/></clipPath></defs><g clip-path="url(#cpOTMuNjJ8NDk4LjUyfDIzLjQ0fDMyNy45Nw==)"><polyline points="181.87 327.97 181.87 23.44" style="stroke-width:.53;stroke:#fff;stroke-linecap:butt"/><polyline points="321.56 327.97 321.56 23.44" style="stroke-width:.53;stroke:#fff;stroke-linecap:butt"/><polyline points="461.26 327.97 461.26 23.44" style="stroke-width:.53;stroke:#fff;stroke-linecap:butt"/><polyline points="93.62 308.11 498.52 308.11" style="stroke-width:1.07;stroke:#fff;stroke-linecap:butt"/><polyline points="93.62 275.01 498.52 275.01" style="stroke-width:1.07;stroke:#fff;stroke-linecap:butt"/><polyline points="93.62 241.9 498.52 241.9" style="stroke-width:1.07;stroke:#fff;stroke-linecap:butt"/><polyline points="93.62 208.8 498.52 208.8" style="stroke-width:1.07;stroke:#fff;stroke-linecap:butt"/><polyline points="93.62 175.7 498.52 175.7" style="stroke-width:1.07;stroke:#fff;stroke-linecap:butt"/><polyline points="93.62 142.6 498.52 142.6" style="stroke-width:1.07;stroke:#fff;stroke-linecap:butt"/><polyline points="93.62 109.5 498.52 109.5" style="stroke-width:1.07;stroke:#fff;stroke-linecap:butt"/><polyline points="93.62 76.4 498.52 76.4" style="stroke-width:1.07;stroke:#fff;stroke-linecap:butt"/><polyline points="93.62 43.3 498.52 43.3" style="stroke-width:1.07;stroke:#fff;stroke-linecap:butt"/><polyline points="112.03 327.97 112.03 23.44" style="stroke-width:1.07;stroke:#fff;stroke-linecap:butt"/><polyline points="251.72 327.97 251.72 23.44" style="stroke-width:1.07;stroke:#fff;stroke-linecap:butt"/><polyline points="391.41 327.97 391.41 23.44" style="stroke-width:1.07;stroke:#fff;stroke-linecap:butt"/><rect width="1.4" height="29.79" x="112.03" y="94.61" style="stroke-width:1.07;stroke:none;stroke-linecap:butt;stroke-linejoin:miter;fill:#71c9f1"/><rect width="1.4" height="29.79" x="112.03" y="61.5" style="stroke-width:1.07;stroke:none;stroke-linecap:butt;stroke-linejoin:miter;fill:#71c9f1"/><rect width="6.98" height="29.79" x="112.03" y="193.91" style="stroke-width:1.07;stroke:none;stroke-linecap:butt;stroke-linejoin:miter;fill:#71c9f1"/><rect width="368.09" height="29.79" x="112.03" y="293.21" style="stroke-width:1.07;stroke:none;stroke-linecap:butt;stroke-linejoin:miter;fill:#71c9f1"/><rect width="11.87" height="29.79" x="112.03" y="260.11" style="stroke-width:1.07;stroke:none;stroke-linecap:butt;stroke-linejoin:miter;fill:#71c9f1"/><rect width="2.79" height="29.79" x="112.03" y="127.71" style="stroke-width:1.07;stroke:none;stroke-linecap:butt;stroke-linejoin:miter;fill:#71c9f1"/><rect width="1.4" height="29.79" x="112.03" y="28.4" style="stroke-width:1.07;stroke:none;stroke-linecap:butt;stroke-linejoin:miter;fill:#71c9f1"/><rect width="8.38" height="29.79" x="112.03" y="227.01" style="stroke-width:1.07;stroke:none;stroke-linecap:butt;stroke-linejoin:miter;fill:#71c9f1"/><rect width="6.98" height="29.79" x="112.03" y="160.81" style="stroke-width:1.07;stroke:none;stroke-linecap:butt;stroke-linejoin:miter;fill:#71c9f1"/></g><g clip-path="url(#cpMC4wMHw1MDQuMDB8MC4wMHwzNjAuMDA=)"><text x="88.69" y="311.31" text-anchor="end" style="font-size:8.8px;fill:#4d4d4d;font-family:Arial">GeoTIFF / COG</text><text x="88.69" y="278.21" text-anchor="end" style="font-size:8.8px;fill:#4d4d4d;font-family:Arial">HDF/NetCDF</text><text x="88.69" y="245.11" text-anchor="end" style="font-size:8.8px;fill:#4d4d4d;font-family:Arial">Other</text><text x="88.69" y="212.01" text-anchor="end" style="font-size:8.8px;fill:#4d4d4d;font-family:Arial">GeoPackage</text><text x="88.69" y="178.91" text-anchor="end" style="font-size:8.8px;fill:#4d4d4d;font-family:Arial">Rendered tilesets</text><text x="88.69" y="145.81" text-anchor="end" style="font-size:8.8px;fill:#4d4d4d;font-family:Arial">JPEG/JPEG2000</text><text x="88.69" y="112.71" text-anchor="end" style="font-size:8.8px;fill:#4d4d4d;font-family:Arial">ECW</text><text x="88.69" y="79.61" text-anchor="end" style="font-size:8.8px;fill:#4d4d4d;font-family:Arial">ENVI</text><text x="88.69" y="46.51" text-anchor="end" style="font-size:8.8px;fill:#4d4d4d;font-family:Arial">KEA</text><polyline points="90.88 308.11 93.62 308.11" style="stroke-width:1.07;stroke:#333;stroke-linecap:butt"/><polyline points="90.88 275.01 93.62 275.01" style="stroke-width:1.07;stroke:#333;stroke-linecap:butt"/><polyline points="90.88 241.9 93.62 241.9" style="stroke-width:1.07;stroke:#333;stroke-linecap:butt"/><polyline points="90.88 208.8 93.62 208.8" style="stroke-width:1.07;stroke:#333;stroke-linecap:butt"/><polyline points="90.88 175.7 93.62 175.7" style="stroke-width:1.07;stroke:#333;stroke-linecap:butt"/><polyline points="90.88 142.6 93.62 142.6" style="stroke-width:1.07;stroke:#333;stroke-linecap:butt"/><polyline points="90.88 109.5 93.62 109.5" style="stroke-width:1.07;stroke:#333;stroke-linecap:butt"/><polyline points="90.88 76.4 93.62 76.4" style="stroke-width:1.07;stroke:#333;stroke-linecap:butt"/><polyline points="90.88 43.3 93.62 43.3" style="stroke-width:1.07;stroke:#333;stroke-linecap:butt"/><polyline points="112.03 330.71 112.03 327.97" style="stroke-width:1.07;stroke:#333;stroke-linecap:butt"/><polyline points="251.72 330.71 251.72 327.97" style="stroke-width:1.07;stroke:#333;stroke-linecap:butt"/><polyline points="391.41 330.71 391.41 327.97" style="stroke-width:1.07;stroke:#333;stroke-linecap:butt"/><text x="112.03" y="339.31" text-anchor="middle" style="font-size:8.8px;fill:#4d4d4d;font-family:Arial">0</text><text x="251.72" y="339.31" text-anchor="middle" style="font-size:8.8px;fill:#4d4d4d;font-family:Arial">200</text><text x="391.41" y="339.31" text-anchor="middle" style="font-size:8.8px;fill:#4d4d4d;font-family:Arial">400</text><text x="296.07" y="352.1" text-anchor="middle" style="font-size:11px;font-family:Arial">Number of Respondents</text><text text-anchor="middle" transform="translate(13.50,175.70) rotate(-90)" style="font-size:11px;font-family:Arial">Format</text><text x="93.62" y="15.1" style="font-size:13.2px;font-family:Arial">Most common raster format usage</text></g></svg>