<svg xmlns="http://www.w3.org/2000/svg" xmlns:xlink="http://www.w3.org/1999/xlink" width="672" height="480" class="svglite" viewBox="0 0 504 360"><defs><style type="text/css">.svglite polyline,.svglite rect{fill:none;stroke:#000;stroke-linecap:round;stroke-linejoin:round;stroke-miterlimit:10}</style></defs><rect width="100%" height="100%" style="stroke:none;fill:none"/><defs><clipPath id="cpMC4wMHw1MDQuMDB8MC4wMHwzNjAuMDA="><rect width="504" height="360" x="0" y="0"/></clipPath></defs><defs><clipPath id="cpMTEwLjI2fDQ5OC41MnwyMy40NHwzMjcuOTc="><rect width="388.26" height="304.53" x="110.26" y="23.44"/></clipPath></defs><g clip-path="url(#cpMTEwLjI2fDQ5OC41MnwyMy40NHwzMjcuOTc=)"><polyline points="171.59 327.97 171.59 23.44" style="stroke-width:.53;stroke:#fff;stroke-linecap:butt"/><polyline points="258.96 327.97 258.96 23.44" style="stroke-width:.53;stroke:#fff;stroke-linecap:butt"/><polyline points="346.33 327.97 346.33 23.44" style="stroke-width:.53;stroke:#fff;stroke-linecap:butt"/><polyline points="433.69 327.97 433.69 23.44" style="stroke-width:.53;stroke:#fff;stroke-linecap:butt"/><polyline points="110.26 308.11 498.52 308.11" style="stroke-width:1.07;stroke:#fff;stroke-linecap:butt"/><polyline points="110.26 275.01 498.52 275.01" style="stroke-width:1.07;stroke:#fff;stroke-linecap:butt"/><polyline points="110.26 241.9 498.52 241.9" style="stroke-width:1.07;stroke:#fff;stroke-linecap:butt"/><polyline points="110.26 208.8 498.52 208.8" style="stroke-width:1.07;stroke:#fff;stroke-linecap:butt"/><polyline points="110.26 175.7 498.52 175.7" style="stroke-width:1.07;stroke:#fff;stroke-linecap:butt"/><polyline points="110.26 142.6 498.52 142.6" style="stroke-width:1.07;stroke:#fff;stroke-linecap:butt"/><polyline points="110.26 109.5 498.52 109.5" style="stroke-width:1.07;stroke:#fff;stroke-linecap:butt"/><polyline points="110.26 76.4 498.52 76.4" style="stroke-width:1.07;stroke:#fff;stroke-linecap:butt"/><polyline points="110.26 43.3 498.52 43.3" style="stroke-width:1.07;stroke:#fff;stroke-linecap:butt"/><polyline points="127.91 327.97 127.91 23.44" style="stroke-width:1.07;stroke:#fff;stroke-linecap:butt"/><polyline points="215.28 327.97 215.28 23.44" style="stroke-width:1.07;stroke:#fff;stroke-linecap:butt"/><polyline points="302.64 327.97 302.64 23.44" style="stroke-width:1.07;stroke:#fff;stroke-linecap:butt"/><polyline points="390.01 327.97 390.01 23.44" style="stroke-width:1.07;stroke:#fff;stroke-linecap:butt"/><polyline points="477.38 327.97 477.38 23.44" style="stroke-width:1.07;stroke:#fff;stroke-linecap:butt"/><rect width="36.69" height="29.79" x="127.91" y="160.81" style="stroke-width:1.07;stroke:none;stroke-linecap:butt;stroke-linejoin:miter;fill:#71c9f1"/><rect width="31.45" height="29.79" x="127.91" y="94.61" style="stroke-width:1.07;stroke:none;stroke-linecap:butt;stroke-linejoin:miter;fill:#71c9f1"/><rect width="15.73" height="29.79" x="127.91" y="61.5" style="stroke-width:1.07;stroke:none;stroke-linecap:butt;stroke-linejoin:miter;fill:#71c9f1"/><rect width="167.74" height="29.79" x="127.91" y="227.01" style="stroke-width:1.07;stroke:none;stroke-linecap:butt;stroke-linejoin:miter;fill:#71c9f1"/><rect width="352.96" height="29.79" x="127.91" y="293.21" style="stroke-width:1.07;stroke:none;stroke-linecap:butt;stroke-linejoin:miter;fill:#71c9f1"/><rect width="3.49" height="29.79" x="127.91" y="28.4" style="stroke-width:1.07;stroke:none;stroke-linecap:butt;stroke-linejoin:miter;fill:#71c9f1"/><rect width="34.95" height="29.79" x="127.91" y="127.71" style="stroke-width:1.07;stroke:none;stroke-linecap:butt;stroke-linejoin:miter;fill:#71c9f1"/><rect width="145.03" height="29.79" x="127.91" y="193.91" style="stroke-width:1.07;stroke:none;stroke-linecap:butt;stroke-linejoin:miter;fill:#71c9f1"/><rect width="223.66" height="29.79" x="127.91" y="260.11" style="stroke-width:1.07;stroke:none;stroke-linecap:butt;stroke-linejoin:miter;fill:#71c9f1"/></g><g clip-path="url(#cpMC4wMHw1MDQuMDB8MC4wMHwzNjAuMDA=)"><text x="105.33" y="311.31" text-anchor="end" style="font-size:8.8px;fill:#4d4d4d;font-family:Arial">GeoPackage</text><text x="105.33" y="278.21" text-anchor="end" style="font-size:8.8px;fill:#4d4d4d;font-family:Arial">Shapefile</text><text x="105.33" y="245.11" text-anchor="end" style="font-size:8.8px;fill:#4d4d4d;font-family:Arial">GeoJSON</text><text x="105.33" y="212.01" text-anchor="end" style="font-size:8.8px;fill:#4d4d4d;font-family:Arial">PostGIS</text><text x="105.33" y="178.91" text-anchor="end" style="font-size:8.8px;fill:#4d4d4d;font-family:Arial">(Geo)Parquet</text><text x="105.33" y="145.81" text-anchor="end" style="font-size:8.8px;fill:#4d4d4d;font-family:Arial">Other</text><text x="105.33" y="112.71" text-anchor="end" style="font-size:8.8px;fill:#4d4d4d;font-family:Arial">Esri FileGeodatabase</text><text x="105.33" y="79.61" text-anchor="end" style="font-size:8.8px;fill:#4d4d4d;font-family:Arial">FlatGeobuf</text><text x="105.33" y="46.51" text-anchor="end" style="font-size:8.8px;fill:#4d4d4d;font-family:Arial">GML</text><polyline points="107.52 308.11 110.26 308.11" style="stroke-width:1.07;stroke:#333;stroke-linecap:butt"/><polyline points="107.52 275.01 110.26 275.01" style="stroke-width:1.07;stroke:#333;stroke-linecap:butt"/><polyline points="107.52 241.9 110.26 241.9" style="stroke-width:1.07;stroke:#333;stroke-linecap:butt"/><polyline points="107.52 208.8 110.26 208.8" style="stroke-width:1.07;stroke:#333;stroke-linecap:butt"/><polyline points="107.52 175.7 110.26 175.7" style="stroke-width:1.07;stroke:#333;stroke-linecap:butt"/><polyline points="107.52 142.6 110.26 142.6" style="stroke-width:1.07;stroke:#333;stroke-linecap:butt"/><polyline points="107.52 109.5 110.26 109.5" style="stroke-width:1.07;stroke:#333;stroke-linecap:butt"/><polyline points="107.52 76.4 110.26 76.4" style="stroke-width:1.07;stroke:#333;stroke-linecap:butt"/><polyline points="107.52 43.3 110.26 43.3" style="stroke-width:1.07;stroke:#333;stroke-linecap:butt"/><polyline points="127.91 330.71 127.91 327.97" style="stroke-width:1.07;stroke:#333;stroke-linecap:butt"/><polyline points="215.28 330.71 215.28 327.97" style="stroke-width:1.07;stroke:#333;stroke-linecap:butt"/><polyline points="302.64 330.71 302.64 327.97" style="stroke-width:1.07;stroke:#333;stroke-linecap:butt"/><polyline points="390.01 330.71 390.01 327.97" style="stroke-width:1.07;stroke:#333;stroke-linecap:butt"/><polyline points="477.38 330.71 477.38 327.97" style="stroke-width:1.07;stroke:#333;stroke-linecap:butt"/><text x="127.91" y="339.31" text-anchor="middle" style="font-size:8.8px;fill:#4d4d4d;font-family:Arial">0</text><text x="215.28" y="339.31" text-anchor="middle" style="font-size:8.8px;fill:#4d4d4d;font-family:Arial">50</text><text x="302.64" y="339.31" text-anchor="middle" style="font-size:8.8px;fill:#4d4d4d;font-family:Arial">100</text><text x="390.01" y="339.31" text-anchor="middle" style="font-size:8.8px;fill:#4d4d4d;font-family:Arial">150</text><text x="477.38" y="339.31" text-anchor="middle" style="font-size:8.8px;fill:#4d4d4d;font-family:Arial">200</text><text x="304.39" y="352.1" text-anchor="middle" style="font-size:11px;font-family:Arial">Number of Respondents</text><text text-anchor="middle" transform="translate(13.50,175.70) rotate(-90)" style="font-size:11px;font-family:Arial">Format</text><text x="110.26" y="15.1" style="font-size:13.2px;font-family:Arial">Most common vector format usage</text></g></svg>