<svg xmlns="http://www.w3.org/2000/svg" xmlns:xlink="http://www.w3.org/1999/xlink" width="672" height="480" class="svglite" viewBox="0 0 504 360"><defs><style type="text/css">.svglite polyline,.svglite rect{fill:none;stroke:#000;stroke-linecap:round;stroke-linejoin:round;stroke-miterlimit:10}</style></defs><rect width="100%" height="100%" style="stroke:none;fill:none"/><defs><clipPath id="cpMC4wMHw1MDQuMDB8MC4wMHwzNjAuMDA="><rect width="504" height="360" x="0" y="0"/></clipPath></defs><defs><clipPath id="cpMTkzLjgyfDQ5OC41MnwyMy40NHwzMjcuOTc="><rect width="304.7" height="304.53" x="193.82" y="23.44"/></clipPath></defs><g clip-path="url(#cpMTkzLjgyfDQ5OC41MnwyMy40NHwzMjcuOTc=)"><polyline points="240.33 327.97 240.33 23.44" style="stroke-width:.53;stroke:#fff;stroke-linecap:butt"/><polyline points="305.66 327.97 305.66 23.44" style="stroke-width:.53;stroke:#fff;stroke-linecap:butt"/><polyline points="370.99 327.97 370.99 23.44" style="stroke-width:.53;stroke:#fff;stroke-linecap:butt"/><polyline points="436.33 327.97 436.33 23.44" style="stroke-width:.53;stroke:#fff;stroke-linecap:butt"/><polyline points="193.82 310.05 498.52 310.05" style="stroke-width:1.07;stroke:#fff;stroke-linecap:butt"/><polyline points="193.82 280.2 498.52 280.2" style="stroke-width:1.07;stroke:#fff;stroke-linecap:butt"/><polyline points="193.82 250.34 498.52 250.34" style="stroke-width:1.07;stroke:#fff;stroke-linecap:butt"/><polyline points="193.82 220.49 498.52 220.49" style="stroke-width:1.07;stroke:#fff;stroke-linecap:butt"/><polyline points="193.82 190.63 498.52 190.63" style="stroke-width:1.07;stroke:#fff;stroke-linecap:butt"/><polyline points="193.82 160.77 498.52 160.77" style="stroke-width:1.07;stroke:#fff;stroke-linecap:butt"/><polyline points="193.82 130.92 498.52 130.92" style="stroke-width:1.07;stroke:#fff;stroke-linecap:butt"/><polyline points="193.82 101.06 498.52 101.06" style="stroke-width:1.07;stroke:#fff;stroke-linecap:butt"/><polyline points="193.82 71.21 498.52 71.21" style="stroke-width:1.07;stroke:#fff;stroke-linecap:butt"/><polyline points="193.82 41.35 498.52 41.35" style="stroke-width:1.07;stroke:#fff;stroke-linecap:butt"/><polyline points="207.67 327.97 207.67 23.44" style="stroke-width:1.07;stroke:#fff;stroke-linecap:butt"/><polyline points="273 327.97 273 23.44" style="stroke-width:1.07;stroke:#fff;stroke-linecap:butt"/><polyline points="338.33 327.97 338.33 23.44" style="stroke-width:1.07;stroke:#fff;stroke-linecap:butt"/><polyline points="403.66 327.97 403.66 23.44" style="stroke-width:1.07;stroke:#fff;stroke-linecap:butt"/><polyline points="468.99 327.97 468.99 23.44" style="stroke-width:1.07;stroke:#fff;stroke-linecap:butt"/><rect width="26.13" height="26.87" x="207.67" y="117.48" style="stroke-width:1.07;stroke:none;stroke-linecap:butt;stroke-linejoin:miter;fill:#71c9f1"/><rect width="6.53" height="26.87" x="207.67" y="27.92" style="stroke-width:1.07;stroke:none;stroke-linecap:butt;stroke-linejoin:miter;fill:#71c9f1"/><rect width="277" height="26.87" x="207.67" y="296.62" style="stroke-width:1.07;stroke:none;stroke-linecap:butt;stroke-linejoin:miter;fill:#71c9f1"/><rect width="160.71" height="26.87" x="207.67" y="266.76" style="stroke-width:1.07;stroke:none;stroke-linecap:butt;stroke-linejoin:miter;fill:#71c9f1"/><rect width="9.15" height="26.87" x="207.67" y="57.77" style="stroke-width:1.07;stroke:none;stroke-linecap:butt;stroke-linejoin:miter;fill:#71c9f1"/><rect width="44.42" height="26.87" x="207.67" y="177.2" style="stroke-width:1.07;stroke:none;stroke-linecap:butt;stroke-linejoin:miter;fill:#71c9f1"/><rect width="33.97" height="26.87" x="207.67" y="147.34" style="stroke-width:1.07;stroke:none;stroke-linecap:butt;stroke-linejoin:miter;fill:#71c9f1"/><rect width="159.41" height="26.87" x="207.67" y="236.91" style="stroke-width:1.07;stroke:none;stroke-linecap:butt;stroke-linejoin:miter;fill:#71c9f1"/><rect width="18.29" height="26.87" x="207.67" y="87.63" style="stroke-width:1.07;stroke:none;stroke-linecap:butt;stroke-linejoin:miter;fill:#71c9f1"/><rect width="50.96" height="26.87" x="207.67" y="207.05" style="stroke-width:1.07;stroke:none;stroke-linecap:butt;stroke-linejoin:miter;fill:#71c9f1"/></g><g clip-path="url(#cpMC4wMHw1MDQuMDB8MC4wMHwzNjAuMDA=)"><text x="188.89" y="313.26" text-anchor="end" style="font-size:8.8px;fill:#4d4d4d;font-family:Arial">Command line</text><text x="188.89" y="278.65" text-anchor="end" style="font-size:8.8px;fill:#4d4d4d;font-family:Arial">GDAL Python bindings</text><text x="188.89" y="288.16" text-anchor="end" style="font-size:8.8px;fill:#4d4d4d;font-family:Arial">(from osgeo import gdal)</text><text x="188.89" y="248.8" text-anchor="end" style="font-size:8.8px;fill:#4d4d4d;font-family:Arial">Python packages</text><text x="188.89" y="258.3" text-anchor="end" style="font-size:8.8px;fill:#4d4d4d;font-family:Arial">(rasterio, fiona, geopandas, rioxarray, etc.)</text><text x="188.89" y="218.94" text-anchor="end" style="font-size:8.8px;fill:#4d4d4d;font-family:Arial">R packages</text><text x="188.89" y="228.45" text-anchor="end" style="font-size:8.8px;fill:#4d4d4d;font-family:Arial">(terra, gdalraster, stars, etc.)</text><text x="188.89" y="193.84" text-anchor="end" style="font-size:8.8px;fill:#4d4d4d;font-family:Arial">Other</text><text x="188.89" y="163.98" text-anchor="end" style="font-size:8.8px;fill:#4d4d4d;font-family:Arial">PostGIS</text><text x="188.89" y="134.13" text-anchor="end" style="font-size:8.8px;fill:#4d4d4d;font-family:Arial">C/C++</text><text x="188.89" y="104.27" text-anchor="end" style="font-size:8.8px;fill:#4d4d4d;font-family:Arial">QGIS</text><text x="188.89" y="74.41" text-anchor="end" style="font-size:8.8px;fill:#4d4d4d;font-family:Arial">Java bindings</text><text x="188.89" y="44.56" text-anchor="end" style="font-size:8.8px;fill:#4d4d4d;font-family:Arial">C# bindings</text><polyline points="191.08 310.05 193.82 310.05" style="stroke-width:1.07;stroke:#333;stroke-linecap:butt"/><polyline points="191.08 280.2 193.82 280.2" style="stroke-width:1.07;stroke:#333;stroke-linecap:butt"/><polyline points="191.08 250.34 193.82 250.34" style="stroke-width:1.07;stroke:#333;stroke-linecap:butt"/><polyline points="191.08 220.49 193.82 220.49" style="stroke-width:1.07;stroke:#333;stroke-linecap:butt"/><polyline points="191.08 190.63 193.82 190.63" style="stroke-width:1.07;stroke:#333;stroke-linecap:butt"/><polyline points="191.08 160.77 193.82 160.77" style="stroke-width:1.07;stroke:#333;stroke-linecap:butt"/><polyline points="191.08 130.92 193.82 130.92" style="stroke-width:1.07;stroke:#333;stroke-linecap:butt"/><polyline points="191.08 101.06 193.82 101.06" style="stroke-width:1.07;stroke:#333;stroke-linecap:butt"/><polyline points="191.08 71.21 193.82 71.21" style="stroke-width:1.07;stroke:#333;stroke-linecap:butt"/><polyline points="191.08 41.35 193.82 41.35" style="stroke-width:1.07;stroke:#333;stroke-linecap:butt"/><polyline points="207.67 330.71 207.67 327.97" style="stroke-width:1.07;stroke:#333;stroke-linecap:butt"/><polyline points="273 330.71 273 327.97" style="stroke-width:1.07;stroke:#333;stroke-linecap:butt"/><polyline points="338.33 330.71 338.33 327.97" style="stroke-width:1.07;stroke:#333;stroke-linecap:butt"/><polyline points="403.66 330.71 403.66 327.97" style="stroke-width:1.07;stroke:#333;stroke-linecap:butt"/><polyline points="468.99 330.71 468.99 327.97" style="stroke-width:1.07;stroke:#333;stroke-linecap:butt"/><text x="207.67" y="339.31" text-anchor="middle" style="font-size:8.8px;fill:#4d4d4d;font-family:Arial">0</text><text x="273" y="339.31" text-anchor="middle" style="font-size:8.8px;fill:#4d4d4d;font-family:Arial">50</text><text x="338.33" y="339.31" text-anchor="middle" style="font-size:8.8px;fill:#4d4d4d;font-family:Arial">100</text><text x="403.66" y="339.31" text-anchor="middle" style="font-size:8.8px;fill:#4d4d4d;font-family:Arial">150</text><text x="468.99" y="339.31" text-anchor="middle" style="font-size:8.8px;fill:#4d4d4d;font-family:Arial">200</text><text x="346.17" y="352.1" text-anchor="middle" style="font-size:11px;font-family:Arial">Number of Respondents</text><text text-anchor="middle" transform="translate(13.50,175.70) rotate(-90)" style="font-size:11px;font-family:Arial">Method</text><text x="193.82" y="15.1" style="font-size:13.2px;font-family:Arial">I use GDAL most often via...</text></g></svg>