<svg xmlns="http://www.w3.org/2000/svg" xmlns:xlink="http://www.w3.org/1999/xlink" width="672" height="480" class="svglite" viewBox="0 0 504 360"><defs><style type="text/css">.svglite polyline,.svglite rect{fill:none;stroke:#000;stroke-linecap:round;stroke-linejoin:round;stroke-miterlimit:10}</style></defs><rect width="100%" height="100%" style="stroke:none;fill:none"/><defs><clipPath id="cpMC4wMHw1MDQuMDB8MC4wMHwzNjAuMDA="><rect width="504" height="360" x="0" y="0"/></clipPath></defs><defs><clipPath id="cpMTI1LjA5fDQ5OC41MnwzOS4zNnwzMjcuOTc="><rect width="373.43" height="288.61" x="125.09" y="39.36"/></clipPath></defs><g clip-path="url(#cpMTI1LjA5fDQ5OC41MnwzOS4zNnwzMjcuOTc=)"><polyline points="207.86 327.97 207.86 39.36" style="stroke-width:.53;stroke:#fff;stroke-linecap:butt"/><polyline points="339.44 327.97 339.44 39.36" style="stroke-width:.53;stroke:#fff;stroke-linecap:butt"/><polyline points="471.02 327.97 471.02 39.36" style="stroke-width:.53;stroke:#fff;stroke-linecap:butt"/><polyline points="125.09 310.99 498.52 310.99" style="stroke-width:1.07;stroke:#fff;stroke-linecap:butt"/><polyline points="125.09 282.69 498.52 282.69" style="stroke-width:1.07;stroke:#fff;stroke-linecap:butt"/><polyline points="125.09 254.4 498.52 254.4" style="stroke-width:1.07;stroke:#fff;stroke-linecap:butt"/><polyline points="125.09 226.1 498.52 226.1" style="stroke-width:1.07;stroke:#fff;stroke-linecap:butt"/><polyline points="125.09 197.81 498.52 197.81" style="stroke-width:1.07;stroke:#fff;stroke-linecap:butt"/><polyline points="125.09 169.51 498.52 169.51" style="stroke-width:1.07;stroke:#fff;stroke-linecap:butt"/><polyline points="125.09 141.22 498.52 141.22" style="stroke-width:1.07;stroke:#fff;stroke-linecap:butt"/><polyline points="125.09 112.93 498.52 112.93" style="stroke-width:1.07;stroke:#fff;stroke-linecap:butt"/><polyline points="125.09 84.63 498.52 84.63" style="stroke-width:1.07;stroke:#fff;stroke-linecap:butt"/><polyline points="125.09 56.34 498.52 56.34" style="stroke-width:1.07;stroke:#fff;stroke-linecap:butt"/><polyline points="142.07 327.97 142.07 39.36" style="stroke-width:1.07;stroke:#fff;stroke-linecap:butt"/><polyline points="273.65 327.97 273.65 39.36" style="stroke-width:1.07;stroke:#fff;stroke-linecap:butt"/><polyline points="405.23 327.97 405.23 39.36" style="stroke-width:1.07;stroke:#fff;stroke-linecap:butt"/><rect width="152.63" height="25.47" x="142.07" y="269.96" style="stroke-width:1.07;stroke:none;stroke-linecap:butt;stroke-linejoin:miter;fill:#71c9f1"/><rect width="7.89" height="25.47" x="142.07" y="71.9" style="stroke-width:1.07;stroke:none;stroke-linecap:butt;stroke-linejoin:miter;fill:#71c9f1"/><rect width="73.69" height="25.47" x="142.07" y="213.37" style="stroke-width:1.07;stroke:none;stroke-linecap:butt;stroke-linejoin:miter;fill:#71c9f1"/><rect width="126.32" height="25.47" x="142.07" y="241.67" style="stroke-width:1.07;stroke:none;stroke-linecap:butt;stroke-linejoin:miter;fill:#71c9f1"/><rect width="5.26" height="25.47" x="142.07" y="43.6" style="stroke-width:1.07;stroke:none;stroke-linecap:butt;stroke-linejoin:miter;fill:#71c9f1"/><rect width="31.58" height="25.47" x="142.07" y="185.08" style="stroke-width:1.07;stroke:none;stroke-linecap:butt;stroke-linejoin:miter;fill:#71c9f1"/><rect width="10.53" height="25.47" x="142.07" y="100.19" style="stroke-width:1.07;stroke:none;stroke-linecap:butt;stroke-linejoin:miter;fill:#71c9f1"/><rect width="18.42" height="25.47" x="142.07" y="156.78" style="stroke-width:1.07;stroke:none;stroke-linecap:butt;stroke-linejoin:miter;fill:#71c9f1"/><rect width="339.48" height="25.47" x="142.07" y="298.26" style="stroke-width:1.07;stroke:none;stroke-linecap:butt;stroke-linejoin:miter;fill:#71c9f1"/><rect width="13.16" height="25.47" x="142.07" y="128.49" style="stroke-width:1.07;stroke:none;stroke-linecap:butt;stroke-linejoin:miter;fill:#71c9f1"/></g><g clip-path="url(#cpMC4wMHw1MDQuMDB8MC4wMHwzNjAuMDA=)"><text x="120.16" y="314.2" text-anchor="end" style="font-size:8.8px;fill:#4d4d4d;font-family:Arial">Standard unix distribution</text><text x="120.16" y="285.9" text-anchor="end" style="font-size:8.8px;fill:#4d4d4d;font-family:Arial">Built from source</text><text x="120.16" y="257.61" text-anchor="end" style="font-size:8.8px;fill:#4d4d4d;font-family:Arial">Homebrew</text><text x="120.16" y="229.31" text-anchor="end" style="font-size:8.8px;fill:#4d4d4d;font-family:Arial">Docker images</text><text x="120.16" y="201.02" text-anchor="end" style="font-size:8.8px;fill:#4d4d4d;font-family:Arial">OSGeo4W</text><text x="120.16" y="172.72" text-anchor="end" style="font-size:8.8px;fill:#4d4d4d;font-family:Arial">QGIS</text><text x="120.16" y="144.43" text-anchor="end" style="font-size:8.8px;fill:#4d4d4d;font-family:Arial">UbuntuGIS</text><text x="120.16" y="116.13" text-anchor="end" style="font-size:8.8px;fill:#4d4d4d;font-family:Arial">Other</text><text x="120.16" y="87.84" text-anchor="end" style="font-size:8.8px;fill:#4d4d4d;font-family:Arial">conda-forge / Anaconda</text><text x="120.16" y="59.54" text-anchor="end" style="font-size:8.8px;fill:#4d4d4d;font-family:Arial">NuGet</text><polyline points="122.35 310.99 125.09 310.99" style="stroke-width:1.07;stroke:#333;stroke-linecap:butt"/><polyline points="122.35 282.69 125.09 282.69" style="stroke-width:1.07;stroke:#333;stroke-linecap:butt"/><polyline points="122.35 254.4 125.09 254.4" style="stroke-width:1.07;stroke:#333;stroke-linecap:butt"/><polyline points="122.35 226.1 125.09 226.1" style="stroke-width:1.07;stroke:#333;stroke-linecap:butt"/><polyline points="122.35 197.81 125.09 197.81" style="stroke-width:1.07;stroke:#333;stroke-linecap:butt"/><polyline points="122.35 169.51 125.09 169.51" style="stroke-width:1.07;stroke:#333;stroke-linecap:butt"/><polyline points="122.35 141.22 125.09 141.22" style="stroke-width:1.07;stroke:#333;stroke-linecap:butt"/><polyline points="122.35 112.93 125.09 112.93" style="stroke-width:1.07;stroke:#333;stroke-linecap:butt"/><polyline points="122.35 84.63 125.09 84.63" style="stroke-width:1.07;stroke:#333;stroke-linecap:butt"/><polyline points="122.35 56.34 125.09 56.34" style="stroke-width:1.07;stroke:#333;stroke-linecap:butt"/><polyline points="142.07 330.71 142.07 327.97" style="stroke-width:1.07;stroke:#333;stroke-linecap:butt"/><polyline points="273.65 330.71 273.65 327.97" style="stroke-width:1.07;stroke:#333;stroke-linecap:butt"/><polyline points="405.23 330.71 405.23 327.97" style="stroke-width:1.07;stroke:#333;stroke-linecap:butt"/><text x="142.07" y="339.31" text-anchor="middle" style="font-size:8.8px;fill:#4d4d4d;font-family:Arial">0</text><text x="273.65" y="339.31" text-anchor="middle" style="font-size:8.8px;fill:#4d4d4d;font-family:Arial">50</text><text x="405.23" y="339.31" text-anchor="middle" style="font-size:8.8px;fill:#4d4d4d;font-family:Arial">100</text><text x="311.81" y="352.1" text-anchor="middle" style="font-size:11px;font-family:Arial">Number of Respondents</text><text text-anchor="middle" transform="translate(13.50,183.66) rotate(-90)" style="font-size:11px;font-family:Arial">Source</text><text x="125.09" y="31.46" style="font-size:11px;font-family:Arial">Primary operating system: Linux</text><text x="125.09" y="15.1" style="font-size:13.2px;font-family:Arial">I obtain GDAL from...</text></g></svg>