<svg xmlns="http://www.w3.org/2000/svg" xmlns:xlink="http://www.w3.org/1999/xlink" width="672" height="480" class="svglite" viewBox="0 0 504 360"><defs><style type="text/css">.svglite polyline,.svglite rect{fill:none;stroke:#000;stroke-linecap:round;stroke-linejoin:round;stroke-miterlimit:10}</style></defs><rect width="100%" height="100%" style="stroke:none;fill:none"/><defs><clipPath id="cpMC4wMHw1MDQuMDB8MC4wMHwzNjAuMDA="><rect width="504" height="360" x="0" y="0"/></clipPath></defs><defs><clipPath id="cpMTI1LjA5fDQ5OC41MnwzOS4zNnwzMjcuOTc="><rect width="373.43" height="288.61" x="125.09" y="39.36"/></clipPath></defs><g clip-path="url(#cpMTI1LjA5fDQ5OC41MnwzOS4zNnwzMjcuOTc=)"><polyline points="198.65 327.97 198.65 39.36" style="stroke-width:.53;stroke:#fff;stroke-linecap:butt"/><polyline points="311.81 327.97 311.81 39.36" style="stroke-width:.53;stroke:#fff;stroke-linecap:butt"/><polyline points="424.97 327.97 424.97 39.36" style="stroke-width:.53;stroke:#fff;stroke-linecap:butt"/><polyline points="125.09 294.67 498.52 294.67" style="stroke-width:1.07;stroke:#fff;stroke-linecap:butt"/><polyline points="125.09 239.16 498.52 239.16" style="stroke-width:1.07;stroke:#fff;stroke-linecap:butt"/><polyline points="125.09 183.66 498.52 183.66" style="stroke-width:1.07;stroke:#fff;stroke-linecap:butt"/><polyline points="125.09 128.16 498.52 128.16" style="stroke-width:1.07;stroke:#fff;stroke-linecap:butt"/><polyline points="125.09 72.66 498.52 72.66" style="stroke-width:1.07;stroke:#fff;stroke-linecap:butt"/><polyline points="142.07 327.97 142.07 39.36" style="stroke-width:1.07;stroke:#fff;stroke-linecap:butt"/><polyline points="255.23 327.97 255.23 39.36" style="stroke-width:1.07;stroke:#fff;stroke-linecap:butt"/><polyline points="368.39 327.97 368.39 39.36" style="stroke-width:1.07;stroke:#fff;stroke-linecap:butt"/><polyline points="481.55 327.97 481.55 39.36" style="stroke-width:1.07;stroke:#fff;stroke-linecap:butt"/><rect width="28.29" height="49.95" x="142.07" y="158.69" style="stroke-width:1.07;stroke:none;stroke-linecap:butt;stroke-linejoin:miter;fill:#71c9f1"/><rect width="339.48" height="49.95" x="142.07" y="269.69" style="stroke-width:1.07;stroke:none;stroke-linecap:butt;stroke-linejoin:miter;fill:#71c9f1"/><rect width="11.32" height="49.95" x="142.07" y="47.68" style="stroke-width:1.07;stroke:none;stroke-linecap:butt;stroke-linejoin:miter;fill:#71c9f1"/><rect width="16.97" height="49.95" x="142.07" y="103.19" style="stroke-width:1.07;stroke:none;stroke-linecap:butt;stroke-linejoin:miter;fill:#71c9f1"/><rect width="39.61" height="49.95" x="142.07" y="214.19" style="stroke-width:1.07;stroke:none;stroke-linecap:butt;stroke-linejoin:miter;fill:#71c9f1"/></g><g clip-path="url(#cpMC4wMHw1MDQuMDB8MC4wMHwzNjAuMDA=)"><text x="120.16" y="297.87" text-anchor="end" style="font-size:8.8px;fill:#4d4d4d;font-family:Arial">Homebrew</text><text x="120.16" y="242.37" text-anchor="end" style="font-size:8.8px;fill:#4d4d4d;font-family:Arial">Standard unix distribution</text><text x="120.16" y="186.87" text-anchor="end" style="font-size:8.8px;fill:#4d4d4d;font-family:Arial">Built from source</text><text x="120.16" y="131.37" text-anchor="end" style="font-size:8.8px;fill:#4d4d4d;font-family:Arial">QGIS</text><text x="120.16" y="75.87" text-anchor="end" style="font-size:8.8px;fill:#4d4d4d;font-family:Arial">Other</text><polyline points="122.35 294.67 125.09 294.67" style="stroke-width:1.07;stroke:#333;stroke-linecap:butt"/><polyline points="122.35 239.16 125.09 239.16" style="stroke-width:1.07;stroke:#333;stroke-linecap:butt"/><polyline points="122.35 183.66 125.09 183.66" style="stroke-width:1.07;stroke:#333;stroke-linecap:butt"/><polyline points="122.35 128.16 125.09 128.16" style="stroke-width:1.07;stroke:#333;stroke-linecap:butt"/><polyline points="122.35 72.66 125.09 72.66" style="stroke-width:1.07;stroke:#333;stroke-linecap:butt"/><polyline points="142.07 330.71 142.07 327.97" style="stroke-width:1.07;stroke:#333;stroke-linecap:butt"/><polyline points="255.23 330.71 255.23 327.97" style="stroke-width:1.07;stroke:#333;stroke-linecap:butt"/><polyline points="368.39 330.71 368.39 327.97" style="stroke-width:1.07;stroke:#333;stroke-linecap:butt"/><polyline points="481.55 330.71 481.55 327.97" style="stroke-width:1.07;stroke:#333;stroke-linecap:butt"/><text x="142.07" y="339.31" text-anchor="middle" style="font-size:8.8px;fill:#4d4d4d;font-family:Arial">0</text><text x="255.23" y="339.31" text-anchor="middle" style="font-size:8.8px;fill:#4d4d4d;font-family:Arial">20</text><text x="368.39" y="339.31" text-anchor="middle" style="font-size:8.8px;fill:#4d4d4d;font-family:Arial">40</text><text x="481.55" y="339.31" text-anchor="middle" style="font-size:8.8px;fill:#4d4d4d;font-family:Arial">60</text><text x="311.81" y="352.1" text-anchor="middle" style="font-size:11px;font-family:Arial">Number of Respondents</text><text text-anchor="middle" transform="translate(13.50,183.66) rotate(-90)" style="font-size:11px;font-family:Arial">Source</text><text x="125.09" y="31.46" style="font-size:11px;font-family:Arial">Primary operating system: OSX</text><text x="125.09" y="15.1" style="font-size:13.2px;font-family:Arial">I obtain GDAL from...</text></g></svg>