<svg xmlns="http://www.w3.org/2000/svg" xmlns:xlink="http://www.w3.org/1999/xlink" width="672" height="480" class="svglite" viewBox="0 0 504 360"><defs><style type="text/css">.svglite polyline,.svglite rect{fill:none;stroke:#000;stroke-linecap:round;stroke-linejoin:round;stroke-miterlimit:10}</style></defs><rect width="100%" height="100%" style="stroke:none;fill:none"/><defs><clipPath id="cpMC4wMHw1MDQuMDB8MC4wMHwzNjAuMDA="><rect width="504" height="360" x="0" y="0"/></clipPath></defs><defs><clipPath id="cpMTI1LjA5fDQ5OC41MnwzOS4zNnwzMjcuOTc="><rect width="373.43" height="288.61" x="125.09" y="39.36"/></clipPath></defs><g clip-path="url(#cpMTI1LjA5fDQ5OC41MnwzOS4zNnwzMjcuOTc=)"><polyline points="191.41 327.97 191.41 39.36" style="stroke-width:.53;stroke:#fff;stroke-linecap:butt"/><polyline points="290.1 327.97 290.1 39.36" style="stroke-width:.53;stroke:#fff;stroke-linecap:butt"/><polyline points="388.78 327.97 388.78 39.36" style="stroke-width:.53;stroke:#fff;stroke-linecap:butt"/><polyline points="487.47 327.97 487.47 39.36" style="stroke-width:.53;stroke:#fff;stroke-linecap:butt"/><polyline points="125.09 313.77 498.52 313.77" style="stroke-width:1.07;stroke:#fff;stroke-linecap:butt"/><polyline points="125.09 290.12 498.52 290.12" style="stroke-width:1.07;stroke:#fff;stroke-linecap:butt"/><polyline points="125.09 266.46 498.52 266.46" style="stroke-width:1.07;stroke:#fff;stroke-linecap:butt"/><polyline points="125.09 242.8 498.52 242.8" style="stroke-width:1.07;stroke:#fff;stroke-linecap:butt"/><polyline points="125.09 219.15 498.52 219.15" style="stroke-width:1.07;stroke:#fff;stroke-linecap:butt"/><polyline points="125.09 195.49 498.52 195.49" style="stroke-width:1.07;stroke:#fff;stroke-linecap:butt"/><polyline points="125.09 171.83 498.52 171.83" style="stroke-width:1.07;stroke:#fff;stroke-linecap:butt"/><polyline points="125.09 148.18 498.52 148.18" style="stroke-width:1.07;stroke:#fff;stroke-linecap:butt"/><polyline points="125.09 124.52 498.52 124.52" style="stroke-width:1.07;stroke:#fff;stroke-linecap:butt"/><polyline points="125.09 100.87 498.52 100.87" style="stroke-width:1.07;stroke:#fff;stroke-linecap:butt"/><polyline points="125.09 77.21 498.52 77.21" style="stroke-width:1.07;stroke:#fff;stroke-linecap:butt"/><polyline points="125.09 53.55 498.52 53.55" style="stroke-width:1.07;stroke:#fff;stroke-linecap:butt"/><polyline points="142.07 327.97 142.07 39.36" style="stroke-width:1.07;stroke:#fff;stroke-linecap:butt"/><polyline points="240.75 327.97 240.75 39.36" style="stroke-width:1.07;stroke:#fff;stroke-linecap:butt"/><polyline points="339.44 327.97 339.44 39.36" style="stroke-width:1.07;stroke:#fff;stroke-linecap:butt"/><polyline points="438.12 327.97 438.12 39.36" style="stroke-width:1.07;stroke:#fff;stroke-linecap:butt"/><rect width="35.53" height="21.29" x="142.07" y="208.5" style="stroke-width:1.07;stroke:none;stroke-linecap:butt;stroke-linejoin:miter;fill:#71c9f1"/><rect width="11.84" height="21.29" x="142.07" y="137.53" style="stroke-width:1.07;stroke:none;stroke-linecap:butt;stroke-linejoin:miter;fill:#71c9f1"/><rect width="11.84" height="21.29" x="142.07" y="113.88" style="stroke-width:1.07;stroke:none;stroke-linecap:butt;stroke-linejoin:miter;fill:#71c9f1"/><rect width="27.63" height="21.29" x="142.07" y="161.19" style="stroke-width:1.07;stroke:none;stroke-linecap:butt;stroke-linejoin:miter;fill:#71c9f1"/><rect width="7.89" height="21.29" x="142.07" y="90.22" style="stroke-width:1.07;stroke:none;stroke-linecap:butt;stroke-linejoin:miter;fill:#71c9f1"/><rect width="39.47" height="21.29" x="142.07" y="232.16" style="stroke-width:1.07;stroke:none;stroke-linecap:butt;stroke-linejoin:miter;fill:#71c9f1"/><rect width="169.74" height="21.29" x="142.07" y="279.47" style="stroke-width:1.07;stroke:none;stroke-linecap:butt;stroke-linejoin:miter;fill:#71c9f1"/><rect width="7.89" height="21.29" x="142.07" y="66.56" style="stroke-width:1.07;stroke:none;stroke-linecap:butt;stroke-linejoin:miter;fill:#71c9f1"/><rect width="339.48" height="21.29" x="142.07" y="303.13" style="stroke-width:1.07;stroke:none;stroke-linecap:butt;stroke-linejoin:miter;fill:#71c9f1"/><rect width="31.58" height="21.29" x="142.07" y="184.85" style="stroke-width:1.07;stroke:none;stroke-linecap:butt;stroke-linejoin:miter;fill:#71c9f1"/><rect width="130.27" height="21.29" x="142.07" y="255.81" style="stroke-width:1.07;stroke:none;stroke-linecap:butt;stroke-linejoin:miter;fill:#71c9f1"/><rect width="7.89" height="21.29" x="142.07" y="42.91" style="stroke-width:1.07;stroke:none;stroke-linecap:butt;stroke-linejoin:miter;fill:#71c9f1"/></g><g clip-path="url(#cpMC4wMHw1MDQuMDB8MC4wMHwzNjAuMDA=)"><text x="120.16" y="316.98" text-anchor="end" style="font-size:8.8px;fill:#4d4d4d;font-family:Arial">OSGeo4W</text><text x="120.16" y="293.32" text-anchor="end" style="font-size:8.8px;fill:#4d4d4d;font-family:Arial">Homebrew</text><text x="120.16" y="269.67" text-anchor="end" style="font-size:8.8px;fill:#4d4d4d;font-family:Arial">QGIS</text><text x="120.16" y="246.01" text-anchor="end" style="font-size:8.8px;fill:#4d4d4d;font-family:Arial">GISInternals</text><text x="120.16" y="222.35" text-anchor="end" style="font-size:8.8px;fill:#4d4d4d;font-family:Arial">Built from source</text><text x="120.16" y="198.7" text-anchor="end" style="font-size:8.8px;fill:#4d4d4d;font-family:Arial">Other</text><text x="120.16" y="175.04" text-anchor="end" style="font-size:8.8px;fill:#4d4d4d;font-family:Arial">conda-forge / Anaconda</text><text x="120.16" y="151.39" text-anchor="end" style="font-size:8.8px;fill:#4d4d4d;font-family:Arial">Christoph Gohlke</text><text x="120.16" y="127.73" text-anchor="end" style="font-size:8.8px;fill:#4d4d4d;font-family:Arial">Commercial software</text><text x="120.16" y="104.07" text-anchor="end" style="font-size:8.8px;fill:#4d4d4d;font-family:Arial">CRAN</text><text x="120.16" y="80.42" text-anchor="end" style="font-size:8.8px;fill:#4d4d4d;font-family:Arial">NuGet</text><text x="120.16" y="56.76" text-anchor="end" style="font-size:8.8px;fill:#4d4d4d;font-family:Arial">Standard unix distribution</text><polyline points="122.35 313.77 125.09 313.77" style="stroke-width:1.07;stroke:#333;stroke-linecap:butt"/><polyline points="122.35 290.12 125.09 290.12" style="stroke-width:1.07;stroke:#333;stroke-linecap:butt"/><polyline points="122.35 266.46 125.09 266.46" style="stroke-width:1.07;stroke:#333;stroke-linecap:butt"/><polyline points="122.35 242.8 125.09 242.8" style="stroke-width:1.07;stroke:#333;stroke-linecap:butt"/><polyline points="122.35 219.15 125.09 219.15" style="stroke-width:1.07;stroke:#333;stroke-linecap:butt"/><polyline points="122.35 195.49 125.09 195.49" style="stroke-width:1.07;stroke:#333;stroke-linecap:butt"/><polyline points="122.35 171.83 125.09 171.83" style="stroke-width:1.07;stroke:#333;stroke-linecap:butt"/><polyline points="122.35 148.18 125.09 148.18" style="stroke-width:1.07;stroke:#333;stroke-linecap:butt"/><polyline points="122.35 124.52 125.09 124.52" style="stroke-width:1.07;stroke:#333;stroke-linecap:butt"/><polyline points="122.35 100.87 125.09 100.87" style="stroke-width:1.07;stroke:#333;stroke-linecap:butt"/><polyline points="122.35 77.21 125.09 77.21" style="stroke-width:1.07;stroke:#333;stroke-linecap:butt"/><polyline points="122.35 53.55 125.09 53.55" style="stroke-width:1.07;stroke:#333;stroke-linecap:butt"/><polyline points="142.07 330.71 142.07 327.97" style="stroke-width:1.07;stroke:#333;stroke-linecap:butt"/><polyline points="240.75 330.71 240.75 327.97" style="stroke-width:1.07;stroke:#333;stroke-linecap:butt"/><polyline points="339.44 330.71 339.44 327.97" style="stroke-width:1.07;stroke:#333;stroke-linecap:butt"/><polyline points="438.12 330.71 438.12 327.97" style="stroke-width:1.07;stroke:#333;stroke-linecap:butt"/><text x="142.07" y="339.31" text-anchor="middle" style="font-size:8.8px;fill:#4d4d4d;font-family:Arial">0</text><text x="240.75" y="339.31" text-anchor="middle" style="font-size:8.8px;fill:#4d4d4d;font-family:Arial">25</text><text x="339.44" y="339.31" text-anchor="middle" style="font-size:8.8px;fill:#4d4d4d;font-family:Arial">50</text><text x="438.12" y="339.31" text-anchor="middle" style="font-size:8.8px;fill:#4d4d4d;font-family:Arial">75</text><text x="311.81" y="352.1" text-anchor="middle" style="font-size:11px;font-family:Arial">Number of Respondents</text><text text-anchor="middle" transform="translate(13.50,183.66) rotate(-90)" style="font-size:11px;font-family:Arial">Source</text><text x="125.09" y="31.46" style="font-size:11px;font-family:Arial">Primary operating system: Windows</text><text x="125.09" y="15.1" style="font-size:13.2px;font-family:Arial">I obtain GDAL from...</text></g></svg>