<svg xmlns="http://www.w3.org/2000/svg" xmlns:xlink="http://www.w3.org/1999/xlink" width="672" height="480" class="svglite" viewBox="0 0 504 360"><defs><style type="text/css">.svglite polyline,.svglite rect{fill:none;stroke:#000;stroke-linecap:round;stroke-linejoin:round;stroke-miterlimit:10}</style></defs><rect width="100%" height="100%" style="stroke:none;fill:none"/><defs><clipPath id="cpMC4wMHw1MDQuMDB8MC4wMHwzNjAuMDA="><rect width="504" height="360" x="0" y="0"/></clipPath></defs><defs><clipPath id="cpMzguNjB8NDk4LjUyfDIzLjQ0fDMyNy45Nw=="><rect width="459.92" height="304.53" x="38.6" y="23.44"/></clipPath></defs><g clip-path="url(#cpMzguNjB8NDk4LjUyfDIzLjQ0fDMyNy45Nw==)"><polyline points="38.6 260.89 498.52 260.89" style="stroke-width:.53;stroke:#fff;stroke-linecap:butt"/><polyline points="38.6 154.41 498.52 154.41" style="stroke-width:.53;stroke:#fff;stroke-linecap:butt"/><polyline points="38.6 47.93 498.52 47.93" style="stroke-width:.53;stroke:#fff;stroke-linecap:butt"/><polyline points="38.6 314.12 498.52 314.12" style="stroke-width:1.07;stroke:#fff;stroke-linecap:butt"/><polyline points="38.6 207.65 498.52 207.65" style="stroke-width:1.07;stroke:#fff;stroke-linecap:butt"/><polyline points="38.6 101.17 498.52 101.17" style="stroke-width:1.07;stroke:#fff;stroke-linecap:butt"/><polyline points="104.31 327.97 104.31 23.44" style="stroke-width:1.07;stroke:#fff;stroke-linecap:butt"/><polyline points="213.81 327.97 213.81 23.44" style="stroke-width:1.07;stroke:#fff;stroke-linecap:butt"/><polyline points="323.31 327.97 323.31 23.44" style="stroke-width:1.07;stroke:#fff;stroke-linecap:butt"/><polyline points="432.82 327.97 432.82 23.44" style="stroke-width:1.07;stroke:#fff;stroke-linecap:butt"/><rect width="98.55" height="134.16" x="55.03" y="179.96" style="stroke-width:1.07;stroke:none;stroke-linecap:butt;stroke-linejoin:miter;fill:#71c9f1"/><rect width="98.55" height="276.84" x="274.04" y="37.28" style="stroke-width:1.07;stroke:none;stroke-linecap:butt;stroke-linejoin:miter;fill:#71c9f1"/><rect width="98.55" height="225.73" x="164.53" y="88.39" style="stroke-width:1.07;stroke:none;stroke-linecap:butt;stroke-linejoin:miter;fill:#71c9f1"/><rect width="98.55" height="2.13" x="383.54" y="311.99" style="stroke-width:1.07;stroke:none;stroke-linecap:butt;stroke-linejoin:miter;fill:#71c9f1"/></g><g clip-path="url(#cpMC4wMHw1MDQuMDB8MC4wMHwzNjAuMDA=)"><text x="33.67" y="317.33" text-anchor="end" style="font-size:8.8px;fill:#4d4d4d;font-family:Arial">0</text><text x="33.67" y="210.85" text-anchor="end" style="font-size:8.8px;fill:#4d4d4d;font-family:Arial">100</text><text x="33.67" y="104.37" text-anchor="end" style="font-size:8.8px;fill:#4d4d4d;font-family:Arial">200</text><polyline points="35.86 314.12 38.6 314.12" style="stroke-width:1.07;stroke:#333;stroke-linecap:butt"/><polyline points="35.86 207.65 38.6 207.65" style="stroke-width:1.07;stroke:#333;stroke-linecap:butt"/><polyline points="35.86 101.17 38.6 101.17" style="stroke-width:1.07;stroke:#333;stroke-linecap:butt"/><polyline points="104.31 330.71 104.31 327.97" style="stroke-width:1.07;stroke:#333;stroke-linecap:butt"/><polyline points="213.81 330.71 213.81 327.97" style="stroke-width:1.07;stroke:#333;stroke-linecap:butt"/><polyline points="323.31 330.71 323.31 327.97" style="stroke-width:1.07;stroke:#333;stroke-linecap:butt"/><polyline points="432.82 330.71 432.82 327.97" style="stroke-width:1.07;stroke:#333;stroke-linecap:butt"/><text x="104.31" y="339.31" text-anchor="middle" style="font-size:8.8px;fill:#4d4d4d;font-family:Arial">1 - 4 years</text><text x="213.81" y="339.31" text-anchor="middle" style="font-size:8.8px;fill:#4d4d4d;font-family:Arial">5 - 9 years</text><text x="323.31" y="339.31" text-anchor="middle" style="font-size:8.8px;fill:#4d4d4d;font-family:Arial">10 - 20+ years</text><text x="432.82" y="339.31" text-anchor="middle" style="font-size:8.8px;fill:#4d4d4d;font-family:Arial">I&apos;m Frank Warmerdam</text><text x="268.56" y="352.1" text-anchor="middle" style="font-size:11px;font-family:Arial">Level of experience</text><text text-anchor="middle" transform="translate(13.50,175.70) rotate(-90)" style="font-size:11px;font-family:Arial">Number of respondents</text><text x="38.6" y="15.1" style="font-size:13.2px;font-family:Arial">Survey Respondents - Level of Experience</text></g></svg>