<svg xmlns="http://www.w3.org/2000/svg" xmlns:xlink="http://www.w3.org/1999/xlink" width="424" height="634pt" viewBox="0 0 318 634"><g id="graph0" class="graph" transform="scale(1 1) rotate(0) translate(4 630.25)"><title>GDALG Workflow</title><polygon fill="#fff" stroke="none" points="-4 4 -4 -630.25 313.62 -630.25 313.62 4 -4 4"/><g id="node1" class="node"><title>0</title><polygon fill="#cfe2ff" stroke="none" points="0 -375.75 0 -405.5 135.5 -405.5 135.5 -375.75 0 -375.75"/><polygon fill="none" stroke="#000" points="0 -375.75 0 -405.5 135.5 -405.5 135.5 -375.75 0 -375.75"/><text x="53.5" y="-386.2" font-family="Helvetica,sans-Serif" font-size="14" font-weight="bold" text-anchor="start" xml:space="preserve">read</text><polygon fill="none" stroke="#000" points="0 -346 0 -375.75 135.5 -375.75 135.5 -346 0 -346"/><text x="7" y="-355.45" font-family="Helvetica,sans-Serif" font-size="14" text-anchor="start" xml:space="preserve">NE2_50M_SR_W.tif</text></g><g id="node2" class="node"><title>1</title><g id="a_node2"><a target="_blank" xlink:href="../programs/gdal_raster_clip.html" xlink:title="../programs/gdal_raster_clip.html"><polygon fill="#cfe2ff" stroke="none" points="110.12 -280.25 110.12 -310 153.38 -310 153.38 -280.25 110.12 -280.25"/><polygon fill="none" stroke="#000" points="110.12 -280.25 110.12 -310 153.38 -310 153.38 -280.25 110.12 -280.25"/><text x="120.12" y="-290.7" font-family="Helvetica,sans-Serif" font-size="14" font-weight="bold" text-anchor="start" xml:space="preserve">clip</text><polygon fill="none" stroke="#000" points="110.12 -250.5 110.12 -280.25 153.38 -280.25 153.38 -250.5 110.12 -250.5"/><text x="117.12" y="-259.95" font-family="Helvetica,sans-Serif" font-size="14" text-anchor="start" xml:space="preserve">--like</text></a></g></g><g id="edge1" class="edge"><title>0-&gt;1</title><path fill="none" stroke="#000" d="M87.3,-346.19C93.08,-337.75 99.5,-328.37 105.62,-319.43"/><polygon fill="#000" stroke="#000" points="108.48 -321.44 111.24 -311.21 102.71 -317.48 108.48 -321.44"/></g><g id="node6" class="node"><title>5</title><g id="a_node6"><a target="_blank" xlink:href="../programs/gdal_raster_resize.html" xlink:title="../programs/gdal_raster_resize.html"><polygon fill="#cfe2ff" stroke="none" points="76.75 -184.75 76.75 -214.5 186.75 -214.5 186.75 -184.75 76.75 -184.75"/><polygon fill="none" stroke="#000" points="76.75 -184.75 76.75 -214.5 186.75 -214.5 186.75 -184.75 76.75 -184.75"/><text x="112.62" y="-195.2" font-family="Helvetica,sans-Serif" font-size="14" font-weight="bold" text-anchor="start" xml:space="preserve">resize</text><polygon fill="none" stroke="#000" points="76.75 -155 76.75 -184.75 186.75 -184.75 186.75 -155 76.75 -155"/><text x="83.75" y="-164.45" font-family="Helvetica,sans-Serif" font-size="14" text-anchor="start" xml:space="preserve">--size 70%,70%</text><polygon fill="none" stroke="#000" points="76.75 -125.25 76.75 -155 186.75 -155 186.75 -125.25 76.75 -125.25"/><text x="83.75" y="-134.7" font-family="Helvetica,sans-Serif" font-size="14" text-anchor="start" xml:space="preserve">-r average</text></a></g></g><g id="edge5" class="edge"><title>1-&gt;5</title><path fill="none" stroke="#000" d="M131.75,-250.78C131.75,-243.01 131.75,-234.34 131.75,-225.64"/><polygon fill="#000" stroke="#000" points="135.25 -225.78 131.75 -215.78 128.25 -225.78 135.25 -225.78"/></g><g id="node3" class="node"><title>2</title><polygon fill="#cfe2ff" stroke="none" points="81.88 -596.5 81.88 -626.25 309.62 -626.25 309.62 -596.5 81.88 -596.5"/><polygon fill="none" stroke="#000" points="81.88 -596.5 81.88 -626.25 309.62 -626.25 309.62 -596.5 81.88 -596.5"/><text x="181.5" y="-606.95" font-family="Helvetica,sans-Serif" font-size="14" font-weight="bold" text-anchor="start" xml:space="preserve">read</text><polygon fill="none" stroke="#000" points="81.88 -566.75 81.88 -596.5 309.62 -596.5 309.62 -566.75 81.88 -566.75"/><text x="88.88" y="-576.2" font-family="Helvetica,sans-Serif" font-size="14" text-anchor="start" xml:space="preserve">natural_earth_vector.gpkg</text><polygon fill="none" stroke="#000" points="81.88 -537 81.88 -566.75 309.62 -566.75 309.62 -537 81.88 -537"/><text x="88.88" y="-546.45" font-family="Helvetica,sans-Serif" font-size="14" text-anchor="start" xml:space="preserve">--layer ne_50m_admin_0_countries</text></g><g id="node4" class="node"><title>3</title><g id="a_node4"><a target="_blank" xlink:href="../programs/gdal_vector_filter.html" xlink:title="../programs/gdal_vector_filter.html"><polygon fill="#cfe2ff" stroke="none" points="107.75 -471.25 107.75 -501 283.75 -501 283.75 -471.25 107.75 -471.25"/><polygon fill="none" stroke="#000" points="107.75 -471.25 107.75 -501 283.75 -501 283.75 -471.25 107.75 -471.25"/><text x="181.12" y="-481.7" font-family="Helvetica,sans-Serif" font-size="14" font-weight="bold" text-anchor="start" xml:space="preserve">filter</text><polygon fill="none" stroke="#000" points="107.75 -441.5 107.75 -471.25 283.75 -471.25 283.75 -441.5 107.75 -441.5"/><text x="114.75" y="-450.95" font-family="Helvetica,sans-Serif" font-size="14" text-anchor="start" xml:space="preserve">--where ADMIN=&apos;Romania&apos;</text></a></g></g><g id="edge2" class="edge"><title>2-&gt;3</title><path fill="none" stroke="#000" d="M195.75,-537.17C195.75,-528.94 195.75,-520.37 195.75,-512.25"/><polygon fill="#000" stroke="#000" points="199.25 -512.29 195.75 -502.29 192.25 -512.29 199.25 -512.29"/></g><g id="node5" class="node"><title>4</title><g id="a_node5"><a target="_blank" xlink:href="../programs/gdal_vector_buffer.html" xlink:title="../programs/gdal_vector_buffer.html"><polygon fill="#cfe2ff" stroke="none" points="153.5 -375.75 153.5 -405.5 238 -405.5 238 -375.75 153.5 -375.75"/><polygon fill="none" stroke="#000" points="153.5 -375.75 153.5 -405.5 238 -405.5 238 -375.75 153.5 -375.75"/><text x="176.62" y="-386.2" font-family="Helvetica,sans-Serif" font-size="14" font-weight="bold" text-anchor="start" xml:space="preserve">buffer</text><polygon fill="none" stroke="#000" points="153.5 -346 153.5 -375.75 238 -375.75 238 -346 153.5 -346"/><text x="160.5" y="-355.45" font-family="Helvetica,sans-Serif" font-size="14" text-anchor="start" xml:space="preserve">--distance 1</text></a></g></g><g id="edge3" class="edge"><title>3-&gt;4</title><path fill="none" stroke="#000" d="M195.75,-441.69C195.75,-433.88 195.75,-425.26 195.75,-416.93"/><polygon fill="#000" stroke="#000" points="199.25 -416.97 195.75 -406.97 192.25 -416.97 199.25 -416.97"/></g><g id="edge4" class="edge"><title>4-&gt;1</title><path fill="none" stroke="#000" d="M176.2,-346.19C170.42,-337.75 164,-328.37 157.88,-319.43"/><polygon fill="#000" stroke="#000" points="160.79 -317.48 152.26 -311.21 155.02 -321.44 160.79 -317.48"/></g><g id="node7" class="node"><title>6</title><polygon fill="#cfe2ff" stroke="none" points="86.88 -59.5 86.88 -89.25 176.62 -89.25 176.62 -59.5 86.88 -59.5"/><polygon fill="none" stroke="#000" points="86.88 -59.5 86.88 -89.25 176.62 -89.25 176.62 -59.5 86.88 -59.5"/><text x="115.62" y="-69.95" font-family="Helvetica,sans-Serif" font-size="14" font-weight="bold" text-anchor="start" xml:space="preserve">write</text><polygon fill="none" stroke="#000" points="86.88 -29.75 86.88 -59.5 176.62 -59.5 176.62 -29.75 86.88 -29.75"/><text x="93.88" y="-39.2" font-family="Helvetica,sans-Serif" font-size="14" text-anchor="start" xml:space="preserve">romania.png</text><polygon fill="none" stroke="#000" points="86.88 0 86.88 -29.75 176.62 -29.75 176.62 0 86.88 0"/><text x="93.88" y="-9.45" font-family="Helvetica,sans-Serif" font-size="14" text-anchor="start" xml:space="preserve">--overwrite</text></g><g id="edge6" class="edge"><title>5-&gt;6</title><path fill="none" stroke="#000" d="M131.75,-125.42C131.75,-117.32 131.75,-108.76 131.75,-100.37"/><polygon fill="#000" stroke="#000" points="135.25 -100.61 131.75 -90.61 128.25 -100.61 135.25 -100.61"/></g></g></svg>