<svg xmlns="http://www.w3.org/2000/svg" xmlns:xlink="http://www.w3.org/1999/xlink" width="281pt" height="509pt" viewBox="0 0 281 509"><g id="graph0" class="graph" transform="scale(1 1) rotate(0) translate(4 505)"><title>GDALG Workflow</title><polygon fill="#fff" stroke="none" points="-4 4 -4 -505 276.75 -505 276.75 4 -4 4"/><g id="node1" class="node"><title>0</title><polygon fill="#cfe2ff" stroke="none" points="0 -471.25 0 -501 272.75 -501 272.75 -471.25 0 -471.25"/><polygon fill="none" stroke="#000" points="0 -471.25 0 -501 272.75 -501 272.75 -471.25 0 -471.25"/><text x="122.12" y="-481.7" font-family="Helvetica,sans-Serif" font-size="14" font-weight="bold" text-anchor="start" xml:space="preserve">read</text><polygon fill="none" stroke="#000" points="0 -441.5 0 -471.25 272.75 -471.25 272.75 -441.5 0 -441.5"/><text x="7" y="-450.95" font-family="Helvetica,sans-Serif" font-size="14" text-anchor="start" xml:space="preserve">natural_earth_vector.gpkg</text><polygon fill="none" stroke="#000" points="0 -411.75 0 -441.5 272.75 -441.5 272.75 -411.75 0 -411.75"/><text x="7" y="-421.2" font-family="Helvetica,sans-Serif" font-size="14" text-anchor="start" xml:space="preserve">--layer ne_110m_populated_places_simple</text></g><g id="node2" class="node"><title>1</title><g id="a_node2"><a target="_blank" xlink:href="../programs/gdal_vector_filter.html" xlink:title="../programs/gdal_vector_filter.html"><polygon fill="#cfe2ff" stroke="none" points="66.75 -346 66.75 -375.75 206 -375.75 206 -346 66.75 -346"/><polygon fill="none" stroke="#000" points="66.75 -346 66.75 -375.75 206 -375.75 206 -346 66.75 -346"/><text x="121.75" y="-356.45" font-family="Helvetica,sans-Serif" font-size="14" font-weight="bold" text-anchor="start" xml:space="preserve">filter</text><polygon fill="none" stroke="#000" points="66.75 -316.25 66.75 -346 206 -346 206 -316.25 66.75 -316.25"/><text x="73.75" y="-325.7" font-family="Helvetica,sans-Serif" font-size="14" text-anchor="start" xml:space="preserve">--where worldcity = 1</text></a></g></g><g id="edge1" class="edge"><title>0-&gt;1</title><path fill="none" stroke="#000" d="M136.38,-411.92C136.38,-403.69 136.38,-395.12 136.38,-387"/><polygon fill="#000" stroke="#000" points="139.88 -387.04 136.38 -377.04 132.88 -387.04 139.88 -387.04"/></g><g id="node3" class="node"><title>2</title><g id="a_node3"><a target="_blank" xlink:href="../programs/gdal_raster_select.html" xlink:title="../programs/gdal_raster_select.html"><polygon fill="#cfe2ff" stroke="none" points="38.62 -250.5 38.62 -280.25 234.12 -280.25 234.12 -250.5 38.62 -250.5"/><polygon fill="none" stroke="#000" points="38.62 -250.5 38.62 -280.25 234.12 -280.25 234.12 -250.5 38.62 -250.5"/><text x="117.25" y="-260.95" font-family="Helvetica,sans-Serif" font-size="14" font-weight="bold" text-anchor="start" xml:space="preserve">select</text><polygon fill="none" stroke="#000" points="38.62 -220.75 38.62 -250.5 234.12 -250.5 234.12 -220.75 38.62 -220.75"/><text x="45.62" y="-230.2" font-family="Helvetica,sans-Serif" font-size="14" text-anchor="start" xml:space="preserve">--fields _ogr_geometry_,name</text></a></g></g><g id="edge2" class="edge"><title>1-&gt;2</title><path fill="none" stroke="#000" d="M136.38,-316.44C136.38,-308.63 136.38,-300.01 136.38,-291.68"/><polygon fill="#000" stroke="#000" points="139.88 -291.72 136.38 -281.72 132.88 -291.72 139.88 -291.72"/></g><g id="node4" class="node"><title>3</title><g id="a_node4"><a target="_blank" xlink:href="../programs/gdal_raster_reproject.html" xlink:title="../programs/gdal_raster_reproject.html"><polygon fill="#cfe2ff" stroke="none" points="64.12 -155 64.12 -184.75 208.62 -184.75 208.62 -155 64.12 -155"/><polygon fill="none" stroke="#000" points="64.12 -155 64.12 -184.75 208.62 -184.75 208.62 -155 64.12 -155"/><text x="107.5" y="-165.45" font-family="Helvetica,sans-Serif" font-size="14" font-weight="bold" text-anchor="start" xml:space="preserve">reproject</text><polygon fill="none" stroke="#000" points="64.12 -125.25 64.12 -155 208.62 -155 208.62 -125.25 64.12 -125.25"/><text x="71.12" y="-134.7" font-family="Helvetica,sans-Serif" font-size="14" text-anchor="start" xml:space="preserve">--dst-crs=ESRI:53009</text></a></g></g><g id="edge3" class="edge"><title>2-&gt;3</title><path fill="none" stroke="#000" d="M136.38,-220.94C136.38,-213.13 136.38,-204.51 136.38,-196.18"/><polygon fill="#000" stroke="#000" points="139.88 -196.22 136.38 -186.22 132.88 -196.22 139.88 -196.22"/></g><g id="node5" class="node"><title>4</title><polygon fill="#cfe2ff" stroke="none" points="55.12 -59.5 55.12 -89.25 217.62 -89.25 217.62 -59.5 55.12 -59.5"/><polygon fill="none" stroke="#000" points="55.12 -59.5 55.12 -89.25 217.62 -89.25 217.62 -59.5 55.12 -59.5"/><text x="120.25" y="-69.95" font-family="Helvetica,sans-Serif" font-size="14" font-weight="bold" text-anchor="start" xml:space="preserve">write</text><polygon fill="none" stroke="#000" points="55.12 -29.75 55.12 -59.5 217.62 -59.5 217.62 -29.75 55.12 -29.75"/><text x="62.12" y="-39.2" font-family="Helvetica,sans-Serif" font-size="14" text-anchor="start" xml:space="preserve">worldcity_53009.geojson</text><polygon fill="none" stroke="#000" points="55.12 0 55.12 -29.75 217.62 -29.75 217.62 0 55.12 0"/><text x="62.12" y="-9.45" font-family="Helvetica,sans-Serif" font-size="14" text-anchor="start" xml:space="preserve">--overwrite</text></g><g id="edge4" class="edge"><title>3-&gt;4</title><path fill="none" stroke="#000" d="M136.38,-125.53C136.38,-117.76 136.38,-109.09 136.38,-100.39"/><polygon fill="#000" stroke="#000" points="139.88 -100.53 136.38 -90.53 132.88 -100.53 139.88 -100.53"/></g></g></svg>