<svg xmlns="http://www.w3.org/2000/svg" xmlns:xlink="http://www.w3.org/1999/xlink" width="724" height="146pt" viewBox="0 0 543 146"><g id="graph0" class="graph" transform="scale(1 1) rotate(0) translate(4 141.5)"><title>GDALG Workflow</title><polygon fill="#fff" stroke="none" points="-4 4 -4 -141.5 539.25 -141.5 539.25 4 -4 4"/><g id="node1" class="node"><title>0</title><polygon fill="#cfe2ff" stroke="none" points="0 -107.75 0 -137.5 50.75 -137.5 50.75 -107.75 0 -107.75"/><polygon fill="none" stroke="#000" points="0 -107.75 0 -137.5 50.75 -137.5 50.75 -107.75 0 -107.75"/><text x="11.12" y="-118.2" font-family="Helvetica,sans-Serif" font-size="14" font-weight="bold" text-anchor="start" xml:space="preserve">read</text><polygon fill="none" stroke="#000" points="0 -78 0 -107.75 50.75 -107.75 50.75 -78 0 -78"/><text x="7" y="-87.45" font-family="Helvetica,sans-Serif" font-size="14" text-anchor="start" xml:space="preserve">n43.tif</text></g><g id="node2" class="node"><title>1</title><g id="a_node2"><a target="_blank" xlink:href="../programs/gdal_raster_color_map.html" xlink:title="../programs/gdal_raster_color_map.html"><polygon fill="#cfe2ff" stroke="none" points="86.75 -107.75 86.75 -137.5 246.25 -137.5 246.25 -107.75 86.75 -107.75"/><polygon fill="none" stroke="#000" points="86.75 -107.75 86.75 -137.5 246.25 -137.5 246.25 -107.75 86.75 -107.75"/><text x="133.5" y="-118.2" font-family="Helvetica,sans-Serif" font-size="14" font-weight="bold" text-anchor="start" xml:space="preserve">color-map</text><polygon fill="none" stroke="#000" points="86.75 -78 86.75 -107.75 246.25 -107.75 246.25 -78 86.75 -78"/><text x="93.75" y="-87.45" font-family="Helvetica,sans-Serif" font-size="14" text-anchor="start" xml:space="preserve">--color-map color_file.txt</text></a></g></g><g id="edge1" class="edge"><title>0-&gt;1</title><path fill="none" stroke="#000" d="M50.61,-107.75C57.97,-107.75 66.53,-107.75 75.6,-107.75"/><polygon fill="#000" stroke="#000" points="75.35 -111.25 85.35 -107.75 75.35 -104.25 75.35 -111.25"/></g><g id="node3" class="node"><title>2</title><g id="a_node3"><a target="_blank" xlink:href="../programs/gdal_raster_blend.html" xlink:title="../programs/gdal_raster_blend.html"><polygon fill="#cfe2ff" stroke="none" points="282.25 -83.62 282.25 -113.38 421.5 -113.38 421.5 -83.62 282.25 -83.62"/><polygon fill="none" stroke="#000" points="282.25 -83.62 282.25 -113.38 421.5 -113.38 421.5 -83.62 282.25 -83.62"/><text x="333.88" y="-94.08" font-family="Helvetica,sans-Serif" font-size="14" font-weight="bold" text-anchor="start" xml:space="preserve">blend</text><polygon fill="none" stroke="#000" points="282.25 -53.88 282.25 -83.62 421.5 -83.62 421.5 -53.88 282.25 -53.88"/><text x="289.25" y="-63.33" font-family="Helvetica,sans-Serif" font-size="14" text-anchor="start" xml:space="preserve">--operator=hsv-value</text><polygon fill="none" stroke="#000" points="282.25 -24.12 282.25 -53.88 421.5 -53.88 421.5 -24.12 282.25 -24.12"/><text x="289.25" y="-33.58" font-family="Helvetica,sans-Serif" font-size="14" text-anchor="start" xml:space="preserve">--overlay</text></a></g></g><g id="edge2" class="edge"><title>1-&gt;2</title><path fill="none" stroke="#000" d="M246.07,-91.04C254.35,-89.28 262.79,-87.48 271.09,-85.72"/><polygon fill="#000" stroke="#000" points="271.76 -89.15 280.82 -83.65 270.31 -82.31 271.76 -89.15"/></g><g id="node6" class="node"><title>5</title><polygon fill="#cfe2ff" stroke="none" points="457.5 -83.62 457.5 -113.38 535.25 -113.38 535.25 -83.62 457.5 -83.62"/><polygon fill="none" stroke="#000" points="457.5 -83.62 457.5 -113.38 535.25 -113.38 535.25 -83.62 457.5 -83.62"/><text x="480.25" y="-94.08" font-family="Helvetica,sans-Serif" font-size="14" font-weight="bold" text-anchor="start" xml:space="preserve">write</text><polygon fill="none" stroke="#000" points="457.5 -53.88 457.5 -83.62 535.25 -83.62 535.25 -53.88 457.5 -53.88"/><text x="464.5" y="-63.33" font-family="Helvetica,sans-Serif" font-size="14" text-anchor="start" xml:space="preserve">out.tif</text><polygon fill="none" stroke="#000" points="457.5 -24.12 457.5 -53.88 535.25 -53.88 535.25 -24.12 457.5 -24.12"/><text x="464.5" y="-33.58" font-family="Helvetica,sans-Serif" font-size="14" text-anchor="start" xml:space="preserve">--overwrite</text></g><g id="edge5" class="edge"><title>2-&gt;5</title><path fill="none" stroke="#000" d="M421.2,-68.75C429.65,-68.75 438.15,-68.75 446.23,-68.75"/><polygon fill="#000" stroke="#000" points="446.2 -72.25 456.2 -68.75 446.2 -65.25 446.2 -72.25"/></g><g id="node4" class="node"><title>3</title><polygon fill="#cfe2ff" stroke="none" points="0 -29.75 0 -59.5 50.75 -59.5 50.75 -29.75 0 -29.75"/><polygon fill="none" stroke="#000" points="0 -29.75 0 -59.5 50.75 -59.5 50.75 -29.75 0 -29.75"/><text x="11.12" y="-40.2" font-family="Helvetica,sans-Serif" font-size="14" font-weight="bold" text-anchor="start" xml:space="preserve">read</text><polygon fill="none" stroke="#000" points="0 0 0 -29.75 50.75 -29.75 50.75 0 0 0"/><text x="7" y="-9.45" font-family="Helvetica,sans-Serif" font-size="14" text-anchor="start" xml:space="preserve">n43.tif</text></g><g id="node5" class="node"><title>4</title><g id="a_node5"><a target="_blank" xlink:href="../programs/gdal_raster_hillshade.html" xlink:title="../programs/gdal_raster_hillshade.html"><polygon fill="#cfe2ff" stroke="none" points="130.25 -29.75 130.25 -59.5 202.75 -59.5 202.75 -29.75 130.25 -29.75"/><polygon fill="none" stroke="#000" points="130.25 -29.75 130.25 -59.5 202.75 -59.5 202.75 -29.75 130.25 -29.75"/><text x="137.25" y="-40.2" font-family="Helvetica,sans-Serif" font-size="14" font-weight="bold" text-anchor="start" xml:space="preserve">hillshade</text><polygon fill="none" stroke="#000" points="130.25 0 130.25 -29.75 202.75 -29.75 202.75 0 130.25 0"/><text x="137.25" y="-9.45" font-family="Helvetica,sans-Serif" font-size="14" text-anchor="start" xml:space="preserve">-z 30</text></a></g></g><g id="edge3" class="edge"><title>3-&gt;4</title><path fill="none" stroke="#000" d="M50.61,-29.75C69.46,-29.75 96.17,-29.75 119.09,-29.75"/><polygon fill="#000" stroke="#000" points="118.82 -33.25 128.82 -29.75 118.82 -26.25 118.82 -33.25"/></g><g id="edge4" class="edge"><title>4-&gt;2</title><path fill="none" stroke="#000" d="M202.42,-37.18C221.98,-41.34 247.21,-46.7 271.31,-51.83"/><polygon fill="#000" stroke="#000" points="270.29 -55.19 280.8 -53.85 271.74 -48.34 270.29 -55.19"/></g></g></svg>